<?xml version="1.0" encoding="utf-8"?>
<!-- Generator: Adobe Illustrator 16.0.0, SVG Export Plug-In . SVG Version: 6.00 Build 0)  -->
<!DOCTYPE svg PUBLIC "-//W3C//DTD SVG 1.1//EN" "http://www.w3.org/Graphics/SVG/1.1/DTD/svg11.dtd">
<svg version="1.1" id="Layer_1" xmlns="http://www.w3.org/2000/svg" xmlns:xlink="http://www.w3.org/1999/xlink" x="0px" y="0px"
	 width="170px" height="105px" viewBox="0 0 170 105" enable-background="new 0 0 170 105" xml:space="preserve">
<title>Artboard</title>
<desc>Created with Sketch.</desc>
<g id="Page-1">
	<g id="Artboard">
		<g id="Yongo_Logo_Neg_Horizontal" transform="translate(5.000000, 5.000000)">
			<g id="Layer_1_1_">
				<path id="Shape" fill="#FFFFFF" d="M34.911,27.09l-12.174-7.024l9.924-5.766c0.454-0.24,1.776-0.979,3.312-0.979
					c2.671,0.001,5.03,1.739,5.822,4.289c0.792,2.55-0.167,5.319-2.367,6.833l0,0C39.18,24.625,34.911,27.09,34.911,27.09z"/>
				
					<linearGradient id="Shape_125_" gradientUnits="userSpaceOnUse" x1="-206.9053" y1="424.0059" x2="-206.9053" y2="425.0284" gradientTransform="matrix(12.1864 0 0 -17.8911 2550.2598 7620.7026)">
					<stop  offset="0" style="stop-color:#FFFFFF"/>
					<stop  offset="1" style="stop-color:#FFFFFF;stop-opacity:0.4"/>
				</linearGradient>
				<path id="Shape_1_" fill="url(#Shape_125_)" d="M22.736,20.065l12.186,7.009l-0.027,5.233c-0.198,2.67-2.113,4.898-4.723,5.495
					c-2.609,0.597-5.303-0.578-6.641-2.896c-0.655-1.131-0.775-2.358-0.786-3.593L22.736,20.065z"/>
				
					<linearGradient id="Shape_126_" gradientUnits="userSpaceOnUse" x1="-140.2402" y1="322.8945" x2="-80.0865" y2="244.4736" gradientTransform="matrix(19.3346 0 0 -13.7691 4139.5854 5783.8022)">
					<stop  offset="0" style="stop-color:#FFFFFF"/>
					<stop  offset="1" style="stop-color:#FFFFFF;stop-opacity:0.4"/>
				</linearGradient>
				<path id="Shape_2_" fill="url(#Shape_126_)" d="M7.293,27.09l12.175-7.024L9.543,14.3c-0.454-0.24-1.775-0.979-3.312-0.979
					c-2.671,0.001-5.03,1.739-5.822,4.289c-0.792,2.55,0.167,5.319,2.367,6.833l0,0C3.024,24.625,7.293,27.09,7.293,27.09z"/>
				<path id="Shape_3_" fill="#FFFFFF" d="M19.468,20.065L7.282,27.074l0.027,5.233c0.198,2.67,2.113,4.898,4.723,5.495
					s5.303-0.578,6.641-2.896c0.655-1.131,0.775-2.358,0.786-3.593L19.468,20.065z"/>
				<path id="Shape_4_" fill="#FFFFFF" d="M21.097,3.208l0.041,14.056l9.928-5.742c0.434-0.274,1.732-1.048,2.496-2.388
					c1.328-2.317,0.993-5.229-0.826-7.185c-1.819-1.956-4.698-2.5-7.106-1.344l0,0C25.357,0.732,21.097,3.208,21.097,3.208z"/>
				
					<linearGradient id="Shape_127_" gradientUnits="userSpaceOnUse" x1="-117.5186" y1="391.5781" x2="-6.6286" y2="352.4068" gradientTransform="matrix(13.31 0 0 -17.2321 2788.7209 7308.0815)">
					<stop  offset="0" style="stop-color:#FFFFFF"/>
					<stop  offset="1" style="stop-color:#FFFFFF;stop-opacity:0.4"/>
				</linearGradient>
				<path id="Shape_5_" fill="url(#Shape_127_)" d="M21.131,17.264L21.108,3.208L16.554,0.63c-2.415-1.157-5.301-0.603-7.116,1.364
					S7.302,6.883,8.648,9.197c0.655,1.128,1.655,1.844,2.724,2.473L21.131,17.264z"/>
				<path id="Shape_6_" fill="none" d="M121.923,30.868c-0.546,0.614-0.546,1.538,0,2.152c0.579,0.554,1.491,0.554,2.07,0
					c0.545-0.614,0.545-1.538,0-2.152C123.414,30.313,122.502,30.313,121.923,30.868L121.923,30.868z"/>
				<path id="Shape_7_" fill="none" d="M105.091,30.494c-0.382,0.001-0.75,0.141-1.036,0.394c-0.317,0.274-0.49,0.679-0.468,1.098
					c-0.001,0.055,0.001,0.109,0.008,0.163l2.544-1.087C105.941,30.683,105.592,30.494,105.091,30.494z"/>
				<path id="Shape_8_" fill="none" d="M66.836,30.479c-0.382,0.001-0.75,0.141-1.037,0.393c-0.317,0.274-0.49,0.679-0.468,1.097
					c-0.001,0.054,0.001,0.108,0.008,0.162l2.537-1.085C67.681,30.667,67.334,30.478,66.836,30.479z"/>
				<path id="Shape_9_" fill="none" d="M75.602,7.382c-1.824,0-3.363,0.647-4.618,1.942c-1.254,1.295-1.881,2.865-1.881,4.709
					c0,1.845,0.627,3.415,1.881,4.708c1.255,1.294,2.794,1.941,4.618,1.942c1.825,0,3.364-0.647,4.618-1.942
					c1.253-1.294,1.88-2.864,1.88-4.708c0-1.845-0.627-3.415-1.88-4.709C78.965,8.03,77.426,7.382,75.602,7.382z"/>
				<path id="Shape_10_" fill="none" d="M72.863,30.873c-0.243-0.282-0.599-0.442-0.971-0.437c-0.377-0.003-0.738,0.155-0.989,0.437
					c-0.273,0.296-0.418,0.688-0.405,1.09c-0.015,0.399,0.138,0.786,0.422,1.066c0.26,0.266,0.617,0.414,0.988,0.412
					c0.366,0.006,0.716-0.146,0.963-0.416c0.268-0.29,0.409-0.674,0.393-1.068C73.274,31.559,73.13,31.17,72.863,30.873
					L72.863,30.873z"/>
				<path id="Shape_11_" fill="none" d="M95.802,30.873c-0.243-0.282-0.599-0.441-0.971-0.437c-0.377-0.003-0.737,0.156-0.988,0.437
					c-0.276,0.294-0.425,0.687-0.414,1.09c-0.015,0.399,0.138,0.786,0.422,1.066c0.261,0.266,0.616,0.414,0.988,0.412
					c0.366,0.006,0.716-0.146,0.963-0.416c0.268-0.29,0.409-0.674,0.394-1.068C96.207,31.56,96.066,31.171,95.802,30.873
					L95.802,30.873z"/>
				<path id="Shape_12_" fill="none" d="M115.422,30.773c-0.243-0.27-0.593-0.418-0.955-0.406c-0.359-0.014-0.705,0.142-0.934,0.421
					c-0.23,0.274-0.354,0.622-0.348,0.98c-0.008,0.354,0.117,0.699,0.348,0.968c0.233,0.272,0.579,0.423,0.938,0.408
					c0.359,0.013,0.708-0.13,0.953-0.393c0.246-0.267,0.377-0.619,0.366-0.981C115.8,31.402,115.668,31.046,115.422,30.773
					L115.422,30.773z"/>
				<path id="Shape_13_" fill="none" d="M140.625,7.382c-1.824,0-3.363,0.647-4.617,1.942c-1.254,1.295-1.882,2.865-1.882,4.709
					c0,1.845,0.628,3.415,1.882,4.708c1.254,1.294,2.793,1.941,4.617,1.942c1.825,0,3.365-0.647,4.618-1.942
					c1.253-1.294,1.88-2.864,1.88-4.708c0-1.845-0.627-3.415-1.88-4.709C143.99,8.03,142.45,7.382,140.625,7.382z"/>
				<path id="Shape_14_" fill="#FFFFFF" d="M61.941,28.232v4.604c0,0.48,0.125,0.843,0.375,1.089
					c0.268,0.252,0.626,0.385,0.993,0.368c0.364,0.021,0.718-0.124,0.963-0.393l-0.422-0.704c-0.093,0.144-0.258,0.224-0.429,0.208
					c-0.349,0-0.524-0.227-0.524-0.682v-4.491H61.941z"/>
				<path id="Shape_15_" fill="#FFFFFF" d="M68.967,31.464c0.009-0.522-0.222-1.02-0.627-1.35c-0.438-0.357-0.992-0.543-1.557-0.524
					c-0.391-0.001-0.776,0.089-1.125,0.262c-0.367,0.184-0.676,0.465-0.894,0.813c-0.245,0.381-0.371,0.827-0.361,1.28
					c0,0.699,0.232,1.267,0.696,1.703c0.451,0.424,1.049,0.655,1.668,0.644c0.731,0.004,1.431-0.301,1.926-0.84l-0.567-0.625
					c-0.305,0.388-0.775,0.61-1.269,0.6c-0.469,0.02-0.92-0.184-1.216-0.549l3.334-1.396L68.967,31.464z M65.34,32.132
					c-0.006-0.054-0.009-0.108-0.008-0.163c-0.022-0.418,0.151-0.823,0.468-1.097c0.286-0.252,0.655-0.392,1.037-0.393
					c0.498,0,0.844,0.188,1.039,0.565L65.34,32.132z"/>
				<path id="Shape_16_" fill="#FFFFFF" d="M74.205,34.224v-4.56h-0.963v0.786c-0.39-0.57-0.887-0.856-1.488-0.857
					c-0.585-0.007-1.149,0.222-1.565,0.634c-0.442,0.423-0.663,0.991-0.663,1.704s0.215,1.284,0.645,1.714
					c0.391,0.419,0.94,0.657,1.514,0.655c0.297-0.003,0.59-0.074,0.855-0.21c0.281-0.138,0.523-0.346,0.701-0.604v0.746
					L74.205,34.224z M72.863,33.028c-0.247,0.27-0.598,0.421-0.963,0.416c-0.372,0.002-0.728-0.146-0.988-0.412
					c-0.282-0.282-0.432-0.67-0.414-1.069c-0.012-0.405,0.136-0.797,0.413-1.093c0.251-0.281,0.612-0.44,0.989-0.437
					c0.373-0.005,0.728,0.154,0.971,0.437c0.266,0.299,0.406,0.689,0.393,1.089C73.278,32.355,73.133,32.74,72.863,33.028z"/>
				<path id="Shape_17_" fill="#FFFFFF" d="M75.204,29.664v4.56h0.963v-1.955c0-0.52,0.121-0.934,0.362-1.244
					c0.241-0.309,0.599-0.463,1.074-0.461h0.052l-0.009-0.97c-0.304,0.008-0.599,0.106-0.847,0.283
					c-0.264,0.181-0.481,0.422-0.633,0.704v-0.917H75.204z"/>
				<path id="Shape_18_" fill="#FFFFFF" d="M82.656,34.224V31.43c0-0.594-0.158-1.048-0.477-1.362
					c-0.398-0.376-0.949-0.547-1.49-0.463c-0.542,0.083-1.015,0.413-1.282,0.892v-0.832h-0.963v4.56h0.963v-2.469
					c0-0.423,0.124-0.744,0.37-0.964c0.237-0.217,0.547-0.335,0.867-0.33c0.699,0,1.049,0.419,1.049,1.259v2.502L82.656,34.224z"/>
				<path id="Shape_19_" fill="#FFFFFF" d="M90.717,33.311c-0.15,0.107-0.332,0.161-0.517,0.15c-0.498,0-1.014-0.2-1.546-0.6
					l-0.467,0.746c0.285,0.223,0.606,0.394,0.949,0.506c0.334,0.116,0.684,0.177,1.035,0.181c0.438,0.018,0.869-0.122,1.213-0.393
					c0.312-0.253,0.487-0.639,0.473-1.041c0-0.437-0.154-0.757-0.463-0.96c-0.139-0.092-0.283-0.172-0.435-0.24
					c-0.131-0.056-0.274-0.107-0.417-0.153c-0.141-0.046-0.308-0.092-0.494-0.131c-0.149-0.033-0.295-0.082-0.435-0.146
					c-0.136-0.05-0.226-0.18-0.223-0.325c-0.007-0.155,0.077-0.301,0.215-0.373c0.172-0.09,0.364-0.133,0.558-0.125
					c0.433-0.001,0.854,0.127,1.213,0.368l0.361-0.711c-0.441-0.299-0.962-0.46-1.495-0.463c-0.459-0.021-0.912,0.113-1.285,0.381
					c-0.321,0.237-0.506,0.617-0.494,1.016c0,0.599,0.476,1.028,1.427,1.286c0.035,0.009,0.07,0.02,0.104,0.033
					c0.607,0.183,0.913,0.389,0.918,0.618C90.91,33.083,90.838,33.224,90.717,33.311z"/>
				<path id="Shape_20_" fill="#FFFFFF" d="M97.144,34.224v-4.56h-0.963v0.786c-0.391-0.57-0.887-0.856-1.489-0.857
					c-0.585-0.007-1.148,0.222-1.564,0.634c-0.441,0.423-0.662,0.991-0.662,1.704s0.215,1.284,0.645,1.714
					c0.391,0.419,0.939,0.657,1.514,0.655c0.297-0.003,0.59-0.074,0.855-0.21c0.281-0.138,0.522-0.346,0.701-0.604v0.746
					L97.144,34.224z M95.802,33.028c-0.247,0.27-0.597,0.421-0.963,0.416c-0.372,0.002-0.728-0.146-0.988-0.412
					c-0.284-0.281-0.438-0.669-0.422-1.069c-0.013-0.405,0.136-0.797,0.413-1.093c0.251-0.281,0.611-0.44,0.988-0.437
					c0.371-0.005,0.727,0.154,0.971,0.437c0.266,0.299,0.406,0.689,0.393,1.089C96.21,32.354,96.069,32.738,95.802,33.028z"/>
				<polygon id="Shape_21_" fill="#FFFFFF" points="98.772,29.664 97.775,29.664 99.613,34.225 100.715,34.225 102.555,29.664 
					101.557,29.664 100.164,33.11 				"/>
				<path id="Shape_22_" fill="#FFFFFF" d="M107.229,31.479c0.008-0.522-0.223-1.02-0.628-1.35
					c-0.438-0.356-0.991-0.543-1.556-0.524c-0.391,0-0.775,0.089-1.125,0.262c-0.367,0.184-0.676,0.466-0.895,0.813
					c-0.244,0.382-0.369,0.827-0.361,1.28c0,0.699,0.232,1.267,0.697,1.704c0.451,0.423,1.049,0.654,1.668,0.643
					c0.732,0.004,1.432-0.301,1.926-0.84l-0.566-0.625c-0.305,0.388-0.774,0.61-1.268,0.6c-0.469,0.02-0.92-0.184-1.216-0.549
					l3.335-1.397L107.229,31.479z M103.6,32.148c-0.006-0.054-0.009-0.108-0.008-0.163c-0.021-0.418,0.15-0.824,0.468-1.098
					c0.286-0.253,0.655-0.393,1.036-0.394c0.498,0,0.845,0.189,1.039,0.566L103.6,32.148z"/>
				<path id="Shape_23_" fill="#FFFFFF" d="M116.131,35.407c0.416-0.423,0.623-1.031,0.623-1.825v-3.918h-0.963v0.549
					c-0.387-0.407-0.929-0.632-1.49-0.619c-0.562-0.015-1.103,0.217-1.479,0.635c-0.779,0.907-0.779,2.247,0,3.154
					c0.382,0.42,0.929,0.652,1.496,0.634c0.304,0.001,0.604-0.07,0.873-0.21c0.241-0.113,0.447-0.289,0.598-0.51v0.262
					c0,1.091-0.424,1.637-1.272,1.637c-0.646,0-1.083-0.3-1.311-0.899l-0.843,0.359c0.156,0.425,0.447,0.787,0.83,1.029
					c0.397,0.245,0.857,0.37,1.324,0.36h0.008C115.127,36.065,115.708,35.834,116.131,35.407z M115.426,32.75
					c-0.246,0.263-0.594,0.407-0.954,0.393c-0.358,0.015-0.704-0.135-0.937-0.408c-0.231-0.269-0.355-0.614-0.349-0.968
					c-0.006-0.358,0.118-0.706,0.349-0.98c0.228-0.279,0.573-0.435,0.933-0.421c0.362-0.012,0.712,0.137,0.956,0.406
					c0.246,0.272,0.378,0.628,0.369,0.995C115.804,32.13,115.672,32.482,115.426,32.75z"/>
				<path id="Shape_24_" fill="#FFFFFF" d="M117.754,29.664v4.56h0.965v-1.955c0-0.52,0.121-0.934,0.361-1.244
					c0.242-0.309,0.6-0.463,1.074-0.461h0.052l-0.008-0.97c-0.305,0.008-0.6,0.106-0.848,0.283c-0.264,0.181-0.48,0.422-0.632,0.704
					v-0.917H117.754z"/>
				<path id="Shape_25_" fill="#FFFFFF" d="M121.238,30.277c-0.92,0.921-0.92,2.414,0,3.335c0.967,0.909,2.473,0.909,3.438,0
					c0.921-0.921,0.921-2.414,0-3.335C123.711,29.369,122.205,29.369,121.238,30.277L121.238,30.277z M124.403,31.945
					c0.016,0.399-0.132,0.788-0.409,1.076c-0.578,0.555-1.491,0.555-2.07,0c-0.545-0.613-0.545-1.538,0-2.151
					c0.579-0.555,1.492-0.555,2.07,0c0.277,0.288,0.424,0.676,0.409,1.074V31.945z"/>
				<polygon id="Shape_26_" fill="#FFFFFF" points="128.197,34.225 129.281,31.105 130.363,34.225 131.465,34.225 133.047,29.664 
					132.049,29.664 130.916,33.11 129.779,29.664 128.782,29.664 127.648,33.11 126.514,29.664 125.516,29.664 127.098,34.225 				
					"/>
				<path id="Shape_27_" fill="#FFFFFF" d="M82.494,7.265c-1.859-1.81-4.157-2.715-6.894-2.715s-5.035,0.905-6.893,2.715
					c-1.86,1.809-2.79,4.065-2.79,6.768c0,2.703,0.93,4.959,2.79,6.768c1.858,1.81,4.156,2.715,6.893,2.715s5.035-0.905,6.894-2.715
					s2.789-4.066,2.789-6.768C85.283,11.331,84.354,9.075,82.494,7.265z M80.219,18.741c-1.255,1.294-2.795,1.942-4.618,1.942
					c-1.823,0-3.363-0.647-4.618-1.942c-1.253-1.295-1.88-2.864-1.881-4.708c-0.001-1.844,0.626-3.414,1.881-4.709
					c1.254-1.295,2.793-1.942,4.618-1.942c1.825,0,3.364,0.647,4.618,1.942c1.253,1.291,1.88,2.861,1.88,4.709
					C82.1,15.881,81.473,17.45,80.219,18.741L80.219,18.741z"/>
				<path id="Shape_28_" fill="#FFFFFF" d="M150.299,13.585c-0.098-2.504-1.024-4.611-2.779-6.321
					c-1.859-1.81-4.157-2.715-6.895-2.715c-2.736,0-5.034,0.905-6.893,2.715c-1.859,1.809-2.789,4.065-2.789,6.768
					c0,2.703,0.93,4.959,2.789,6.768c1.858,1.81,4.156,2.715,6.893,2.715c2.737,0,5.035-0.905,6.895-2.715
					c1.756-1.708,2.682-3.815,2.779-6.321V13.585z M145.243,18.741c-1.255,1.294-2.794,1.942-4.618,1.942
					c-1.822,0-3.361-0.647-4.617-1.942c-1.254-1.295-1.881-2.864-1.882-4.708c-0.001-1.844,0.626-3.414,1.882-4.709
					c1.254-1.295,2.793-1.942,4.617-1.942c1.825,0,3.365,0.647,4.618,1.942c1.253,1.294,1.88,2.864,1.88,4.709
					C147.123,15.877,146.496,17.447,145.243,18.741z"/>
				<path id="Shape_29_" fill="#FFFFFF" d="M102.695,23.34c0,0.145,0.117,0.262,0.262,0.262h2.628c0.146,0,0.263-0.118,0.263-0.262
					V12.518c-0.004-2.107-0.846-4.127-2.339-5.615c-1.493-1.487-3.517-2.32-5.625-2.314h-0.509c-4.387-0.006-7.947,3.544-7.953,7.93
					v10.822c0,0.145,0.117,0.262,0.262,0.262h2.621c0.145,0,0.262-0.118,0.262-0.262V12.518c0.002-1.273,0.51-2.494,1.412-3.394
					c0.901-0.899,2.123-1.404,3.396-1.402h0.509c1.274-0.002,2.497,0.502,3.399,1.402c0.901,0.899,1.41,2.12,1.411,3.394
					L102.695,23.34z"/>
				<path id="Shape_30_" fill="#FFFFFF" d="M127.158,21.001v-6.596c0-0.115-0.094-0.208-0.209-0.208h-6.468
					c-0.114,0-0.208,0.092-0.208,0.207v2.333c0,0.114,0.094,0.207,0.208,0.207h3.702c0.114,0,0.207,0.093,0.207,0.208v2.141
					c0.001,0.076-0.039,0.146-0.104,0.184c-1.32,0.765-2.857,1.223-4.217,1.223c-3.838,0-6.872-2.917-6.872-6.663
					c0-3.72,3.006-6.637,6.845-6.637c1.935,0.022,3.798,0.729,5.26,1.994c0.043,0.038,0.099,0.056,0.154,0.051
					c0.057-0.005,0.107-0.034,0.143-0.078l1.541-1.995c0.069-0.089,0.057-0.218-0.03-0.291c-1.845-1.53-4.455-2.489-7.067-2.489
					c-5.69,0-10.064,4.095-10.064,9.447c0,5.353,4.324,9.5,9.877,9.5c2.539,0,5.312-0.961,7.217-2.372
					C127.125,21.127,127.156,21.066,127.158,21.001L127.158,21.001z"/>
				<path id="Shape_31_" fill="#FFFFFF" d="M47.891,5.337c0.004,0.015,0.01,0.029,0.017,0.042l6.734,11.516
					c0.017,0.03,0.025,0.064,0.025,0.099v6.396c0,0.114,0.092,0.206,0.206,0.206h2.663c0.114,0,0.206-0.092,0.206-0.206v-6.395
					c0-0.035,0.009-0.069,0.026-0.1l6.731-11.517c0.036-0.064,0.034-0.142-0.003-0.204c-0.037-0.063-0.105-0.102-0.178-0.101h-2.977
					c-0.073,0-0.141,0.039-0.178,0.102l-4.78,8.116c-0.037,0.063-0.105,0.102-0.178,0.102s-0.141-0.039-0.178-0.102l-4.782-8.116
					c-0.037-0.063-0.104-0.102-0.178-0.102H48.09c-0.09,0-0.17,0.059-0.197,0.146L47.891,5.337z"/>
				<path id="Shape_32_" fill="none" d="M121.923,30.868c-0.546,0.614-0.546,1.538,0,2.152c0.579,0.554,1.491,0.554,2.07,0
					c0.545-0.614,0.545-1.538,0-2.152C123.414,30.313,122.502,30.313,121.923,30.868L121.923,30.868z"/>
				<path id="Shape_33_" fill="none" d="M105.091,30.494c-0.382,0.001-0.75,0.141-1.036,0.394c-0.317,0.274-0.49,0.679-0.468,1.098
					c-0.001,0.055,0.001,0.109,0.008,0.163l2.544-1.087C105.941,30.683,105.592,30.494,105.091,30.494z"/>
				<path id="Shape_34_" fill="none" d="M66.836,30.479c-0.382,0.001-0.75,0.141-1.037,0.393c-0.317,0.274-0.49,0.679-0.468,1.097
					c-0.001,0.054,0.001,0.108,0.008,0.162l2.537-1.085C67.681,30.667,67.334,30.478,66.836,30.479z"/>
				<path id="Shape_35_" fill="none" d="M75.602,7.382c-1.824,0-3.363,0.647-4.618,1.942c-1.254,1.295-1.881,2.865-1.881,4.709
					c0,1.845,0.627,3.415,1.881,4.708c1.255,1.294,2.794,1.941,4.618,1.942c1.825,0,3.364-0.647,4.618-1.942
					c1.253-1.294,1.88-2.864,1.88-4.708c0-1.845-0.627-3.415-1.88-4.709C78.965,8.03,77.426,7.382,75.602,7.382z"/>
				<path id="Shape_36_" fill="none" d="M72.863,30.873c-0.243-0.282-0.599-0.442-0.971-0.437c-0.377-0.003-0.738,0.155-0.989,0.437
					c-0.273,0.296-0.418,0.688-0.405,1.09c-0.015,0.399,0.138,0.786,0.422,1.066c0.26,0.266,0.617,0.414,0.988,0.412
					c0.366,0.006,0.716-0.146,0.963-0.416c0.268-0.29,0.409-0.674,0.393-1.068C73.274,31.559,73.13,31.17,72.863,30.873
					L72.863,30.873z"/>
				<path id="Shape_37_" fill="none" d="M95.802,30.873c-0.243-0.282-0.599-0.441-0.971-0.437c-0.377-0.003-0.737,0.156-0.988,0.437
					c-0.276,0.294-0.425,0.687-0.414,1.09c-0.015,0.399,0.138,0.786,0.422,1.066c0.261,0.266,0.616,0.414,0.988,0.412
					c0.366,0.006,0.716-0.146,0.963-0.416c0.268-0.29,0.409-0.674,0.394-1.068C96.207,31.56,96.066,31.171,95.802,30.873
					L95.802,30.873z"/>
				<path id="Shape_38_" fill="none" d="M115.422,30.773c-0.243-0.27-0.593-0.418-0.955-0.406c-0.359-0.014-0.705,0.142-0.934,0.421
					c-0.23,0.274-0.354,0.622-0.348,0.98c-0.008,0.354,0.117,0.699,0.348,0.968c0.233,0.272,0.579,0.423,0.938,0.408
					c0.359,0.013,0.708-0.13,0.953-0.393c0.246-0.267,0.377-0.619,0.366-0.981C115.8,31.402,115.668,31.046,115.422,30.773
					L115.422,30.773z"/>
				<path id="Shape_39_" fill="none" d="M140.625,7.382c-1.824,0-3.363,0.647-4.617,1.942c-1.254,1.295-1.882,2.865-1.882,4.709
					c0,1.845,0.628,3.415,1.882,4.708c1.254,1.294,2.793,1.941,4.617,1.942c1.825,0,3.365-0.647,4.618-1.942
					c1.253-1.294,1.88-2.864,1.88-4.708c0-1.845-0.627-3.415-1.88-4.709C143.99,8.03,142.45,7.382,140.625,7.382z"/>
				<path id="Shape_40_" fill="#FFFFFF" d="M61.941,28.232v4.604c0,0.48,0.125,0.843,0.375,1.089
					c0.268,0.252,0.626,0.385,0.993,0.368c0.364,0.021,0.718-0.124,0.963-0.393l-0.422-0.704c-0.093,0.144-0.258,0.224-0.429,0.208
					c-0.349,0-0.524-0.227-0.524-0.682v-4.491H61.941z"/>
				<path id="Shape_41_" fill="#FFFFFF" d="M68.967,31.464c0.009-0.522-0.222-1.02-0.627-1.35c-0.438-0.357-0.992-0.543-1.557-0.524
					c-0.391-0.001-0.776,0.089-1.125,0.262c-0.367,0.184-0.676,0.465-0.894,0.813c-0.245,0.381-0.371,0.827-0.361,1.28
					c0,0.699,0.232,1.267,0.696,1.703c0.451,0.424,1.049,0.655,1.668,0.644c0.731,0.004,1.431-0.301,1.926-0.84l-0.567-0.625
					c-0.305,0.388-0.775,0.61-1.269,0.6c-0.469,0.02-0.92-0.184-1.216-0.549l3.334-1.396L68.967,31.464z M65.34,32.132
					c-0.006-0.054-0.009-0.108-0.008-0.163c-0.022-0.418,0.151-0.823,0.468-1.097c0.286-0.252,0.655-0.392,1.037-0.393
					c0.498,0,0.844,0.188,1.039,0.565L65.34,32.132z"/>
				<path id="Shape_42_" fill="#FFFFFF" d="M74.205,34.224v-4.56h-0.963v0.786c-0.39-0.57-0.887-0.856-1.488-0.857
					c-0.585-0.007-1.149,0.222-1.565,0.634c-0.442,0.423-0.663,0.991-0.663,1.704s0.215,1.284,0.645,1.714
					c0.391,0.419,0.94,0.657,1.514,0.655c0.297-0.003,0.59-0.074,0.855-0.21c0.281-0.138,0.523-0.346,0.701-0.604v0.746
					L74.205,34.224z M72.863,33.028c-0.247,0.27-0.598,0.421-0.963,0.416c-0.372,0.002-0.728-0.146-0.988-0.412
					c-0.282-0.282-0.432-0.67-0.414-1.069c-0.012-0.405,0.136-0.797,0.413-1.093c0.251-0.281,0.612-0.44,0.989-0.437
					c0.373-0.005,0.728,0.154,0.971,0.437c0.266,0.299,0.406,0.689,0.393,1.089C73.278,32.355,73.133,32.74,72.863,33.028z"/>
				<path id="Shape_43_" fill="#FFFFFF" d="M75.204,29.664v4.56h0.963v-1.955c0-0.52,0.121-0.934,0.362-1.244
					c0.241-0.309,0.599-0.463,1.074-0.461h0.052l-0.009-0.97c-0.304,0.008-0.599,0.106-0.847,0.283
					c-0.264,0.181-0.481,0.422-0.633,0.704v-0.917H75.204z"/>
				<path id="Shape_44_" fill="#FFFFFF" d="M82.656,34.224V31.43c0-0.594-0.158-1.048-0.477-1.362
					c-0.398-0.376-0.949-0.547-1.49-0.463c-0.542,0.083-1.015,0.413-1.282,0.892v-0.832h-0.963v4.56h0.963v-2.469
					c0-0.423,0.124-0.744,0.37-0.964c0.237-0.217,0.547-0.335,0.867-0.33c0.699,0,1.049,0.419,1.049,1.259v2.502L82.656,34.224z"/>
				<path id="Shape_45_" fill="#FFFFFF" d="M90.717,33.311c-0.15,0.107-0.332,0.161-0.517,0.15c-0.498,0-1.014-0.2-1.546-0.6
					l-0.467,0.746c0.285,0.223,0.606,0.394,0.949,0.506c0.334,0.116,0.684,0.177,1.035,0.181c0.438,0.018,0.869-0.122,1.213-0.393
					c0.312-0.253,0.487-0.639,0.473-1.041c0-0.437-0.154-0.757-0.463-0.96c-0.139-0.092-0.283-0.172-0.435-0.24
					c-0.131-0.056-0.274-0.107-0.417-0.153c-0.141-0.046-0.308-0.092-0.494-0.131c-0.149-0.033-0.295-0.082-0.435-0.146
					c-0.136-0.05-0.226-0.18-0.223-0.325c-0.007-0.155,0.077-0.301,0.215-0.373c0.172-0.09,0.364-0.133,0.558-0.125
					c0.433-0.001,0.854,0.127,1.213,0.368l0.361-0.711c-0.441-0.299-0.962-0.46-1.495-0.463c-0.459-0.021-0.912,0.113-1.285,0.381
					c-0.321,0.237-0.506,0.617-0.494,1.016c0,0.599,0.476,1.028,1.427,1.286c0.035,0.009,0.07,0.02,0.104,0.033
					c0.607,0.183,0.913,0.389,0.918,0.618C90.91,33.083,90.838,33.224,90.717,33.311z"/>
				<path id="Shape_46_" fill="#FFFFFF" d="M97.144,34.224v-4.56h-0.963v0.786c-0.391-0.57-0.887-0.856-1.489-0.857
					c-0.585-0.007-1.148,0.222-1.564,0.634c-0.441,0.423-0.662,0.991-0.662,1.704s0.215,1.284,0.645,1.714
					c0.391,0.419,0.939,0.657,1.514,0.655c0.297-0.003,0.59-0.074,0.855-0.21c0.281-0.138,0.522-0.346,0.701-0.604v0.746
					L97.144,34.224z M95.802,33.028c-0.247,0.27-0.597,0.421-0.963,0.416c-0.372,0.002-0.728-0.146-0.988-0.412
					c-0.284-0.281-0.438-0.669-0.422-1.069c-0.013-0.405,0.136-0.797,0.413-1.093c0.251-0.281,0.611-0.44,0.988-0.437
					c0.371-0.005,0.727,0.154,0.971,0.437c0.266,0.299,0.406,0.689,0.393,1.089C96.21,32.354,96.069,32.738,95.802,33.028z"/>
				<polygon id="Shape_47_" fill="#FFFFFF" points="98.772,29.664 97.775,29.664 99.613,34.225 100.715,34.225 102.555,29.664 
					101.557,29.664 100.164,33.11 				"/>
				<path id="Shape_48_" fill="#FFFFFF" d="M107.229,31.479c0.008-0.522-0.223-1.02-0.628-1.35
					c-0.438-0.356-0.991-0.543-1.556-0.524c-0.391,0-0.775,0.089-1.125,0.262c-0.367,0.184-0.676,0.466-0.895,0.813
					c-0.244,0.382-0.369,0.827-0.361,1.28c0,0.699,0.232,1.267,0.697,1.704c0.451,0.423,1.049,0.654,1.668,0.643
					c0.732,0.004,1.432-0.301,1.926-0.84l-0.566-0.625c-0.305,0.388-0.774,0.61-1.268,0.6c-0.469,0.02-0.92-0.184-1.216-0.549
					l3.335-1.397L107.229,31.479z M103.6,32.148c-0.006-0.054-0.009-0.108-0.008-0.163c-0.021-0.418,0.15-0.824,0.468-1.098
					c0.286-0.253,0.655-0.393,1.036-0.394c0.498,0,0.845,0.189,1.039,0.566L103.6,32.148z"/>
				<path id="Shape_49_" fill="#FFFFFF" d="M116.131,35.407c0.416-0.423,0.623-1.031,0.623-1.825v-3.918h-0.963v0.549
					c-0.387-0.407-0.929-0.632-1.49-0.619c-0.562-0.015-1.103,0.217-1.479,0.635c-0.779,0.907-0.779,2.247,0,3.154
					c0.382,0.42,0.929,0.652,1.496,0.634c0.304,0.001,0.604-0.07,0.873-0.21c0.241-0.113,0.447-0.289,0.598-0.51v0.262
					c0,1.091-0.424,1.637-1.272,1.637c-0.646,0-1.083-0.3-1.311-0.899l-0.843,0.359c0.156,0.425,0.447,0.787,0.83,1.029
					c0.397,0.245,0.857,0.37,1.324,0.36h0.008C115.127,36.065,115.708,35.834,116.131,35.407z M115.426,32.75
					c-0.246,0.263-0.594,0.407-0.954,0.393c-0.358,0.015-0.704-0.135-0.937-0.408c-0.231-0.269-0.355-0.614-0.349-0.968
					c-0.006-0.358,0.118-0.706,0.349-0.98c0.228-0.279,0.573-0.435,0.933-0.421c0.362-0.012,0.712,0.137,0.956,0.406
					c0.246,0.272,0.378,0.628,0.369,0.995C115.804,32.13,115.672,32.482,115.426,32.75z"/>
				<path id="Shape_50_" fill="#FFFFFF" d="M117.754,29.664v4.56h0.965v-1.955c0-0.52,0.121-0.934,0.361-1.244
					c0.242-0.309,0.6-0.463,1.074-0.461h0.052l-0.008-0.97c-0.305,0.008-0.6,0.106-0.848,0.283c-0.264,0.181-0.48,0.422-0.632,0.704
					v-0.917H117.754z"/>
				<path id="Shape_51_" fill="#FFFFFF" d="M121.238,30.277c-0.92,0.921-0.92,2.414,0,3.335c0.967,0.909,2.473,0.909,3.438,0
					c0.921-0.921,0.921-2.414,0-3.335C123.711,29.369,122.205,29.369,121.238,30.277L121.238,30.277z M124.403,31.945
					c0.016,0.399-0.132,0.788-0.409,1.076c-0.578,0.555-1.491,0.555-2.07,0c-0.545-0.613-0.545-1.538,0-2.151
					c0.579-0.555,1.492-0.555,2.07,0c0.277,0.288,0.424,0.676,0.409,1.074V31.945z"/>
				<polygon id="Shape_52_" fill="#FFFFFF" points="128.197,34.225 129.281,31.105 130.363,34.225 131.465,34.225 133.047,29.664 
					132.049,29.664 130.916,33.11 129.779,29.664 128.782,29.664 127.648,33.11 126.514,29.664 125.516,29.664 127.098,34.225 				
					"/>
				<path id="Shape_53_" fill="#FFFFFF" d="M82.494,7.265c-1.859-1.81-4.157-2.715-6.894-2.715s-5.035,0.905-6.893,2.715
					c-1.86,1.809-2.79,4.065-2.79,6.768c0,2.703,0.93,4.959,2.79,6.768c1.858,1.81,4.156,2.715,6.893,2.715s5.035-0.905,6.894-2.715
					s2.789-4.066,2.789-6.768C85.283,11.331,84.354,9.075,82.494,7.265z M80.219,18.741c-1.255,1.294-2.795,1.942-4.618,1.942
					c-1.823,0-3.363-0.647-4.618-1.942c-1.253-1.295-1.88-2.864-1.881-4.708c-0.001-1.844,0.626-3.414,1.881-4.709
					c1.254-1.295,2.793-1.942,4.618-1.942c1.825,0,3.364,0.647,4.618,1.942c1.253,1.291,1.88,2.861,1.88,4.709
					C82.1,15.881,81.473,17.45,80.219,18.741L80.219,18.741z"/>
				<path id="Shape_54_" fill="#FFFFFF" d="M150.299,13.585c-0.098-2.504-1.024-4.611-2.779-6.321
					c-1.859-1.81-4.157-2.715-6.895-2.715c-2.736,0-5.034,0.905-6.893,2.715c-1.859,1.809-2.789,4.065-2.789,6.768
					c0,2.703,0.93,4.959,2.789,6.768c1.858,1.81,4.156,2.715,6.893,2.715c2.737,0,5.035-0.905,6.895-2.715
					c1.756-1.708,2.682-3.815,2.779-6.321V13.585z M145.243,18.741c-1.255,1.294-2.794,1.942-4.618,1.942
					c-1.822,0-3.361-0.647-4.617-1.942c-1.254-1.295-1.881-2.864-1.882-4.708c-0.001-1.844,0.626-3.414,1.882-4.709
					c1.254-1.295,2.793-1.942,4.617-1.942c1.825,0,3.365,0.647,4.618,1.942c1.253,1.294,1.88,2.864,1.88,4.709
					C147.123,15.877,146.496,17.447,145.243,18.741z"/>
				<path id="Shape_55_" fill="#FFFFFF" d="M102.695,23.34c0,0.145,0.117,0.262,0.262,0.262h2.628c0.146,0,0.263-0.118,0.263-0.262
					V12.518c-0.004-2.107-0.846-4.127-2.339-5.615c-1.493-1.487-3.517-2.32-5.625-2.314h-0.509c-4.387-0.006-7.947,3.544-7.953,7.93
					v10.822c0,0.145,0.117,0.262,0.262,0.262h2.621c0.145,0,0.262-0.118,0.262-0.262V12.518c0.002-1.273,0.51-2.494,1.412-3.394
					c0.901-0.899,2.123-1.404,3.396-1.402h0.509c1.274-0.002,2.497,0.502,3.399,1.402c0.901,0.899,1.41,2.12,1.411,3.394
					L102.695,23.34z"/>
				<path id="Shape_56_" fill="#FFFFFF" d="M127.158,21.001v-6.596c0-0.115-0.094-0.208-0.209-0.208h-6.468
					c-0.114,0-0.208,0.092-0.208,0.207v2.333c0,0.114,0.094,0.207,0.208,0.207h3.702c0.114,0,0.207,0.093,0.207,0.208v2.141
					c0.001,0.076-0.039,0.146-0.104,0.184c-1.32,0.765-2.857,1.223-4.217,1.223c-3.838,0-6.872-2.917-6.872-6.663
					c0-3.72,3.006-6.637,6.845-6.637c1.935,0.022,3.798,0.729,5.26,1.994c0.043,0.038,0.099,0.056,0.154,0.051
					c0.057-0.005,0.107-0.034,0.143-0.078l1.541-1.995c0.069-0.089,0.057-0.218-0.03-0.291c-1.845-1.53-4.455-2.489-7.067-2.489
					c-5.69,0-10.064,4.095-10.064,9.447c0,5.353,4.324,9.5,9.877,9.5c2.539,0,5.312-0.961,7.217-2.372
					C127.125,21.127,127.156,21.066,127.158,21.001L127.158,21.001z"/>
				<path id="Shape_57_" fill="#FFFFFF" d="M47.891,5.337c0.004,0.015,0.01,0.029,0.017,0.042l6.734,11.516
					c0.017,0.03,0.025,0.064,0.025,0.099v6.396c0,0.114,0.092,0.206,0.206,0.206h2.663c0.114,0,0.206-0.092,0.206-0.206v-6.395
					c0-0.035,0.009-0.069,0.026-0.1l6.731-11.517c0.036-0.064,0.034-0.142-0.003-0.204c-0.037-0.063-0.105-0.102-0.178-0.101h-2.977
					c-0.073,0-0.141,0.039-0.178,0.102l-4.78,8.116c-0.037,0.063-0.105,0.102-0.178,0.102s-0.141-0.039-0.178-0.102l-4.782-8.116
					c-0.037-0.063-0.104-0.102-0.178-0.102H48.09c-0.09,0-0.17,0.059-0.197,0.146L47.891,5.337z"/>
				<path id="Shape_58_" fill="#FFFFFF" d="M35.994,13.334c-1.538,0-2.86,0.739-3.315,0.98l-9.931,5.765v11.255
					c0.014,1.241,0.137,2.463,0.786,3.595c1.339,2.32,4.034,3.496,6.646,2.899c2.611-0.597,4.528-2.828,4.726-5.499l0.028-5.227
					c0.1-0.058,4.265-2.47,4.511-2.639l0,0c2.202-1.514,3.163-4.286,2.37-6.838c-0.793-2.553-3.155-4.292-5.828-4.292H35.994z"/>
				<path id="Shape_59_" fill="#FFFFFF" d="M6.233,13.334c-2.673,0-5.034,1.739-5.827,4.292c-0.793,2.552,0.167,5.324,2.369,6.838
					l0,0c0.246,0.169,4.412,2.582,4.512,2.639l0.027,5.227c0.198,2.671,2.114,4.902,4.726,5.499
					c2.611,0.597,5.307-0.579,6.646-2.899c0.655-1.132,0.777-2.358,0.787-3.595V20.079l-9.932-5.766
					C9.095,14.073,7.772,13.334,6.233,13.334z"/>
				<path id="Shape_60_" fill="#FFFFFF" d="M33.581,9.136c1.328-2.319,0.992-5.231-0.828-7.188c-1.82-1.956-4.701-2.501-7.109-1.345
					l0,0c-0.27,0.131-4.433,2.545-4.532,2.603L16.563,0.63c-2.417-1.16-5.307-0.608-7.125,1.361s-2.139,4.895-0.79,7.211
					c0.655,1.129,1.656,1.844,2.726,2.474l9.765,5.598l9.944-5.752C31.517,11.25,32.817,10.474,33.581,9.136z"/>
				<path id="Shape_61_" fill="none" d="M121.923,30.868c-0.546,0.614-0.546,1.538,0,2.152c0.579,0.554,1.491,0.554,2.07,0
					c0.545-0.614,0.545-1.538,0-2.152C123.414,30.313,122.502,30.313,121.923,30.868L121.923,30.868z"/>
				<path id="Shape_62_" fill="none" d="M105.091,30.494c-0.382,0.001-0.75,0.141-1.036,0.394c-0.317,0.274-0.49,0.679-0.468,1.098
					c-0.001,0.055,0.001,0.109,0.008,0.163l2.544-1.087C105.941,30.683,105.592,30.494,105.091,30.494z"/>
				<path id="Shape_63_" fill="none" d="M66.836,30.479c-0.382,0.001-0.75,0.141-1.037,0.393c-0.317,0.274-0.49,0.679-0.468,1.097
					c-0.001,0.054,0.001,0.108,0.008,0.162l2.537-1.085C67.681,30.667,67.334,30.478,66.836,30.479z"/>
				<path id="Shape_64_" fill="none" d="M75.602,7.382c-1.824,0-3.363,0.647-4.618,1.942c-1.254,1.295-1.881,2.865-1.881,4.709
					c0,1.845,0.627,3.415,1.881,4.708c1.255,1.294,2.794,1.941,4.618,1.942c1.825,0,3.364-0.647,4.618-1.942
					c1.253-1.294,1.88-2.864,1.88-4.708c0-1.845-0.627-3.415-1.88-4.709C78.965,8.03,77.426,7.382,75.602,7.382z"/>
				<path id="Shape_65_" fill="none" d="M72.863,30.873c-0.243-0.282-0.599-0.442-0.971-0.437c-0.377-0.003-0.738,0.155-0.989,0.437
					c-0.273,0.296-0.418,0.688-0.405,1.09c-0.015,0.399,0.138,0.786,0.422,1.066c0.26,0.266,0.617,0.414,0.988,0.412
					c0.366,0.006,0.716-0.146,0.963-0.416c0.268-0.29,0.409-0.674,0.393-1.068C73.274,31.559,73.13,31.17,72.863,30.873
					L72.863,30.873z"/>
				<path id="Shape_66_" fill="none" d="M95.802,30.873c-0.243-0.282-0.599-0.441-0.971-0.437c-0.377-0.003-0.737,0.156-0.988,0.437
					c-0.276,0.294-0.425,0.687-0.414,1.09c-0.015,0.399,0.138,0.786,0.422,1.066c0.261,0.266,0.616,0.414,0.988,0.412
					c0.366,0.006,0.716-0.146,0.963-0.416c0.268-0.29,0.409-0.674,0.394-1.068C96.207,31.56,96.066,31.171,95.802,30.873
					L95.802,30.873z"/>
				<path id="Shape_67_" fill="none" d="M115.422,30.773c-0.243-0.27-0.593-0.418-0.955-0.406c-0.359-0.014-0.705,0.142-0.934,0.421
					c-0.23,0.274-0.354,0.622-0.348,0.98c-0.008,0.354,0.117,0.699,0.348,0.968c0.233,0.272,0.579,0.423,0.938,0.408
					c0.359,0.013,0.708-0.13,0.953-0.393c0.246-0.267,0.377-0.619,0.366-0.981C115.8,31.402,115.668,31.046,115.422,30.773
					L115.422,30.773z"/>
				<path id="Shape_68_" fill="none" d="M140.625,7.382c-1.824,0-3.363,0.647-4.617,1.942c-1.254,1.295-1.882,2.865-1.882,4.709
					c0,1.845,0.628,3.415,1.882,4.708c1.254,1.294,2.793,1.941,4.617,1.942c1.825,0,3.365-0.647,4.618-1.942
					c1.253-1.294,1.88-2.864,1.88-4.708c0-1.845-0.627-3.415-1.88-4.709C143.99,8.03,142.45,7.382,140.625,7.382z"/>
				<path id="Shape_69_" fill="#FFFFFF" d="M61.941,28.232v4.604c0,0.48,0.125,0.843,0.375,1.089
					c0.268,0.252,0.626,0.385,0.993,0.368c0.364,0.021,0.718-0.124,0.963-0.393l-0.422-0.704c-0.093,0.144-0.258,0.224-0.429,0.208
					c-0.349,0-0.524-0.227-0.524-0.682v-4.491H61.941z"/>
				<path id="Shape_70_" fill="#FFFFFF" d="M68.967,31.464c0.009-0.522-0.222-1.02-0.627-1.35c-0.438-0.357-0.992-0.543-1.557-0.524
					c-0.391-0.001-0.776,0.089-1.125,0.262c-0.367,0.184-0.676,0.465-0.894,0.813c-0.245,0.381-0.371,0.827-0.361,1.28
					c0,0.699,0.232,1.267,0.696,1.703c0.451,0.424,1.049,0.655,1.668,0.644c0.731,0.004,1.431-0.301,1.926-0.84l-0.567-0.625
					c-0.305,0.388-0.775,0.61-1.269,0.6c-0.469,0.02-0.92-0.184-1.216-0.549l3.334-1.396L68.967,31.464z M65.34,32.132
					c-0.006-0.054-0.009-0.108-0.008-0.163c-0.022-0.418,0.151-0.823,0.468-1.097c0.286-0.252,0.655-0.392,1.037-0.393
					c0.498,0,0.844,0.188,1.039,0.565L65.34,32.132z"/>
				<path id="Shape_71_" fill="#FFFFFF" d="M74.205,34.224v-4.56h-0.963v0.786c-0.39-0.57-0.887-0.856-1.488-0.857
					c-0.585-0.007-1.149,0.222-1.565,0.634c-0.442,0.423-0.663,0.991-0.663,1.704s0.215,1.284,0.645,1.714
					c0.391,0.419,0.94,0.657,1.514,0.655c0.297-0.003,0.59-0.074,0.855-0.21c0.281-0.138,0.523-0.346,0.701-0.604v0.746
					L74.205,34.224z M72.863,33.028c-0.247,0.27-0.598,0.421-0.963,0.416c-0.372,0.002-0.728-0.146-0.988-0.412
					c-0.282-0.282-0.432-0.67-0.414-1.069c-0.012-0.405,0.136-0.797,0.413-1.093c0.251-0.281,0.612-0.44,0.989-0.437
					c0.373-0.005,0.728,0.154,0.971,0.437c0.266,0.299,0.406,0.689,0.393,1.089C73.278,32.355,73.133,32.74,72.863,33.028z"/>
				<path id="Shape_72_" fill="#FFFFFF" d="M75.204,29.664v4.56h0.963v-1.955c0-0.52,0.121-0.934,0.362-1.244
					c0.241-0.309,0.599-0.463,1.074-0.461h0.052l-0.009-0.97c-0.304,0.008-0.599,0.106-0.847,0.283
					c-0.264,0.181-0.481,0.422-0.633,0.704v-0.917H75.204z"/>
				<path id="Shape_73_" fill="#FFFFFF" d="M82.656,34.224V31.43c0-0.594-0.158-1.048-0.477-1.362
					c-0.398-0.376-0.949-0.547-1.49-0.463c-0.542,0.083-1.015,0.413-1.282,0.892v-0.832h-0.963v4.56h0.963v-2.469
					c0-0.423,0.124-0.744,0.37-0.964c0.237-0.217,0.547-0.335,0.867-0.33c0.699,0,1.049,0.419,1.049,1.259v2.502L82.656,34.224z"/>
				<path id="Shape_74_" fill="#FFFFFF" d="M90.717,33.311c-0.15,0.107-0.332,0.161-0.517,0.15c-0.498,0-1.014-0.2-1.546-0.6
					l-0.467,0.746c0.285,0.223,0.606,0.394,0.949,0.506c0.334,0.116,0.684,0.177,1.035,0.181c0.438,0.018,0.869-0.122,1.213-0.393
					c0.312-0.253,0.487-0.639,0.473-1.041c0-0.437-0.154-0.757-0.463-0.96c-0.139-0.092-0.283-0.172-0.435-0.24
					c-0.131-0.056-0.274-0.107-0.417-0.153c-0.141-0.046-0.308-0.092-0.494-0.131c-0.149-0.033-0.295-0.082-0.435-0.146
					c-0.136-0.05-0.226-0.18-0.223-0.325c-0.007-0.155,0.077-0.301,0.215-0.373c0.172-0.09,0.364-0.133,0.558-0.125
					c0.433-0.001,0.854,0.127,1.213,0.368l0.361-0.711c-0.441-0.299-0.962-0.46-1.495-0.463c-0.459-0.021-0.912,0.113-1.285,0.381
					c-0.321,0.237-0.506,0.617-0.494,1.016c0,0.599,0.476,1.028,1.427,1.286c0.035,0.009,0.07,0.02,0.104,0.033
					c0.607,0.183,0.913,0.389,0.918,0.618C90.91,33.083,90.838,33.224,90.717,33.311z"/>
				<path id="Shape_75_" fill="#FFFFFF" d="M97.144,34.224v-4.56h-0.963v0.786c-0.391-0.57-0.887-0.856-1.489-0.857
					c-0.585-0.007-1.148,0.222-1.564,0.634c-0.441,0.423-0.662,0.991-0.662,1.704s0.215,1.284,0.645,1.714
					c0.391,0.419,0.939,0.657,1.514,0.655c0.297-0.003,0.59-0.074,0.855-0.21c0.281-0.138,0.522-0.346,0.701-0.604v0.746
					L97.144,34.224z M95.802,33.028c-0.247,0.27-0.597,0.421-0.963,0.416c-0.372,0.002-0.728-0.146-0.988-0.412
					c-0.284-0.281-0.438-0.669-0.422-1.069c-0.013-0.405,0.136-0.797,0.413-1.093c0.251-0.281,0.611-0.44,0.988-0.437
					c0.371-0.005,0.727,0.154,0.971,0.437c0.266,0.299,0.406,0.689,0.393,1.089C96.21,32.354,96.069,32.738,95.802,33.028z"/>
				<polygon id="Shape_76_" fill="#FFFFFF" points="98.772,29.664 97.775,29.664 99.613,34.225 100.715,34.225 102.555,29.664 
					101.557,29.664 100.164,33.11 				"/>
				<path id="Shape_77_" fill="#FFFFFF" d="M107.229,31.479c0.008-0.522-0.223-1.02-0.628-1.35
					c-0.438-0.356-0.991-0.543-1.556-0.524c-0.391,0-0.775,0.089-1.125,0.262c-0.367,0.184-0.676,0.466-0.895,0.813
					c-0.244,0.382-0.369,0.827-0.361,1.28c0,0.699,0.232,1.267,0.697,1.704c0.451,0.423,1.049,0.654,1.668,0.643
					c0.732,0.004,1.432-0.301,1.926-0.84l-0.566-0.625c-0.305,0.388-0.774,0.61-1.268,0.6c-0.469,0.02-0.92-0.184-1.216-0.549
					l3.335-1.397L107.229,31.479z M103.6,32.148c-0.006-0.054-0.009-0.108-0.008-0.163c-0.021-0.418,0.15-0.824,0.468-1.098
					c0.286-0.253,0.655-0.393,1.036-0.394c0.498,0,0.845,0.189,1.039,0.566L103.6,32.148z"/>
				<path id="Shape_78_" fill="#FFFFFF" d="M116.131,35.407c0.416-0.423,0.623-1.031,0.623-1.825v-3.918h-0.963v0.549
					c-0.387-0.407-0.929-0.632-1.49-0.619c-0.562-0.015-1.103,0.217-1.479,0.635c-0.779,0.907-0.779,2.247,0,3.154
					c0.382,0.42,0.929,0.652,1.496,0.634c0.304,0.001,0.604-0.07,0.873-0.21c0.241-0.113,0.447-0.289,0.598-0.51v0.262
					c0,1.091-0.424,1.637-1.272,1.637c-0.646,0-1.083-0.3-1.311-0.899l-0.843,0.359c0.156,0.425,0.447,0.787,0.83,1.029
					c0.397,0.245,0.857,0.37,1.324,0.36h0.008C115.127,36.065,115.708,35.834,116.131,35.407z M115.426,32.75
					c-0.246,0.263-0.594,0.407-0.954,0.393c-0.358,0.015-0.704-0.135-0.937-0.408c-0.231-0.269-0.355-0.614-0.349-0.968
					c-0.006-0.358,0.118-0.706,0.349-0.98c0.228-0.279,0.573-0.435,0.933-0.421c0.362-0.012,0.712,0.137,0.956,0.406
					c0.246,0.272,0.378,0.628,0.369,0.995C115.804,32.13,115.672,32.482,115.426,32.75z"/>
				<path id="Shape_79_" fill="#FFFFFF" d="M117.754,29.664v4.56h0.965v-1.955c0-0.52,0.121-0.934,0.361-1.244
					c0.242-0.309,0.6-0.463,1.074-0.461h0.052l-0.008-0.97c-0.305,0.008-0.6,0.106-0.848,0.283c-0.264,0.181-0.48,0.422-0.632,0.704
					v-0.917H117.754z"/>
				<path id="Shape_80_" fill="#FFFFFF" d="M121.238,30.277c-0.92,0.921-0.92,2.414,0,3.335c0.967,0.909,2.473,0.909,3.438,0
					c0.921-0.921,0.921-2.414,0-3.335C123.711,29.369,122.205,29.369,121.238,30.277L121.238,30.277z M124.403,31.945
					c0.016,0.399-0.132,0.788-0.409,1.076c-0.578,0.555-1.491,0.555-2.07,0c-0.545-0.613-0.545-1.538,0-2.151
					c0.579-0.555,1.492-0.555,2.07,0c0.277,0.288,0.424,0.676,0.409,1.074V31.945z"/>
				<polygon id="Shape_81_" fill="#FFFFFF" points="128.197,34.225 129.281,31.105 130.363,34.225 131.465,34.225 133.047,29.664 
					132.049,29.664 130.916,33.11 129.779,29.664 128.782,29.664 127.648,33.11 126.514,29.664 125.516,29.664 127.098,34.225 				
					"/>
				<path id="Shape_82_" fill="#FFFFFF" d="M82.494,7.265c-1.859-1.81-4.157-2.715-6.894-2.715s-5.035,0.905-6.893,2.715
					c-1.86,1.809-2.79,4.065-2.79,6.768c0,2.703,0.93,4.959,2.79,6.768c1.858,1.81,4.156,2.715,6.893,2.715s5.035-0.905,6.894-2.715
					s2.789-4.066,2.789-6.768C85.283,11.331,84.354,9.075,82.494,7.265z M80.219,18.741c-1.255,1.294-2.795,1.942-4.618,1.942
					c-1.823,0-3.363-0.647-4.618-1.942c-1.253-1.295-1.88-2.864-1.881-4.708c-0.001-1.844,0.626-3.414,1.881-4.709
					c1.254-1.295,2.793-1.942,4.618-1.942c1.825,0,3.364,0.647,4.618,1.942c1.253,1.291,1.88,2.861,1.88,4.709
					C82.1,15.881,81.473,17.45,80.219,18.741L80.219,18.741z"/>
				<path id="Shape_83_" fill="#FFFFFF" d="M150.299,13.585c-0.098-2.504-1.024-4.611-2.779-6.321
					c-1.859-1.81-4.157-2.715-6.895-2.715c-2.736,0-5.034,0.905-6.893,2.715c-1.859,1.809-2.789,4.065-2.789,6.768
					c0,2.703,0.93,4.959,2.789,6.768c1.858,1.81,4.156,2.715,6.893,2.715c2.737,0,5.035-0.905,6.895-2.715
					c1.756-1.708,2.682-3.815,2.779-6.321V13.585z M145.243,18.741c-1.255,1.294-2.794,1.942-4.618,1.942
					c-1.822,0-3.361-0.647-4.617-1.942c-1.254-1.295-1.881-2.864-1.882-4.708c-0.001-1.844,0.626-3.414,1.882-4.709
					c1.254-1.295,2.793-1.942,4.617-1.942c1.825,0,3.365,0.647,4.618,1.942c1.253,1.294,1.88,2.864,1.88,4.709
					C147.123,15.877,146.496,17.447,145.243,18.741z"/>
				<path id="Shape_84_" fill="#FFFFFF" d="M102.695,23.34c0,0.145,0.117,0.262,0.262,0.262h2.628c0.146,0,0.263-0.118,0.263-0.262
					V12.518c-0.004-2.107-0.846-4.127-2.339-5.615c-1.493-1.487-3.517-2.32-5.625-2.314h-0.509c-4.387-0.006-7.947,3.544-7.953,7.93
					v10.822c0,0.145,0.117,0.262,0.262,0.262h2.621c0.145,0,0.262-0.118,0.262-0.262V12.518c0.002-1.273,0.51-2.494,1.412-3.394
					c0.901-0.899,2.123-1.404,3.396-1.402h0.509c1.274-0.002,2.497,0.502,3.399,1.402c0.901,0.899,1.41,2.12,1.411,3.394
					L102.695,23.34z"/>
				<path id="Shape_85_" fill="#FFFFFF" d="M127.158,21.001v-6.596c0-0.115-0.094-0.208-0.209-0.208h-6.468
					c-0.114,0-0.208,0.092-0.208,0.207v2.333c0,0.114,0.094,0.207,0.208,0.207h3.702c0.114,0,0.207,0.093,0.207,0.208v2.141
					c0.001,0.076-0.039,0.146-0.104,0.184c-1.32,0.765-2.857,1.223-4.217,1.223c-3.838,0-6.872-2.917-6.872-6.663
					c0-3.72,3.006-6.637,6.845-6.637c1.935,0.022,3.798,0.729,5.26,1.994c0.043,0.038,0.099,0.056,0.154,0.051
					c0.057-0.005,0.107-0.034,0.143-0.078l1.541-1.995c0.069-0.089,0.057-0.218-0.03-0.291c-1.845-1.53-4.455-2.489-7.067-2.489
					c-5.69,0-10.064,4.095-10.064,9.447c0,5.353,4.324,9.5,9.877,9.5c2.539,0,5.312-0.961,7.217-2.372
					C127.125,21.127,127.156,21.066,127.158,21.001L127.158,21.001z"/>
				<path id="Shape_86_" fill="#FFFFFF" d="M47.891,5.337c0.004,0.015,0.01,0.029,0.017,0.042l6.734,11.516
					c0.017,0.03,0.025,0.064,0.025,0.099v6.396c0,0.114,0.092,0.206,0.206,0.206h2.663c0.114,0,0.206-0.092,0.206-0.206v-6.395
					c0-0.035,0.009-0.069,0.026-0.1l6.731-11.517c0.036-0.064,0.034-0.142-0.003-0.204c-0.037-0.063-0.105-0.102-0.178-0.101h-2.977
					c-0.073,0-0.141,0.039-0.178,0.102l-4.78,8.116c-0.037,0.063-0.105,0.102-0.178,0.102s-0.141-0.039-0.178-0.102l-4.782-8.116
					c-0.037-0.063-0.104-0.102-0.178-0.102H48.09c-0.09,0-0.17,0.059-0.197,0.146L47.891,5.337z"/>
				<path id="Shape_87_" fill="#EE84B1" d="M34.93,27.107l-12.186-7.028l9.931-5.766c0.453-0.241,1.777-0.98,3.315-0.98
					c2.673,0,5.035,1.739,5.828,4.292s-0.167,5.324-2.37,6.838l0,0C39.202,24.634,34.93,27.107,34.93,27.107z"/>
				<path id="Shape_88_" fill="#DA6FA7" d="M22.748,20.079l12.186,7.013l-0.029,5.242c-0.197,2.671-2.114,4.901-4.726,5.499
					s-5.307-0.579-6.646-2.899c-0.655-1.132-0.777-2.359-0.786-3.596V20.079z"/>
				<path id="Shape_89_" fill="#0D979C" d="M7.296,27.107l12.187-7.028l-9.931-5.766c-0.454-0.241-1.777-0.98-3.315-0.98
					c-2.672,0-5.034,1.739-5.827,4.292s0.167,5.324,2.369,6.838l0,0C3.024,24.634,7.296,27.107,7.296,27.107z"/>
				<path id="Shape_90_" fill="#03ADB7" d="M19.479,20.079L7.292,27.091l0.029,5.242c0.198,2.671,2.114,4.901,4.726,5.499
					c2.611,0.597,5.307-0.579,6.646-2.899c0.655-1.132,0.777-2.359,0.786-3.596V20.079z"/>
				<path id="Shape_91_" fill="#F4A009" d="M21.097,3.21l0.041,14.065l9.946-5.753c0.434-0.274,1.734-1.048,2.499-2.389
					c1.326-2.319,0.989-5.231-0.83-7.186c-1.82-1.956-4.7-2.5-7.108-1.345l0,0C25.371,0.732,21.097,3.21,21.097,3.21z"/>
				<path id="Shape_92_" fill="#E49103" d="M21.143,17.274L21.121,3.209L16.563,0.63c-2.417-1.16-5.307-0.608-7.125,1.361
					s-2.139,4.895-0.79,7.211c0.655,1.129,1.656,1.844,2.726,2.474L21.143,17.274z"/>
			</g>
		</g>
		<g id="logo-white" transform="translate(5.000000, 50.000000)">
			<path id="Shape_93_" fill="#FFFFFF" d="M34.778,27.09l-12.176-7.023l9.925-5.766c0.453-0.239,1.775-0.979,3.312-0.979
				c2.67,0.001,5.03,1.738,5.822,4.289c0.792,2.551-0.167,5.319-2.367,6.833l0,0C39.048,24.613,34.778,27.09,34.778,27.09z"/>
			
				<linearGradient id="Shape_128_" gradientUnits="userSpaceOnUse" x1="-206.9058" y1="379.0078" x2="-206.9058" y2="380.0302" gradientTransform="matrix(12.1862 0 0 -17.8931 2550.0913 6816.4082)">
				<stop  offset="0" style="stop-color:#FFFFFF"/>
				<stop  offset="1" style="stop-color:#FFFFFF;stop-opacity:0.4"/>
			</linearGradient>
			<path id="Shape_94_" fill="url(#Shape_128_)" d="M22.602,20.066l12.187,7.01l-0.028,5.232c-0.197,2.671-2.112,4.9-4.723,5.497
				c-2.61,0.597-5.304-0.579-6.642-2.897c-0.655-1.131-0.775-2.359-0.786-3.594L22.602,20.066z"/>
			
				<linearGradient id="Shape_129_" gradientUnits="userSpaceOnUse" x1="-140.2217" y1="277.8594" x2="-80.0847" y2="199.4503" gradientTransform="matrix(19.3343 0 0 -13.7691 4139.3882 5164.1924)">
				<stop  offset="0" style="stop-color:#FFFFFF"/>
				<stop  offset="1" style="stop-color:#FFFFFF;stop-opacity:0.4"/>
			</linearGradient>
			<path id="Shape_95_" fill="url(#Shape_129_)" d="M7.161,27.09l12.174-7.024L9.411,14.3c-0.454-0.239-1.776-0.979-3.313-0.979
				c-2.67,0.002-5.03,1.739-5.822,4.289c-0.792,2.551,0.167,5.32,2.367,6.834l0,0C2.892,24.613,7.161,27.09,7.161,27.09z"/>
			<path id="Shape_96_" fill="#FFFFFF" d="M19.335,20.066l-12.186,7.01l0.027,5.232c0.197,2.671,2.112,4.9,4.723,5.497
				s5.304-0.579,6.642-2.897c0.655-1.131,0.775-2.359,0.786-3.594L19.335,20.066z"/>
			<path id="Shape_97_" fill="#FFFFFF" d="M20.958,3.207l0.041,14.057l9.934-5.746c0.434-0.273,1.732-1.048,2.496-2.387
				c1.328-2.318,0.993-5.229-0.826-7.185c-1.818-1.956-4.698-2.5-7.106-1.344l0,0C25.224,0.732,20.958,3.207,20.958,3.207z"/>
			
				<linearGradient id="Shape_130_" gradientUnits="userSpaceOnUse" x1="-117.5044" y1="346.5684" x2="-6.6144" y2="307.3976" gradientTransform="matrix(13.3048 0 0 -17.2258 2787.4343 6530.1187)">
				<stop  offset="0" style="stop-color:#FFFFFF"/>
				<stop  offset="1" style="stop-color:#FFFFFF;stop-opacity:0.4"/>
			</linearGradient>
			<path id="Shape_98_" fill="url(#Shape_130_)" d="M20.998,17.264L20.976,3.207l-4.555-2.573C14.008-0.519,11.125,0.035,9.311,2
				C7.497,3.966,7.175,6.884,8.517,9.197c0.655,1.133,1.654,1.844,2.723,2.473L20.998,17.264z"/>
			<path id="Shape_99_" fill="none" d="M121.79,30.869c-0.546,0.613-0.546,1.538,0,2.151c0.579,0.556,1.493,0.556,2.071,0
				c0.545-0.613,0.545-1.538,0-2.151C123.283,30.314,122.369,30.314,121.79,30.869L121.79,30.869z"/>
			<path id="Shape_100_" fill="none" d="M104.959,30.494c-0.383,0.001-0.75,0.141-1.037,0.394c-0.316,0.274-0.49,0.679-0.468,1.098
				c-0.001,0.055,0.002,0.108,0.009,0.163l2.544-1.088C105.81,30.684,105.46,30.494,104.959,30.494z"/>
			<path id="Shape_101_" fill="none" d="M66.703,30.479c-0.382,0.001-0.75,0.141-1.037,0.393c-0.317,0.274-0.49,0.68-0.468,1.099
				c-0.001,0.054,0.001,0.108,0.008,0.163l2.538-1.088C67.549,30.668,67.202,30.479,66.703,30.479z"/>
			<path id="Shape_102_" fill="none" d="M75.468,7.383c-1.824,0-3.363,0.646-4.617,1.941c-1.255,1.295-1.882,2.865-1.882,4.709
				c0,1.846,0.627,3.415,1.882,4.709c1.254,1.293,2.793,1.94,4.617,1.94c1.825,0,3.364-0.647,4.618-1.942
				c1.254-1.295,1.88-2.863,1.88-4.708s-0.626-3.415-1.88-4.709C78.832,8.028,77.293,7.382,75.468,7.383z"/>
			<path id="Shape_103_" fill="none" d="M72.724,30.873c-0.243-0.282-0.599-0.441-0.971-0.437c-0.377-0.003-0.737,0.155-0.989,0.437
				c-0.276,0.295-0.425,0.688-0.413,1.093c-0.015,0.399,0.138,0.786,0.422,1.066c0.26,0.266,0.617,0.414,0.988,0.411
				c0.366,0.006,0.716-0.145,0.963-0.415c0.268-0.29,0.409-0.674,0.393-1.067C73.13,31.561,72.989,31.172,72.724,30.873
				L72.724,30.873z"/>
			<path id="Shape_104_" fill="none" d="M95.668,30.873c-0.243-0.281-0.599-0.441-0.971-0.437c-0.377-0.003-0.736,0.155-0.988,0.437
				c-0.276,0.295-0.425,0.688-0.412,1.093c-0.016,0.399,0.138,0.786,0.422,1.066c0.26,0.266,0.616,0.414,0.988,0.411
				c0.365,0.006,0.716-0.145,0.963-0.415c0.268-0.29,0.408-0.674,0.393-1.067C96.075,31.561,95.934,31.172,95.668,30.873
				L95.668,30.873z"/>
			<path id="Shape_105_" fill="none" d="M115.289,30.771c-0.242-0.269-0.592-0.418-0.955-0.406
				c-0.359-0.014-0.705,0.143-0.933,0.422c-0.23,0.273-0.354,0.621-0.349,0.979c-0.007,0.354,0.117,0.7,0.349,0.968
				c0.233,0.273,0.579,0.424,0.937,0.408c0.36,0.014,0.709-0.13,0.954-0.393c0.245-0.268,0.376-0.619,0.366-0.982
				C115.667,31.401,115.535,31.045,115.289,30.771L115.289,30.771z"/>
			<path id="Shape_106_" fill="none" d="M140.492,7.383c-1.824,0-3.363,0.646-4.617,1.941s-1.882,2.865-1.882,4.709
				c0,1.846,0.628,3.415,1.882,4.709c1.254,1.293,2.793,1.94,4.617,1.94c1.825,0,3.364-0.647,4.618-1.942
				c1.253-1.295,1.88-2.863,1.88-4.708s-0.627-3.415-1.88-4.709C143.856,8.028,142.317,7.382,140.492,7.383z"/>
			<path id="Shape_107_" fill="#FFFFFF" d="M61.808,28.232v4.604c0,0.48,0.125,0.844,0.375,1.089
				c0.267,0.253,0.626,0.386,0.993,0.368c0.364,0.021,0.717-0.124,0.963-0.393l-0.422-0.704c-0.092,0.146-0.258,0.229-0.43,0.214
				c-0.344,0-0.516-0.229-0.516-0.686v-4.492H61.808z"/>
			<path id="Shape_108_" fill="#FFFFFF" d="M68.835,31.464c0.009-0.522-0.223-1.02-0.627-1.35c-0.439-0.356-0.992-0.543-1.557-0.524
				c-0.391,0-0.776,0.09-1.126,0.263c-0.367,0.184-0.677,0.466-0.895,0.813c-0.245,0.381-0.371,0.827-0.362,1.28
				c0,0.698,0.232,1.267,0.696,1.703c0.451,0.424,1.049,0.655,1.668,0.644c0.732,0.004,1.431-0.301,1.926-0.84l-0.567-0.625
				c-0.305,0.389-0.775,0.61-1.269,0.6c-0.469,0.02-0.92-0.184-1.216-0.549l3.335-1.396L68.835,31.464z M65.207,32.133
				c-0.006-0.055-0.009-0.109-0.008-0.163c-0.022-0.419,0.15-0.824,0.468-1.099c0.287-0.252,0.655-0.392,1.037-0.393
				c0.498,0,0.844,0.188,1.039,0.564L65.207,32.133z"/>
			<path id="Shape_109_" fill="#FFFFFF" d="M74.071,34.225v-4.56h-0.963v0.786c-0.39-0.572-0.885-0.858-1.487-0.858
				c-0.585-0.007-1.149,0.222-1.564,0.634c-0.442,0.424-0.663,0.991-0.663,1.704s0.215,1.284,0.645,1.714
				c0.391,0.42,0.939,0.656,1.513,0.655c0.298-0.003,0.591-0.074,0.856-0.21c0.281-0.139,0.522-0.346,0.701-0.604v0.745
				L74.071,34.225z M72.724,33.028c-0.247,0.271-0.597,0.421-0.963,0.415c-0.372,0.003-0.729-0.146-0.988-0.411
				c-0.284-0.28-0.437-0.667-0.422-1.066c-0.012-0.404,0.136-0.798,0.413-1.093c0.252-0.281,0.612-0.439,0.989-0.437
				c0.373-0.005,0.728,0.154,0.971,0.437c0.266,0.299,0.406,0.689,0.393,1.089C73.133,32.355,72.991,32.739,72.724,33.028z"/>
			<path id="Shape_110_" fill="#FFFFFF" d="M75.071,29.665v4.56h0.963V32.27c0-0.52,0.121-0.934,0.361-1.243
				c0.241-0.31,0.6-0.463,1.075-0.462h0.052l-0.009-0.969c-0.304,0.008-0.599,0.105-0.847,0.283
				c-0.264,0.18-0.481,0.422-0.633,0.703v-0.917H75.071z"/>
			<path id="Shape_111_" fill="#FFFFFF" d="M82.523,34.224v-2.796c0-0.594-0.16-1.049-0.478-1.363
				c-0.399-0.375-0.949-0.545-1.491-0.461c-0.541,0.085-1.013,0.414-1.279,0.894v-0.832h-0.963v4.56h0.963v-2.469
				c0-0.422,0.123-0.744,0.37-0.964c0.236-0.217,0.547-0.335,0.867-0.331c0.699,0,1.048,0.42,1.048,1.26v2.503H82.523z"/>
			<path id="Shape_112_" fill="#FFFFFF" d="M90.584,33.312c-0.15,0.108-0.332,0.161-0.516,0.151c-0.498,0-1.014-0.201-1.547-0.601
				l-0.467,0.745c0.285,0.223,0.607,0.395,0.951,0.506c0.332,0.116,0.682,0.178,1.035,0.182c0.438,0.018,0.867-0.122,1.211-0.394
				c0.312-0.253,0.488-0.639,0.474-1.04c0-0.438-0.155-0.758-0.464-0.961c-0.137-0.093-0.283-0.173-0.434-0.24
				c-0.131-0.057-0.275-0.107-0.417-0.152c-0.142-0.047-0.308-0.092-0.494-0.132c-0.149-0.032-0.296-0.081-0.435-0.146
				c-0.137-0.05-0.225-0.18-0.223-0.324c-0.007-0.156,0.076-0.301,0.215-0.374c0.172-0.089,0.364-0.132,0.559-0.124
				c0.432-0.002,0.854,0.127,1.211,0.367l0.362-0.711c-0.44-0.303-0.961-0.467-1.495-0.472c-0.459-0.021-0.912,0.113-1.285,0.382
				c-0.322,0.236-0.506,0.616-0.494,1.016c0,0.599,0.475,1.027,1.427,1.285c0.034,0.009,0.069,0.02,0.104,0.032
				c0.606,0.184,0.913,0.39,0.917,0.618C90.781,33.079,90.709,33.223,90.584,33.312z"/>
			<path id="Shape_113_" fill="#FFFFFF" d="M97.01,34.225v-4.56h-0.961v0.786c-0.393-0.572-0.889-0.858-1.489-0.858
				c-0.585-0.007-1.149,0.222-1.564,0.634c-0.442,0.424-0.663,0.991-0.663,1.704s0.215,1.284,0.645,1.714
				c0.392,0.42,0.939,0.656,1.514,0.655c0.298-0.003,0.591-0.074,0.855-0.21c0.281-0.139,0.523-0.346,0.701-0.604v0.745
				L97.01,34.225z M95.668,33.029c-0.246,0.271-0.598,0.422-0.963,0.416c-0.371,0.002-0.729-0.146-0.988-0.412
				c-0.283-0.28-0.437-0.667-0.422-1.066c-0.012-0.404,0.137-0.797,0.413-1.092c0.251-0.281,0.611-0.44,0.987-0.438
				c0.373-0.005,0.729,0.155,0.972,0.438c0.266,0.299,0.406,0.688,0.394,1.088C96.076,32.356,95.935,32.739,95.668,33.029
				L95.668,33.029z"/>
			<polygon id="Shape_114_" fill="#FFFFFF" points="98.639,29.665 97.642,29.665 99.481,34.225 100.582,34.225 102.42,29.665 
				101.425,29.665 100.03,33.111 			"/>
			<path id="Shape_115_" fill="#FFFFFF" d="M107.096,31.48c0.009-0.521-0.223-1.02-0.627-1.35c-0.439-0.356-0.991-0.543-1.557-0.523
				c-0.39-0.001-0.775,0.089-1.125,0.262c-0.367,0.185-0.677,0.466-0.895,0.814c-0.244,0.381-0.371,0.826-0.361,1.279
				c0,0.699,0.231,1.268,0.696,1.703c0.45,0.424,1.049,0.654,1.667,0.645c0.731,0.004,1.432-0.301,1.926-0.84l-0.566-0.625
				c-0.306,0.387-0.774,0.609-1.268,0.6c-0.47,0.02-0.92-0.185-1.217-0.549l3.336-1.396L107.096,31.48z M103.467,32.149
				c-0.006-0.054-0.008-0.108-0.008-0.163c-0.021-0.418,0.151-0.824,0.469-1.098c0.286-0.252,0.654-0.393,1.036-0.393
				c0.498,0,0.845,0.188,1.039,0.565L103.467,32.149z"/>
			<path id="Shape_116_" fill="#FFFFFF" d="M115.997,35.406c0.415-0.422,0.624-1.031,0.624-1.824v-3.918h-0.963v0.549
				c-0.389-0.407-0.93-0.633-1.492-0.62c-0.562-0.015-1.102,0.219-1.477,0.637c-0.779,0.907-0.779,2.247,0,3.154
				c0.383,0.42,0.93,0.651,1.496,0.634c0.305,0.002,0.604-0.07,0.873-0.209c0.242-0.113,0.447-0.289,0.598-0.51v0.262
				c0,1.091-0.424,1.637-1.272,1.637c-0.646,0-1.083-0.3-1.31-0.898l-0.844,0.358c0.156,0.425,0.447,0.786,0.83,1.028
				c0.398,0.245,0.857,0.37,1.324,0.361h0.008C114.993,36.064,115.574,35.834,115.997,35.406L115.997,35.406z M115.292,32.75
				c-0.245,0.263-0.594,0.406-0.954,0.393c-0.357,0.016-0.703-0.135-0.937-0.408c-0.231-0.268-0.355-0.613-0.349-0.968
				c-0.006-0.358,0.118-0.706,0.349-0.979c0.228-0.279,0.573-0.436,0.933-0.422c0.363-0.012,0.713,0.138,0.955,0.406
				c0.246,0.272,0.379,0.629,0.369,0.995C115.67,32.13,115.539,32.483,115.292,32.75L115.292,32.75z"/>
			<path id="Shape_117_" fill="#FFFFFF" d="M117.621,29.665v4.56h0.965V32.27c0-0.52,0.121-0.934,0.361-1.243
				c0.242-0.31,0.6-0.463,1.075-0.462h0.051l-0.008-0.969c-0.304,0.008-0.6,0.105-0.848,0.283c-0.264,0.181-0.479,0.422-0.632,0.703
				v-0.917H117.621z"/>
			<path id="Shape_118_" fill="#FFFFFF" d="M121.105,30.277c-0.92,0.92-0.92,2.413,0,3.334c0.967,0.909,2.473,0.909,3.439,0
				c0.92-0.921,0.92-2.414,0-3.334C123.578,29.369,122.072,29.369,121.105,30.277L121.105,30.277z M124.271,31.945
				c0.017,0.398-0.132,0.787-0.409,1.075c-0.578,0.556-1.492,0.556-2.071,0c-0.546-0.613-0.546-1.538,0-2.151
				c0.579-0.555,1.493-0.555,2.071,0C124.139,31.157,124.286,31.545,124.271,31.945L124.271,31.945z"/>
			<polygon id="Shape_119_" fill="#FFFFFF" points="128.065,34.225 129.148,31.105 130.231,34.225 131.332,34.225 132.914,29.665 
				131.916,29.665 130.781,33.111 129.646,29.665 128.649,29.665 127.515,33.111 126.38,29.665 125.383,29.665 126.965,34.225 			
				"/>
			<path id="Shape_120_" fill="#FFFFFF" d="M82.361,7.265c-1.858-1.81-4.156-2.716-6.894-2.716c-2.737,0-5.034,0.906-6.892,2.716
				c-1.864,1.81-2.796,4.065-2.796,6.768c0,2.703,0.93,4.959,2.79,6.769c1.859,1.81,4.157,2.715,6.893,2.715
				s5.034-0.905,6.894-2.715c1.859-1.811,2.789-4.066,2.789-6.769S84.217,9.074,82.361,7.265z M80.087,18.74
				c-1.255,1.295-2.795,1.942-4.619,1.942c-1.824,0-3.363-0.647-4.617-1.942c-1.254-1.295-1.881-2.863-1.882-4.708
				c-0.001-1.844,0.626-3.413,1.882-4.708c1.253-1.295,2.792-1.941,4.617-1.941c1.825,0,3.364,0.646,4.618,1.941
				c1.254,1.295,1.88,2.865,1.88,4.709c0,1.846-0.626,3.414-1.88,4.707H80.087z"/>
			<path id="Shape_121_" fill="#FFFFFF" d="M150.166,13.586c-0.098-2.505-1.025-4.611-2.779-6.321
				c-1.859-1.81-4.157-2.716-6.895-2.716c-2.736,0-5.034,0.906-6.893,2.716c-1.859,1.81-2.789,4.065-2.789,6.768
				c0,2.703,0.93,4.959,2.789,6.769s4.156,2.715,6.893,2.715s5.034-0.905,6.895-2.715c1.756-1.709,2.682-3.816,2.779-6.321V13.586z
				 M145.11,18.74c-1.255,1.295-2.794,1.942-4.618,1.942s-3.363-0.647-4.617-1.942s-1.881-2.863-1.882-4.708
				c-0.001-1.844,0.626-3.413,1.882-4.709c1.254-1.295,2.793-1.942,4.617-1.942c1.825,0,3.364,0.647,4.618,1.942
				c1.253,1.294,1.88,2.864,1.88,4.709S146.363,17.447,145.11,18.74z"/>
			<path id="Shape_122_" fill="#FFFFFF" d="M102.562,23.342c0,0.145,0.117,0.262,0.262,0.262h2.627c0.145,0,0.262-0.117,0.262-0.262
				V12.52c-0.002-2.108-0.844-4.129-2.337-5.615c-1.493-1.488-3.517-2.32-5.624-2.315h-0.51c-4.386-0.006-7.946,3.544-7.953,7.931
				v10.822c0,0.145,0.117,0.262,0.263,0.262h2.62c0.145,0,0.263-0.117,0.263-0.262V12.518c0.004-2.652,2.157-4.798,4.809-4.795
				h0.509c1.273-0.002,2.496,0.502,3.398,1.402c0.902,0.898,1.41,2.12,1.412,3.395V23.342z"/>
			<path id="Shape_123_" fill="#FFFFFF" d="M127.023,21.001V14.41c0-0.056-0.021-0.108-0.061-0.147s-0.092-0.062-0.148-0.062h-6.466
				c-0.114,0-0.208,0.093-0.208,0.207v2.333c0,0.114,0.094,0.207,0.208,0.207h3.702c0.115,0,0.208,0.093,0.208,0.208v2.141
				c0.001,0.076-0.04,0.146-0.104,0.184c-1.32,0.766-2.857,1.223-4.217,1.223c-3.838,0-6.873-2.916-6.873-6.662
				c0-3.721,3.006-6.638,6.846-6.638c1.934,0.023,3.797,0.73,5.26,1.997c0.041,0.037,0.098,0.057,0.153,0.051
				s0.108-0.033,0.142-0.078l1.541-1.994c0.07-0.09,0.057-0.219-0.029-0.291c-1.846-1.531-4.455-2.49-7.066-2.49
				c-5.691,0-10.066,4.096-10.066,9.447c0,5.354,4.324,9.502,9.877,9.502c2.539,0,5.312-0.962,7.217-2.371
				C126.992,21.135,127.025,21.07,127.023,21.001L127.023,21.001z"/>
			<path id="Shape_124_" fill="#FFFFFF" d="M47.758,5.337c0.004,0.015,0.01,0.028,0.017,0.042l6.735,11.518
				c0.017,0.031,0.025,0.065,0.025,0.1v6.396c0,0.113,0.092,0.205,0.206,0.205h2.663c0.113,0,0.206-0.092,0.206-0.205v-6.396
				c0-0.035,0.009-0.068,0.026-0.1l6.731-11.516c0.035-0.064,0.034-0.143-0.003-0.205s-0.105-0.102-0.178-0.101h-2.979
				c-0.073,0-0.141,0.038-0.178,0.103l-4.781,8.114c-0.038,0.063-0.105,0.102-0.178,0.102s-0.141-0.038-0.178-0.102l-4.78-8.116
				c-0.037-0.062-0.105-0.102-0.178-0.102h-2.975c-0.09,0-0.17,0.059-0.196,0.145L47.758,5.337z"/>
		</g>
	</g>
</g>
</svg>
