<?xml version="1.0" encoding="UTF-8"?>
<svg width="170px" height="105px" viewBox="0 0 170 105" version="1.1" xmlns="http://www.w3.org/2000/svg" xmlns:xlink="http://www.w3.org/1999/xlink">
    <!-- Generator: Sketch 41 (35326) - http://www.bohemiancoding.com/sketch -->
    <title>sprite</title>
    <desc>Created with Sketch.</desc>
    <defs>
        <linearGradient x1="49.9892473%" y1="82.3658314%" x2="49.9892473%" y2="-19.9872269%" id="linearGradient-1">
            <stop stop-color="#FFFFFF" offset="0%"></stop>
            <stop stop-color="#FFFFFF" stop-opacity="0.4" offset="100%"></stop>
        </linearGradient>
        <linearGradient x1="1529.92278%" y1="14109%" x2="7544.45474%" y2="21950%" id="linearGradient-2">
            <stop stop-color="#FFFFFF" offset="0%"></stop>
            <stop stop-color="#FFFFFF" stop-opacity="0.4" offset="100%"></stop>
        </linearGradient>
        <linearGradient x1="9310%" y1="2774.57307%" x2="20399%" y2="6691.70616%" id="linearGradient-3">
            <stop stop-color="#FFFFFF" offset="0%"></stop>
            <stop stop-color="#FFFFFF" stop-opacity="0.4" offset="100%"></stop>
        </linearGradient>
        <linearGradient x1="49.9841935%" y1="82.3735438%" x2="49.9841935%" y2="-19.9990774%" id="linearGradient-4">
            <stop stop-color="#FFFFFF" offset="0%"></stop>
            <stop stop-color="#FFFFFF" stop-opacity="0.4" offset="100%"></stop>
        </linearGradient>
        <linearGradient x1="20.1145763%" y1="30.8072312%" x2="100.512271%" y2="105.422074%" id="linearGradient-5">
            <stop stop-color="#FFFFFF" offset="0%"></stop>
            <stop stop-color="#FFFFFF" stop-opacity="0.4" offset="100%"></stop>
        </linearGradient>
        <linearGradient x1="33.8543983%" y1="29.5306022%" x2="142.983117%" y2="79.4789924%" id="linearGradient-6">
            <stop stop-color="#FFFFFF" offset="0%"></stop>
            <stop stop-color="#FFFFFF" stop-opacity="0.4" offset="100%"></stop>
        </linearGradient>
    </defs>
    <g id="Page-1" stroke="none" stroke-width="1" fill="none" fill-rule="evenodd">
        <g id="sprite">
            <g id="Yongo_Logo_Neg_Horizontal" transform="translate(5.000000, 5.000000)">
                <g id="Layer_1">
                    <path d="M34.9106612,27.090069 L22.736089,20.0653103 L32.6607698,14.2997931 C33.114155,14.06 34.4363102,13.3209655 35.9733647,13.3209655 C38.6438857,13.3216606 41.0033151,15.0597694 41.7956209,17.6100176 C42.5879267,20.1602657 41.6287843,22.9293548 39.4287889,24.4431724 L39.4287889,24.4431724 C39.1798202,24.6253103 34.9106612,27.090069 34.9106612,27.090069 Z" id="Shape" fill="#FFFFFF"></path>
                    <path d="M22.736089,20.0653103 L34.9224544,27.0743448 L34.8949368,32.3078621 C34.6973023,34.9773014 32.7820051,37.2058212 30.1725775,37.8025034 C27.5631499,38.3991855 24.8696491,37.2245319 23.5314786,34.9062759 C22.8762977,33.7754483 22.7557444,32.5476552 22.7452615,31.3133103 L22.736089,20.0653103 Z" id="Shape" fill="url(#linearGradient-1)"></path>
                    <path d="M7.29347422,27.090069 L19.4680464,20.0653103 L9.54336556,14.2997931 C9.08998035,14.06 7.76782522,13.3209655 6.23077073,13.3209655 C3.56024966,13.3216606 1.20082031,15.0597694 0.408514492,17.6100176 C-0.383791332,20.1602657 0.575351062,22.9293548 2.77534646,24.4431724 L2.77534646,24.4431724 C3.02431522,24.6253103 7.29347422,27.090069 7.29347422,27.090069 Z" id="Shape" fill="url(#linearGradient-2)"></path>
                    <path d="M19.4680464,20.0653103 L7.28168096,27.0743448 L7.30919856,32.3078621 C7.50683305,34.9773014 9.42213033,37.2058212 12.0315579,37.8025034 C14.6409854,38.3991855 17.3344862,37.2245319 18.6726568,34.9062759 C19.3278377,33.7754483 19.448391,32.5476552 19.4588739,31.3133103 L19.4680464,20.0653103 Z" id="Shape" fill="#FFFFFF"></path>
                    <path d="M21.0968262,3.20772414 L21.1374475,17.2637931 L31.0647491,11.5218621 C31.4984788,11.248 32.7970475,10.4735862 33.5609884,9.13441379 C34.8888026,6.81710572 34.5542541,3.90542074 32.7354685,1.94964312 C30.9166828,-0.00613449171 28.0368795,-0.550908005 25.629368,0.60537931 L25.629368,0.60537931 C25.3568127,0.732482759 21.0968262,3.20772414 21.0968262,3.20772414 Z" id="Shape" fill="#FFFFFF"></path>
                    <path d="M21.1308957,17.2637931 L21.1086195,3.20772414 L16.5538016,0.630275862 C14.1393757,-0.526146549 11.2530547,0.0272460242 9.43757675,1.99466534 C7.62209874,3.96208466 7.30200615,6.88345741 8.6483884,9.19731034 C9.30356934,10.3255172 10.3033755,11.0409655 11.3726307,11.669931 L21.1308957,17.2637931 Z" id="Shape" fill="url(#linearGradient-3)"></path>
                    <path d="M121.922621,30.8677931 C121.377396,31.4813687 121.377396,32.4058037 121.922621,33.0193793 C122.501387,33.5738125 123.414227,33.5738125 123.992993,33.0193793 C124.538218,32.4058037 124.538218,31.4813687 123.992993,30.8677931 C123.414227,30.3133599 122.501387,30.3133599 121.922621,30.8677931 L121.922621,30.8677931 Z" id="Shape"></path>
                    <path d="M105.091023,30.4943448 C104.709259,30.495213 104.340849,30.6349368 104.054526,30.8874483 C103.737252,31.1614934 103.564556,31.5668652 103.586727,31.9855172 C103.585706,32.0397931 103.588333,32.0940763 103.594589,32.148 L106.139312,31.0604138 C105.941884,30.6830345 105.592454,30.4943448 105.091023,30.4943448 Z" id="Shape"></path>
                    <path d="M66.836318,30.4786207 C66.4545542,30.4794888 66.0861443,30.6192126 65.7998217,30.8717241 C65.4829217,31.1454814 65.3102629,31.5502811 65.3320225,31.9684828 C65.3307163,32.0227625 65.3333439,32.0770655 65.3398847,32.1309655 L67.8767453,31.046 C67.6810646,30.6668736 67.3342555,30.4777471 66.836318,30.4786207 Z" id="Shape"></path>
                    <path d="M75.6013286,7.38248276 C73.7773048,7.38248276 72.2380664,8.0297931 70.9836133,9.32441379 C69.7291602,10.6190345 69.1019337,12.1888276 69.1019337,14.0337931 C69.1019337,15.8787586 69.7291602,17.4481149 70.9836133,18.7418621 C72.2380664,20.0356092 73.7773048,20.6829195 75.6013286,20.6837931 C77.4262259,20.6837931 78.9654643,20.0364828 80.2190438,18.7418621 C81.4726234,17.4472414 82.0994131,15.8778851 82.0994131,14.0337931 C82.0994131,12.1888276 81.4726234,10.6190345 80.2190438,9.32441379 C78.9654643,8.0297931 77.4262259,7.38248276 75.6013286,7.38248276 Z" id="Shape"></path>
                    <path d="M72.8626723,30.8730345 C72.6195369,30.5910611 72.2639797,30.4312784 71.8916941,30.4366897 C71.5144844,30.4329557 71.1539636,30.5919649 70.9023709,30.8730345 C70.6293347,31.1690807 70.4838719,31.5607425 70.4974691,31.9632414 C70.4824095,32.3622024 70.6354866,32.7491687 70.9194056,33.0298621 C71.1792879,33.2953648 71.5359002,33.4438725 71.9074184,33.4413103 C72.2731144,33.4470879 72.6237514,33.2958628 72.8705344,33.025931 C73.1379667,32.7361444 73.2793661,32.3520143 73.263643,31.958 C73.273759,31.5583585 73.130252,31.1700506 72.8626723,30.8730345 L72.8626723,30.8730345 Z" id="Shape"></path>
                    <path d="M95.8018673,30.8730345 C95.5586211,30.5912097 95.2031372,30.4314599 94.8308891,30.4366897 C94.454135,30.4333339 94.0941663,30.59231 93.8428763,30.8730345 C93.566504,31.1676269 93.4176814,31.5594584 93.4288019,31.9632414 C93.4137423,32.3622024 93.5668194,32.7491687 93.8507385,33.0298621 C94.1106208,33.2953648 94.4672331,33.4438725 94.8387513,33.4413103 C95.2044473,33.4470879 95.5550842,33.2958628 95.8018673,33.025931 C96.0692996,32.7361444 96.210699,32.3520143 96.1949759,31.958 C96.2072428,31.5594242 96.0665981,31.1712501 95.8018673,30.8730345 L95.8018673,30.8730345 Z" id="Shape"></path>
                    <path d="M115.421916,30.7734483 C115.17878,30.5040856 114.829339,30.3554913 114.466662,30.3672414 C114.106916,30.3533857 113.761508,30.5091082 113.533684,30.7878621 C113.303299,31.0619645 113.179537,31.4099817 113.185128,31.768 C113.178192,32.1226756 113.302294,32.4674527 113.533684,32.7363448 C113.766819,33.0088722 114.112275,33.1591312 114.470593,33.1438621 C114.830559,33.157497 115.178686,33.0140402 115.424536,32.7507586 C115.669799,32.4838466 115.801,32.1316308 115.790127,31.7693103 C115.799649,31.4024194 115.667828,31.0458968 115.421916,30.7734483 L115.421916,30.7734483 Z" id="Shape"></path>
                    <path d="M140.625416,7.38248276 C138.801392,7.38248276 137.262154,8.0297931 136.007701,9.32441379 C134.753248,10.6190345 134.126021,12.1888276 134.126021,14.0337931 C134.126021,15.8787586 134.753248,17.4481149 136.007701,18.7418621 C137.262154,20.0356092 138.801392,20.6829195 140.625416,20.6837931 C142.450313,20.6837931 143.989552,20.0364828 145.243131,18.7418621 C146.496711,17.4472414 147.123501,15.8778851 147.123501,14.0337931 C147.123501,12.1888276 146.496711,10.6190345 145.243131,9.32441379 C143.989552,8.0297931 142.450313,7.38248276 140.625416,7.38248276 Z" id="Shape"></path>
                    <path d="M61.940806,28.2326897 L61.940806,32.835931 C61.940806,33.3163908 62.0657272,33.6793563 62.3155695,33.9248276 C62.5830494,34.1771333 62.9415135,34.3100187 63.3088238,34.2930345 C63.6725992,34.3132367 64.0261998,34.1689118 64.2719398,33.899931 L63.8500033,33.1962759 C63.7570798,33.340056 63.5919886,33.4203287 63.4215149,33.4046207 C63.0720851,33.4046207 62.8973702,33.1774943 62.8973702,32.7232414 L62.8973702,28.2326897 L61.940806,28.2326897 Z" id="Shape" fill="#FFFFFF"></path>
                    <path d="M68.9669664,31.464 C68.9757677,30.9416724 68.7444101,30.4441875 68.339303,30.1143448 C67.9007115,29.7573972 67.347763,29.5712217 66.7825931,29.5902069 C66.3921671,29.5892763 66.0068545,29.678987 65.6569923,29.8522759 C65.2900373,30.0363168 64.9808468,30.3178488 64.7633255,30.666 C64.5186273,31.0474937 64.3927517,31.4930693 64.4016656,31.9462069 C64.4016656,32.6450575 64.6335997,33.2128736 65.0974678,33.6496552 C65.548282,34.0734974 66.1468891,34.304379 66.7655584,34.2930345 C67.4972919,34.2969138 68.1967107,33.9919332 68.6917904,33.4531034 L68.1244037,32.828069 C67.819248,33.2161391 67.3495513,33.4383688 66.8559734,33.4282069 C66.386638,33.4476841 65.9357297,33.2440978 65.6399576,32.8791724 L68.9748286,31.4823448 L68.9669664,31.464 Z M65.3398847,32.1322759 C65.3333439,32.0783758 65.3307163,32.0240728 65.3320225,31.9697931 C65.3102629,31.5515915 65.4829217,31.1467917 65.7998217,30.8730345 C66.0861443,30.620523 66.4545542,30.4807992 66.836318,30.479931 C67.3342555,30.479931 67.6806278,30.6681839 67.8754349,31.0446897 L65.3398847,32.1322759 Z" id="Shape" fill="#FFFFFF"></path>
                    <path d="M74.2044828,34.2235862 L74.2044828,29.6635862 L73.2413668,29.6635862 L73.2413668,30.4497931 C72.850879,29.8793563 72.3546886,29.5937011 71.7527957,29.5928276 C71.1673239,29.5858637 70.6035944,29.8143742 70.1882237,30.2270345 C69.7461949,30.6498391 69.5251805,31.2176552 69.5251805,31.9304828 C69.5251805,32.6433103 69.7400799,33.2146207 70.1698786,33.6444138 C70.561208,34.0639047 71.109663,34.301328 71.6833466,34.2995862 C71.9809829,34.2971209 72.2739507,34.225338 72.5390129,34.089931 C72.820476,33.9517902 73.0618363,33.743817 73.2400565,33.4858621 L73.2400565,34.2314483 L74.2044828,34.2235862 Z M72.8626723,33.0285517 C72.6158892,33.2984835 72.2652522,33.4497086 71.8995563,33.443931 C71.5280381,33.4464932 71.1714258,33.2979855 70.9115434,33.0324828 C70.6298178,32.7498163 70.4796029,32.3619247 70.4974691,31.9632414 C70.4852979,31.5587441 70.6336892,31.1658655 70.9102331,30.8704138 C71.1618257,30.5893442 71.5223466,30.430335 71.8995563,30.434069 C72.2718419,30.4286577 72.627399,30.5884404 72.8705344,30.8704138 C73.1362132,31.1696267 73.2769242,31.5593911 73.263643,31.9593103 C73.2775977,32.3548804 73.1332904,32.7396951 72.8626723,33.0285517 Z" id="Shape" fill="#FFFFFF"></path>
                    <path d="M75.2042889,29.6635862 L75.2042889,34.2235862 L76.1674049,34.2235862 L76.1674049,32.2685517 C76.1674049,31.7487816 76.2879582,31.3342759 76.5290648,31.0250345 C76.7701714,30.7157931 77.128337,30.562046 77.6035615,30.5637931 L77.655976,30.5637931 L77.6468035,29.5941379 C77.3427146,29.6018875 77.0479028,29.700461 76.8003097,29.8771724 C76.5360057,30.0576229 76.3189421,30.2989513 76.1674049,30.5808276 L76.1674049,29.6635862 L75.2042889,29.6635862 Z" id="Shape" fill="#FFFFFF"></path>
                    <path d="M82.6563169,34.2235862 L82.6563169,31.429931 C82.6563169,30.835908 82.4973264,30.3816552 82.1793452,30.0671724 C81.7805583,29.6911734 81.2305624,29.5202565 80.6889015,29.6040015 C80.1472406,29.6877466 79.674543,30.01678 79.4079298,30.4956552 L79.4079298,29.6635862 L78.4448139,29.6635862 L78.4448139,34.2235862 L79.4079298,34.2235862 L79.4079298,31.7548966 C79.4079298,31.332092 79.5311039,31.0106207 79.7774519,30.7904828 C80.0139408,30.5738626 80.3242372,30.4557452 80.6449114,30.4602759 C81.3437711,30.4602759 81.693201,30.880023 81.693201,31.7195172 L81.693201,34.2222759 L82.6563169,34.2235862 Z" id="Shape" fill="#FFFFFF"></path>
                    <path d="M90.7163528,33.3102759 C90.566498,33.4179505 90.3843185,33.4711241 90.2000703,33.4609655 C89.7021328,33.4609655 89.1867237,33.2609195 88.6538433,32.8608276 L88.1873544,33.6064138 C88.4722325,33.8289269 88.7937137,34.0000858 89.1373668,34.1122069 C89.470339,34.2282214 89.8199676,34.289295 90.1725527,34.2930345 C90.610573,34.3110325 91.0405578,34.1715798 91.3846374,33.899931 C91.6969645,33.6466614 91.8721455,33.2613654 91.857678,32.8595172 C91.857678,32.4227356 91.7030553,32.1025747 91.3938099,31.8990345 C91.2565477,31.8065348 91.1114113,31.7262943 90.9600802,31.6592414 C90.829044,31.6028966 90.6849042,31.5517931 90.5433851,31.505931 C90.401866,31.460069 90.23545,31.4142069 90.0493787,31.3748966 C89.8995725,31.3421417 89.7537213,31.2933789 89.6143385,31.2294483 C89.4783731,31.1797253 89.3889187,31.0492288 89.391577,30.9044828 C89.3852104,30.7489776 89.4688278,30.6036688 89.6064763,30.5310345 C89.7784567,30.4414304 89.9709338,30.3985076 90.1646905,30.4065517 C90.596455,30.4052798 91.0186758,30.5335419 91.3767752,30.7747586 L91.7384351,30.0632414 C91.2970534,29.764007 90.7765628,29.6029809 90.2433122,29.6006897 C89.7841266,29.5795509 89.3312313,29.7138942 88.9578472,29.982 C88.6368015,30.2191752 88.4522582,30.5985365 88.4638408,30.9975172 C88.4638408,31.5967816 88.9395021,32.0252644 89.8908249,32.2829655 C89.9258738,32.2920895 89.9604263,32.3030237 89.9943435,32.3157241 C90.6014778,32.4991724 90.9072289,32.7053333 90.9115968,32.9342069 C90.9107034,33.0836476 90.8380654,33.2235593 90.7163528,33.3102759 Z" id="Shape" fill="#FFFFFF"></path>
                    <path d="M97.1436779,34.2235862 L97.1436779,29.6635862 L96.1805619,29.6635862 L96.1805619,30.4497931 C95.790074,29.8793563 95.2938837,29.5937011 94.6919908,29.5928276 C94.1065189,29.5858637 93.5427895,29.8143742 93.1274187,30.2270345 C92.68539,30.6498391 92.4643756,31.2176552 92.4643756,31.9304828 C92.4643756,32.6433103 92.6792749,33.2146207 93.1090736,33.6444138 C93.5004031,34.0639047 94.048858,34.301328 94.6225416,34.2995862 C94.920178,34.2971209 95.2131457,34.225338 95.4782079,34.089931 C95.759671,33.9517902 96.0010314,33.743817 96.1792515,33.4858621 L96.1792515,34.2314483 L97.1436779,34.2235862 Z M95.8018673,33.0285517 C95.5550842,33.2984835 95.2044473,33.4497086 94.8387513,33.443931 C94.4672331,33.4464932 94.1106208,33.2979855 93.8507385,33.0324828 C93.5661331,32.751165 93.4129981,32.3631014 93.4288019,31.9632414 C93.4166308,31.5587441 93.5650221,31.1658655 93.8415659,30.8704138 C94.092856,30.5896893 94.4528246,30.4307132 94.8295788,30.434069 C95.2018269,30.4288392 95.5573108,30.588589 95.8005569,30.8704138 C96.0662357,31.1696267 96.2069468,31.5593911 96.1936655,31.9593103 C96.2100945,32.353588 96.0691511,32.7382312 95.8018673,33.0285517 Z" id="Shape" fill="#FFFFFF"></path>
                    <polygon id="Shape" fill="#FFFFFF" points="98.7724577 29.6635862 97.7752723 29.6635862 99.61371 34.2248966 100.714414 34.2248966 102.554162 29.6635862 101.556977 29.6635862 100.164062 33.1097931"></polygon>
                    <path d="M107.228223,31.4797241 C107.237024,30.9573965 107.005667,30.4599116 106.60056,30.130069 C106.162428,29.7732111 105.609919,29.5870267 105.04516,29.605931 C104.654761,29.6052385 104.269502,29.6949367 103.919559,29.868 C103.552835,30.052377 103.243727,30.3338342 103.025892,30.6817241 C102.781412,31.0633158 102.655555,31.5088239 102.664232,31.961931 C102.664232,32.6607816 102.896603,33.2285977 103.361345,33.6653793 C103.812235,34.0891017 104.410791,34.3199637 105.029436,34.3087586 C105.761203,34.3128016 106.460685,34.0077933 106.955668,33.4688276 L106.388281,32.8437931 C106.083405,33.2314909 105.614282,33.4536787 105.121161,33.443931 C104.651866,33.4631985 104.201048,33.2596527 103.905145,32.8948966 L107.240016,31.498069 L107.228223,31.4797241 Z M103.599831,32.148 C103.593574,32.0940763 103.590948,32.0397931 103.591969,31.9855172 C103.569797,31.5668652 103.742493,31.1614934 104.059768,30.8874483 C104.34609,30.6349368 104.7145,30.495213 105.096264,30.4943448 C105.594202,30.4943448 105.940574,30.6830345 106.135381,31.0604138 L103.599831,32.148 Z" id="Shape" fill="#FFFFFF"></path>
                    <path d="M116.130821,35.4068276 C116.546643,34.984023 116.754554,34.3755862 116.754554,33.5815172 L116.754554,29.6635862 L115.791438,29.6635862 L115.791438,30.2126207 C115.403571,29.8057831 114.862203,29.5812466 114.300246,29.5941379 C113.738261,29.5793308 113.198029,29.8116085 112.822158,30.2296552 C112.043051,31.1366501 112.043051,32.4766602 112.822158,33.3836552 C113.204156,33.8038089 113.751015,34.0355742 114.318591,34.0178621 C114.622186,34.0197577 114.92169,33.9478059 115.191292,33.8082069 C115.432649,33.6950727 115.63906,33.518992 115.788817,33.2984828 L115.788817,33.5605517 C115.788817,34.6516322 115.364697,35.1971724 114.516456,35.1971724 C113.87001,35.1971724 113.433223,34.8975402 113.206094,34.2982759 L112.363531,34.6573103 C112.51895,35.0823092 112.810583,35.4439661 113.19299,35.685931 C113.590959,35.9304379 114.050777,36.0555103 114.517766,36.0462759 L114.525628,36.0462759 C115.12634,36.0656421 115.707975,35.8339405 116.130821,35.4068276 Z M115.425847,32.7494483 C115.179996,33.0127299 114.83187,33.1561867 114.471903,33.1425517 C114.113585,33.1578209 113.76813,33.0075618 113.534995,32.7350345 C113.303605,32.4661423 113.179502,32.1213652 113.186438,31.7666897 C113.180847,31.4086714 113.304609,31.0606542 113.534995,30.7865517 C113.762818,30.5077978 114.108226,30.3520754 114.467972,30.365931 C114.83065,30.3541809 115.180091,30.5027753 115.423226,30.7721379 C115.669298,31.0440542 115.801574,31.4000692 115.792748,31.7666897 C115.803611,32.1296406 115.671907,32.4824141 115.425847,32.7494483 Z" id="Shape" fill="#FFFFFF"></path>
                    <path d="M117.75436,29.6635862 L117.75436,34.2235862 L118.718786,34.2235862 L118.718786,32.2685517 C118.718786,31.7487816 118.839339,31.3342759 119.080446,31.0250345 C119.321553,30.7157931 119.679718,30.562046 120.154943,30.5637931 L120.206047,30.5637931 L120.198185,29.5941379 C119.893702,29.6019462 119.598488,29.7005017 119.350381,29.8771724 C119.086758,30.0580138 118.870204,30.2992749 118.718786,30.5808276 L118.718786,29.6635862 L117.75436,29.6635862 Z" id="Shape" fill="#FFFFFF"></path>
                    <path d="M121.238612,30.2768276 C120.318012,31.1978386 120.318012,32.6906442 121.238612,33.6116552 C122.204665,34.5202511 123.710949,34.5202511 124.677002,33.6116552 C125.597602,32.6906442 125.597602,31.1978386 124.677002,30.2768276 C123.710691,29.3688825 122.204922,29.3688825 121.238612,30.2768276 L121.238612,30.2768276 Z M124.403136,31.9448966 C124.419165,32.3442244 124.271497,32.7327922 123.994303,33.0206897 C123.415538,33.5751229 122.502697,33.5751229 121.923931,33.0206897 C121.378706,32.407114 121.378706,31.4826791 121.923931,30.8691034 C122.502697,30.3146702 123.415538,30.3146702 123.994303,30.8691034 C124.271032,31.1567644 124.41865,31.5447317 124.403136,31.9435862 L124.403136,31.9448966 Z" id="Shape" fill="#FFFFFF"></path>
                    <polygon id="Shape" fill="#FFFFFF" points="128.197944 34.2248966 129.281613 31.1049655 130.363972 34.2248966 131.464676 34.2248966 133.046283 29.6635862 132.049098 29.6635862 130.915635 33.1097931 129.779551 29.6635862 128.782365 29.6635862 127.648902 33.1097931 126.514129 29.6635862 125.515633 29.6635862 127.09724 34.2248966"></polygon>
                    <path d="M82.4938321,7.26455172 C80.6348653,5.45452874 78.3369274,4.54951724 75.6000182,4.54951724 C72.863109,4.54951724 70.5656079,5.45452874 68.7075147,7.26455172 C66.8476744,9.07370115 65.9177543,11.3296782 65.9177543,14.0324828 C65.9177543,16.7352874 66.8476744,18.9912644 68.7075147,20.8004138 C70.5656079,22.6104368 72.863109,23.5154483 75.6000182,23.5154483 C78.3369274,23.5154483 80.6348653,22.6104368 82.4938321,20.8004138 C84.3536724,18.9903908 85.2835925,16.7344138 85.2835925,14.0324828 C85.2835925,11.3305517 84.3536724,9.07457471 82.4938321,7.26455172 Z M80.2190438,18.7405517 C78.9637172,20.0351724 77.4244787,20.6824828 75.6013286,20.6824828 C73.7781784,20.6824828 72.23894,20.0351724 70.9836133,18.7405517 C69.7300338,17.445931 69.1028072,15.8765747 69.1019337,14.0324828 C69.1010601,12.1883908 69.7282866,10.6185977 70.9836133,9.32310345 C72.2371929,8.02848276 73.7764313,7.38117241 75.6013286,7.38117241 C77.4262259,7.38117241 78.9654643,8.02848276 80.2190438,9.32310345 C81.4726234,10.6142299 82.0994131,12.184023 82.0994131,14.0324828 C82.0994131,15.8809425 81.4726234,17.4502989 80.2190438,18.7405517 L80.2190438,18.7405517 Z" id="Shape" fill="#FFFFFF"></path>
                    <path d="M150.298507,13.5856552 C150.200667,11.0811494 149.274241,8.97411494 147.51923,7.26455172 C145.660263,5.45452874 143.362325,4.54951724 140.625416,4.54951724 C137.888507,4.54951724 135.591006,5.45452874 133.732913,7.26455172 C131.873072,9.07370115 130.943152,11.3296782 130.943152,14.0324828 C130.943152,16.7352874 131.873072,18.9912644 133.732913,20.8004138 C135.591006,22.6104368 137.888507,23.5154483 140.625416,23.5154483 C143.362325,23.5154483 145.660263,22.6104368 147.51923,20.8004138 C149.275115,19.0917241 150.201541,16.9846897 150.298507,14.4793103 L150.298507,13.5856552 Z M145.243131,18.7405517 C143.987805,20.0351724 142.448566,20.6824828 140.625416,20.6824828 C138.802266,20.6824828 137.263027,20.0351724 136.007701,18.7405517 C134.754121,17.445931 134.126895,15.8765747 134.126021,14.0324828 C134.125148,12.1883908 134.752374,10.6185977 136.007701,9.32310345 C137.26128,8.02848276 138.800519,7.38117241 140.625416,7.38117241 C142.450313,7.38117241 143.989552,8.02848276 145.243131,9.32310345 C146.496711,10.6177241 147.123501,12.1875172 147.123501,14.0324828 C147.123501,15.8774483 146.496711,17.4468046 145.243131,18.7405517 Z" id="Shape" fill="#FFFFFF"></path>
                    <path d="M102.695681,23.3398621 C102.695681,23.4845988 102.813015,23.601931 102.957754,23.601931 L105.585029,23.601931 C105.729768,23.601931 105.847101,23.4845988 105.847101,23.3398621 L105.847101,12.5177241 C105.843631,10.4100087 105.002465,8.3901149 103.508872,6.90293152 C102.015279,5.41574815 99.9917707,4.58326072 97.8840323,4.58882759 L97.3743016,4.58882759 C92.9885084,4.58303396 89.428224,8.13329942 89.4217153,12.5190345 L89.4217153,23.3411724 C89.4217153,23.4859091 89.5390491,23.6032414 89.6837877,23.6032414 L92.3045114,23.6032414 C92.44925,23.6032414 92.5665838,23.4859091 92.5665838,23.3411724 L92.5665838,12.5177241 C92.5683203,11.2440444 93.0759601,10.0232213 93.9778281,9.12382242 C94.879696,8.22442356 96.1019156,7.72012326 97.3756119,7.72186207 L97.8840323,7.72186207 C99.1579554,7.71977536 100.380512,8.223922 101.282663,9.12335854 C102.184815,10.0227951 102.692635,11.2438171 102.694371,12.5177241 L102.695681,23.3398621 Z" id="Shape" fill="#FFFFFF"></path>
                    <path d="M127.157517,21.0008966 L127.157517,14.4046207 C127.157517,14.289555 127.064236,14.1962759 126.949169,14.1962759 L120.481223,14.1962759 C120.366666,14.1962736 120.273596,14.2887567 120.272875,14.4033103 L120.272875,16.7357241 C120.273596,16.8502778 120.366666,16.9427609 120.481223,16.9427586 L124.182995,16.9427586 C124.298062,16.9427586 124.391343,17.0360378 124.391343,17.1511034 L124.391343,19.2922069 C124.391745,19.3677091 124.351767,19.4376701 124.286514,19.4756552 C122.966979,20.2408966 121.429925,20.6982069 120.069769,20.6982069 C116.231719,20.6982069 113.198232,17.7813793 113.198232,14.0351034 C113.198232,10.3150345 116.204202,7.3982069 120.043562,7.3982069 C121.977412,7.42057381 123.840844,8.12712766 125.303355,9.39255172 C125.345435,9.43012312 125.401247,9.44850051 125.457418,9.44328115 C125.513589,9.43806178 125.565059,9.4097159 125.599496,9.36503448 L127.140482,7.37068966 C127.210181,7.28136315 127.196875,7.1529338 127.110344,7.0797931 C125.265354,5.54931034 122.655113,4.59013793 120.043562,4.59013793 C114.35266,4.59013793 109.978672,8.68496552 109.978672,14.0377241 C109.978672,19.3904828 114.302867,23.5377241 119.85618,23.5377241 C122.394351,23.5377241 125.168387,22.575931 127.072343,21.166 C127.124899,21.1272344 127.15639,21.0661926 127.157517,21.0008966 L127.157517,21.0008966 Z" id="Shape" fill="#FFFFFF"></path>
                    <path d="M47.8911059,5.33703448 C47.8952146,5.35159894 47.9009278,5.36566213 47.9081406,5.37896552 L54.6420903,16.8942759 C54.6586177,16.924855 54.6671798,16.959103 54.6669872,16.9938621 L54.6669872,23.3896552 C54.6669872,23.5032735 54.7590942,23.5953793 54.872714,23.5953793 L57.5353694,23.5953793 C57.6489891,23.5953793 57.7410962,23.5032735 57.7410962,23.3896552 L57.7410962,16.9951724 C57.7410723,16.9602692 57.7501021,16.9259565 57.7673034,16.8955862 L64.4986324,5.37896552 C64.5339575,5.31511341 64.5328138,5.23732668 64.4956267,5.17454069 C64.4584397,5.1117547 64.3907749,5.07336624 64.3178024,5.07365517 L61.3406603,5.07365517 C61.2673513,5.07377111 61.1995695,5.11264548 61.162451,5.17586207 L56.3822509,13.2921379 C56.3449934,13.355141 56.2772374,13.3937894 56.2040417,13.3937894 C56.1308459,13.3937894 56.06309,13.355141 56.0258325,13.2921379 L51.244322,5.17586207 C51.2072036,5.11264548 51.1394217,5.07377111 51.0661128,5.07365517 L48.0902809,5.07365517 C47.9999323,5.07371846 47.9201982,5.13272088 47.8937267,5.21910345 L47.8911059,5.33703448 Z" id="Shape" fill="#FFFFFF"></path>
                    <path d="M121.922621,30.8677931 C121.377396,31.4813687 121.377396,32.4058037 121.922621,33.0193793 C122.501387,33.5738125 123.414227,33.5738125 123.992993,33.0193793 C124.538218,32.4058037 124.538218,31.4813687 123.992993,30.8677931 C123.414227,30.3133599 122.501387,30.3133599 121.922621,30.8677931 L121.922621,30.8677931 Z" id="Shape"></path>
                    <path d="M105.091023,30.4943448 C104.709259,30.495213 104.340849,30.6349368 104.054526,30.8874483 C103.737252,31.1614934 103.564556,31.5668652 103.586727,31.9855172 C103.585706,32.0397931 103.588333,32.0940763 103.594589,32.148 L106.139312,31.0604138 C105.941884,30.6830345 105.592454,30.4943448 105.091023,30.4943448 Z" id="Shape"></path>
                    <path d="M66.836318,30.4786207 C66.4545542,30.4794888 66.0861443,30.6192126 65.7998217,30.8717241 C65.4829217,31.1454814 65.3102629,31.5502811 65.3320225,31.9684828 C65.3307163,32.0227625 65.3333439,32.0770655 65.3398847,32.1309655 L67.8767453,31.046 C67.6810646,30.6668736 67.3342555,30.4777471 66.836318,30.4786207 Z" id="Shape"></path>
                    <path d="M75.6013286,7.38248276 C73.7773048,7.38248276 72.2380664,8.0297931 70.9836133,9.32441379 C69.7291602,10.6190345 69.1019337,12.1888276 69.1019337,14.0337931 C69.1019337,15.8787586 69.7291602,17.4481149 70.9836133,18.7418621 C72.2380664,20.0356092 73.7773048,20.6829195 75.6013286,20.6837931 C77.4262259,20.6837931 78.9654643,20.0364828 80.2190438,18.7418621 C81.4726234,17.4472414 82.0994131,15.8778851 82.0994131,14.0337931 C82.0994131,12.1888276 81.4726234,10.6190345 80.2190438,9.32441379 C78.9654643,8.0297931 77.4262259,7.38248276 75.6013286,7.38248276 Z" id="Shape"></path>
                    <path d="M72.8626723,30.8730345 C72.6195369,30.5910611 72.2639797,30.4312784 71.8916941,30.4366897 C71.5144844,30.4329557 71.1539636,30.5919649 70.9023709,30.8730345 C70.6293347,31.1690807 70.4838719,31.5607425 70.4974691,31.9632414 C70.4824095,32.3622024 70.6354866,32.7491687 70.9194056,33.0298621 C71.1792879,33.2953648 71.5359002,33.4438725 71.9074184,33.4413103 C72.2731144,33.4470879 72.6237514,33.2958628 72.8705344,33.025931 C73.1379667,32.7361444 73.2793661,32.3520143 73.263643,31.958 C73.273759,31.5583585 73.130252,31.1700506 72.8626723,30.8730345 L72.8626723,30.8730345 Z" id="Shape"></path>
                    <path d="M95.8018673,30.8730345 C95.5586211,30.5912097 95.2031372,30.4314599 94.8308891,30.4366897 C94.454135,30.4333339 94.0941663,30.59231 93.8428763,30.8730345 C93.566504,31.1676269 93.4176814,31.5594584 93.4288019,31.9632414 C93.4137423,32.3622024 93.5668194,32.7491687 93.8507385,33.0298621 C94.1106208,33.2953648 94.4672331,33.4438725 94.8387513,33.4413103 C95.2044473,33.4470879 95.5550842,33.2958628 95.8018673,33.025931 C96.0692996,32.7361444 96.210699,32.3520143 96.1949759,31.958 C96.2072428,31.5594242 96.0665981,31.1712501 95.8018673,30.8730345 L95.8018673,30.8730345 Z" id="Shape"></path>
                    <path d="M115.421916,30.7734483 C115.17878,30.5040856 114.829339,30.3554913 114.466662,30.3672414 C114.106916,30.3533857 113.761508,30.5091082 113.533684,30.7878621 C113.303299,31.0619645 113.179537,31.4099817 113.185128,31.768 C113.178192,32.1226756 113.302294,32.4674527 113.533684,32.7363448 C113.766819,33.0088722 114.112275,33.1591312 114.470593,33.1438621 C114.830559,33.157497 115.178686,33.0140402 115.424536,32.7507586 C115.669799,32.4838466 115.801,32.1316308 115.790127,31.7693103 C115.799649,31.4024194 115.667828,31.0458968 115.421916,30.7734483 L115.421916,30.7734483 Z" id="Shape"></path>
                    <path d="M140.625416,7.38248276 C138.801392,7.38248276 137.262154,8.0297931 136.007701,9.32441379 C134.753248,10.6190345 134.126021,12.1888276 134.126021,14.0337931 C134.126021,15.8787586 134.753248,17.4481149 136.007701,18.7418621 C137.262154,20.0356092 138.801392,20.6829195 140.625416,20.6837931 C142.450313,20.6837931 143.989552,20.0364828 145.243131,18.7418621 C146.496711,17.4472414 147.123501,15.8778851 147.123501,14.0337931 C147.123501,12.1888276 146.496711,10.6190345 145.243131,9.32441379 C143.989552,8.0297931 142.450313,7.38248276 140.625416,7.38248276 Z" id="Shape"></path>
                    <path d="M61.940806,28.2326897 L61.940806,32.835931 C61.940806,33.3163908 62.0657272,33.6793563 62.3155695,33.9248276 C62.5830494,34.1771333 62.9415135,34.3100187 63.3088238,34.2930345 C63.6725992,34.3132367 64.0261998,34.1689118 64.2719398,33.899931 L63.8500033,33.1962759 C63.7570798,33.340056 63.5919886,33.4203287 63.4215149,33.4046207 C63.0720851,33.4046207 62.8973702,33.1774943 62.8973702,32.7232414 L62.8973702,28.2326897 L61.940806,28.2326897 Z" id="Shape" fill="#FFFFFF"></path>
                    <path d="M68.9669664,31.464 C68.9757677,30.9416724 68.7444101,30.4441875 68.339303,30.1143448 C67.9007115,29.7573972 67.347763,29.5712217 66.7825931,29.5902069 C66.3921671,29.5892763 66.0068545,29.678987 65.6569923,29.8522759 C65.2900373,30.0363168 64.9808468,30.3178488 64.7633255,30.666 C64.5186273,31.0474937 64.3927517,31.4930693 64.4016656,31.9462069 C64.4016656,32.6450575 64.6335997,33.2128736 65.0974678,33.6496552 C65.548282,34.0734974 66.1468891,34.304379 66.7655584,34.2930345 C67.4972919,34.2969138 68.1967107,33.9919332 68.6917904,33.4531034 L68.1244037,32.828069 C67.819248,33.2161391 67.3495513,33.4383688 66.8559734,33.4282069 C66.386638,33.4476841 65.9357297,33.2440978 65.6399576,32.8791724 L68.9748286,31.4823448 L68.9669664,31.464 Z M65.3398847,32.1322759 C65.3333439,32.0783758 65.3307163,32.0240728 65.3320225,31.9697931 C65.3102629,31.5515915 65.4829217,31.1467917 65.7998217,30.8730345 C66.0861443,30.620523 66.4545542,30.4807992 66.836318,30.479931 C67.3342555,30.479931 67.6806278,30.6681839 67.8754349,31.0446897 L65.3398847,32.1322759 Z" id="Shape" fill="#FFFFFF"></path>
                    <path d="M74.2044828,34.2235862 L74.2044828,29.6635862 L73.2413668,29.6635862 L73.2413668,30.4497931 C72.850879,29.8793563 72.3546886,29.5937011 71.7527957,29.5928276 C71.1673239,29.5858637 70.6035944,29.8143742 70.1882237,30.2270345 C69.7461949,30.6498391 69.5251805,31.2176552 69.5251805,31.9304828 C69.5251805,32.6433103 69.7400799,33.2146207 70.1698786,33.6444138 C70.561208,34.0639047 71.109663,34.301328 71.6833466,34.2995862 C71.9809829,34.2971209 72.2739507,34.225338 72.5390129,34.089931 C72.820476,33.9517902 73.0618363,33.743817 73.2400565,33.4858621 L73.2400565,34.2314483 L74.2044828,34.2235862 Z M72.8626723,33.0285517 C72.6158892,33.2984835 72.2652522,33.4497086 71.8995563,33.443931 C71.5280381,33.4464932 71.1714258,33.2979855 70.9115434,33.0324828 C70.6298178,32.7498163 70.4796029,32.3619247 70.4974691,31.9632414 C70.4852979,31.5587441 70.6336892,31.1658655 70.9102331,30.8704138 C71.1618257,30.5893442 71.5223466,30.430335 71.8995563,30.434069 C72.2718419,30.4286577 72.627399,30.5884404 72.8705344,30.8704138 C73.1362132,31.1696267 73.2769242,31.5593911 73.263643,31.9593103 C73.2775977,32.3548804 73.1332904,32.7396951 72.8626723,33.0285517 Z" id="Shape" fill="#FFFFFF"></path>
                    <path d="M75.2042889,29.6635862 L75.2042889,34.2235862 L76.1674049,34.2235862 L76.1674049,32.2685517 C76.1674049,31.7487816 76.2879582,31.3342759 76.5290648,31.0250345 C76.7701714,30.7157931 77.128337,30.562046 77.6035615,30.5637931 L77.655976,30.5637931 L77.6468035,29.5941379 C77.3427146,29.6018875 77.0479028,29.700461 76.8003097,29.8771724 C76.5360057,30.0576229 76.3189421,30.2989513 76.1674049,30.5808276 L76.1674049,29.6635862 L75.2042889,29.6635862 Z" id="Shape" fill="#FFFFFF"></path>
                    <path d="M82.6563169,34.2235862 L82.6563169,31.429931 C82.6563169,30.835908 82.4973264,30.3816552 82.1793452,30.0671724 C81.7805583,29.6911734 81.2305624,29.5202565 80.6889015,29.6040015 C80.1472406,29.6877466 79.674543,30.01678 79.4079298,30.4956552 L79.4079298,29.6635862 L78.4448139,29.6635862 L78.4448139,34.2235862 L79.4079298,34.2235862 L79.4079298,31.7548966 C79.4079298,31.332092 79.5311039,31.0106207 79.7774519,30.7904828 C80.0139408,30.5738626 80.3242372,30.4557452 80.6449114,30.4602759 C81.3437711,30.4602759 81.693201,30.880023 81.693201,31.7195172 L81.693201,34.2222759 L82.6563169,34.2235862 Z" id="Shape" fill="#FFFFFF"></path>
                    <path d="M90.7163528,33.3102759 C90.566498,33.4179505 90.3843185,33.4711241 90.2000703,33.4609655 C89.7021328,33.4609655 89.1867237,33.2609195 88.6538433,32.8608276 L88.1873544,33.6064138 C88.4722325,33.8289269 88.7937137,34.0000858 89.1373668,34.1122069 C89.470339,34.2282214 89.8199676,34.289295 90.1725527,34.2930345 C90.610573,34.3110325 91.0405578,34.1715798 91.3846374,33.899931 C91.6969645,33.6466614 91.8721455,33.2613654 91.857678,32.8595172 C91.857678,32.4227356 91.7030553,32.1025747 91.3938099,31.8990345 C91.2565477,31.8065348 91.1114113,31.7262943 90.9600802,31.6592414 C90.829044,31.6028966 90.6849042,31.5517931 90.5433851,31.505931 C90.401866,31.460069 90.23545,31.4142069 90.0493787,31.3748966 C89.8995725,31.3421417 89.7537213,31.2933789 89.6143385,31.2294483 C89.4783731,31.1797253 89.3889187,31.0492288 89.391577,30.9044828 C89.3852104,30.7489776 89.4688278,30.6036688 89.6064763,30.5310345 C89.7784567,30.4414304 89.9709338,30.3985076 90.1646905,30.4065517 C90.596455,30.4052798 91.0186758,30.5335419 91.3767752,30.7747586 L91.7384351,30.0632414 C91.2970534,29.764007 90.7765628,29.6029809 90.2433122,29.6006897 C89.7841266,29.5795509 89.3312313,29.7138942 88.9578472,29.982 C88.6368015,30.2191752 88.4522582,30.5985365 88.4638408,30.9975172 C88.4638408,31.5967816 88.9395021,32.0252644 89.8908249,32.2829655 C89.9258738,32.2920895 89.9604263,32.3030237 89.9943435,32.3157241 C90.6014778,32.4991724 90.9072289,32.7053333 90.9115968,32.9342069 C90.9107034,33.0836476 90.8380654,33.2235593 90.7163528,33.3102759 Z" id="Shape" fill="#FFFFFF"></path>
                    <path d="M97.1436779,34.2235862 L97.1436779,29.6635862 L96.1805619,29.6635862 L96.1805619,30.4497931 C95.790074,29.8793563 95.2938837,29.5937011 94.6919908,29.5928276 C94.1065189,29.5858637 93.5427895,29.8143742 93.1274187,30.2270345 C92.68539,30.6498391 92.4643756,31.2176552 92.4643756,31.9304828 C92.4643756,32.6433103 92.6792749,33.2146207 93.1090736,33.6444138 C93.5004031,34.0639047 94.048858,34.301328 94.6225416,34.2995862 C94.920178,34.2971209 95.2131457,34.225338 95.4782079,34.089931 C95.759671,33.9517902 96.0010314,33.743817 96.1792515,33.4858621 L96.1792515,34.2314483 L97.1436779,34.2235862 Z M95.8018673,33.0285517 C95.5550842,33.2984835 95.2044473,33.4497086 94.8387513,33.443931 C94.4672331,33.4464932 94.1106208,33.2979855 93.8507385,33.0324828 C93.5661331,32.751165 93.4129981,32.3631014 93.4288019,31.9632414 C93.4166308,31.5587441 93.5650221,31.1658655 93.8415659,30.8704138 C94.092856,30.5896893 94.4528246,30.4307132 94.8295788,30.434069 C95.2018269,30.4288392 95.5573108,30.588589 95.8005569,30.8704138 C96.0662357,31.1696267 96.2069468,31.5593911 96.1936655,31.9593103 C96.2100945,32.353588 96.0691511,32.7382312 95.8018673,33.0285517 Z" id="Shape" fill="#FFFFFF"></path>
                    <polygon id="Shape" fill="#FFFFFF" points="98.7724577 29.6635862 97.7752723 29.6635862 99.61371 34.2248966 100.714414 34.2248966 102.554162 29.6635862 101.556977 29.6635862 100.164062 33.1097931"></polygon>
                    <path d="M107.228223,31.4797241 C107.237024,30.9573965 107.005667,30.4599116 106.60056,30.130069 C106.162428,29.7732111 105.609919,29.5870267 105.04516,29.605931 C104.654761,29.6052385 104.269502,29.6949367 103.919559,29.868 C103.552835,30.052377 103.243727,30.3338342 103.025892,30.6817241 C102.781412,31.0633158 102.655555,31.5088239 102.664232,31.961931 C102.664232,32.6607816 102.896603,33.2285977 103.361345,33.6653793 C103.812235,34.0891017 104.410791,34.3199637 105.029436,34.3087586 C105.761203,34.3128016 106.460685,34.0077933 106.955668,33.4688276 L106.388281,32.8437931 C106.083405,33.2314909 105.614282,33.4536787 105.121161,33.443931 C104.651866,33.4631985 104.201048,33.2596527 103.905145,32.8948966 L107.240016,31.498069 L107.228223,31.4797241 Z M103.599831,32.148 C103.593574,32.0940763 103.590948,32.0397931 103.591969,31.9855172 C103.569797,31.5668652 103.742493,31.1614934 104.059768,30.8874483 C104.34609,30.6349368 104.7145,30.495213 105.096264,30.4943448 C105.594202,30.4943448 105.940574,30.6830345 106.135381,31.0604138 L103.599831,32.148 Z" id="Shape" fill="#FFFFFF"></path>
                    <path d="M116.130821,35.4068276 C116.546643,34.984023 116.754554,34.3755862 116.754554,33.5815172 L116.754554,29.6635862 L115.791438,29.6635862 L115.791438,30.2126207 C115.403571,29.8057831 114.862203,29.5812466 114.300246,29.5941379 C113.738261,29.5793308 113.198029,29.8116085 112.822158,30.2296552 C112.043051,31.1366501 112.043051,32.4766602 112.822158,33.3836552 C113.204156,33.8038089 113.751015,34.0355742 114.318591,34.0178621 C114.622186,34.0197577 114.92169,33.9478059 115.191292,33.8082069 C115.432649,33.6950727 115.63906,33.518992 115.788817,33.2984828 L115.788817,33.5605517 C115.788817,34.6516322 115.364697,35.1971724 114.516456,35.1971724 C113.87001,35.1971724 113.433223,34.8975402 113.206094,34.2982759 L112.363531,34.6573103 C112.51895,35.0823092 112.810583,35.4439661 113.19299,35.685931 C113.590959,35.9304379 114.050777,36.0555103 114.517766,36.0462759 L114.525628,36.0462759 C115.12634,36.0656421 115.707975,35.8339405 116.130821,35.4068276 Z M115.425847,32.7494483 C115.179996,33.0127299 114.83187,33.1561867 114.471903,33.1425517 C114.113585,33.1578209 113.76813,33.0075618 113.534995,32.7350345 C113.303605,32.4661423 113.179502,32.1213652 113.186438,31.7666897 C113.180847,31.4086714 113.304609,31.0606542 113.534995,30.7865517 C113.762818,30.5077978 114.108226,30.3520754 114.467972,30.365931 C114.83065,30.3541809 115.180091,30.5027753 115.423226,30.7721379 C115.669298,31.0440542 115.801574,31.4000692 115.792748,31.7666897 C115.803611,32.1296406 115.671907,32.4824141 115.425847,32.7494483 Z" id="Shape" fill="#FFFFFF"></path>
                    <path d="M117.75436,29.6635862 L117.75436,34.2235862 L118.718786,34.2235862 L118.718786,32.2685517 C118.718786,31.7487816 118.839339,31.3342759 119.080446,31.0250345 C119.321553,30.7157931 119.679718,30.562046 120.154943,30.5637931 L120.206047,30.5637931 L120.198185,29.5941379 C119.893702,29.6019462 119.598488,29.7005017 119.350381,29.8771724 C119.086758,30.0580138 118.870204,30.2992749 118.718786,30.5808276 L118.718786,29.6635862 L117.75436,29.6635862 Z" id="Shape" fill="#FFFFFF"></path>
                    <path d="M121.238612,30.2768276 C120.318012,31.1978386 120.318012,32.6906442 121.238612,33.6116552 C122.204665,34.5202511 123.710949,34.5202511 124.677002,33.6116552 C125.597602,32.6906442 125.597602,31.1978386 124.677002,30.2768276 C123.710691,29.3688825 122.204922,29.3688825 121.238612,30.2768276 L121.238612,30.2768276 Z M124.403136,31.9448966 C124.419165,32.3442244 124.271497,32.7327922 123.994303,33.0206897 C123.415538,33.5751229 122.502697,33.5751229 121.923931,33.0206897 C121.378706,32.407114 121.378706,31.4826791 121.923931,30.8691034 C122.502697,30.3146702 123.415538,30.3146702 123.994303,30.8691034 C124.271032,31.1567644 124.41865,31.5447317 124.403136,31.9435862 L124.403136,31.9448966 Z" id="Shape" fill="#FFFFFF"></path>
                    <polygon id="Shape" fill="#FFFFFF" points="128.197944 34.2248966 129.281613 31.1049655 130.363972 34.2248966 131.464676 34.2248966 133.046283 29.6635862 132.049098 29.6635862 130.915635 33.1097931 129.779551 29.6635862 128.782365 29.6635862 127.648902 33.1097931 126.514129 29.6635862 125.515633 29.6635862 127.09724 34.2248966"></polygon>
                    <path d="M82.4938321,7.26455172 C80.6348653,5.45452874 78.3369274,4.54951724 75.6000182,4.54951724 C72.863109,4.54951724 70.5656079,5.45452874 68.7075147,7.26455172 C66.8476744,9.07370115 65.9177543,11.3296782 65.9177543,14.0324828 C65.9177543,16.7352874 66.8476744,18.9912644 68.7075147,20.8004138 C70.5656079,22.6104368 72.863109,23.5154483 75.6000182,23.5154483 C78.3369274,23.5154483 80.6348653,22.6104368 82.4938321,20.8004138 C84.3536724,18.9903908 85.2835925,16.7344138 85.2835925,14.0324828 C85.2835925,11.3305517 84.3536724,9.07457471 82.4938321,7.26455172 Z M80.2190438,18.7405517 C78.9637172,20.0351724 77.4244787,20.6824828 75.6013286,20.6824828 C73.7781784,20.6824828 72.23894,20.0351724 70.9836133,18.7405517 C69.7300338,17.445931 69.1028072,15.8765747 69.1019337,14.0324828 C69.1010601,12.1883908 69.7282866,10.6185977 70.9836133,9.32310345 C72.2371929,8.02848276 73.7764313,7.38117241 75.6013286,7.38117241 C77.4262259,7.38117241 78.9654643,8.02848276 80.2190438,9.32310345 C81.4726234,10.6142299 82.0994131,12.184023 82.0994131,14.0324828 C82.0994131,15.8809425 81.4726234,17.4502989 80.2190438,18.7405517 L80.2190438,18.7405517 Z" id="Shape" fill="#FFFFFF"></path>
                    <path d="M150.298507,13.5856552 C150.200667,11.0811494 149.274241,8.97411494 147.51923,7.26455172 C145.660263,5.45452874 143.362325,4.54951724 140.625416,4.54951724 C137.888507,4.54951724 135.591006,5.45452874 133.732913,7.26455172 C131.873072,9.07370115 130.943152,11.3296782 130.943152,14.0324828 C130.943152,16.7352874 131.873072,18.9912644 133.732913,20.8004138 C135.591006,22.6104368 137.888507,23.5154483 140.625416,23.5154483 C143.362325,23.5154483 145.660263,22.6104368 147.51923,20.8004138 C149.275115,19.0917241 150.201541,16.9846897 150.298507,14.4793103 L150.298507,13.5856552 Z M145.243131,18.7405517 C143.987805,20.0351724 142.448566,20.6824828 140.625416,20.6824828 C138.802266,20.6824828 137.263027,20.0351724 136.007701,18.7405517 C134.754121,17.445931 134.126895,15.8765747 134.126021,14.0324828 C134.125148,12.1883908 134.752374,10.6185977 136.007701,9.32310345 C137.26128,8.02848276 138.800519,7.38117241 140.625416,7.38117241 C142.450313,7.38117241 143.989552,8.02848276 145.243131,9.32310345 C146.496711,10.6177241 147.123501,12.1875172 147.123501,14.0324828 C147.123501,15.8774483 146.496711,17.4468046 145.243131,18.7405517 Z" id="Shape" fill="#FFFFFF"></path>
                    <path d="M102.695681,23.3398621 C102.695681,23.4845988 102.813015,23.601931 102.957754,23.601931 L105.585029,23.601931 C105.729768,23.601931 105.847101,23.4845988 105.847101,23.3398621 L105.847101,12.5177241 C105.843631,10.4100087 105.002465,8.3901149 103.508872,6.90293152 C102.015279,5.41574815 99.9917707,4.58326072 97.8840323,4.58882759 L97.3743016,4.58882759 C92.9885084,4.58303396 89.428224,8.13329942 89.4217153,12.5190345 L89.4217153,23.3411724 C89.4217153,23.4859091 89.5390491,23.6032414 89.6837877,23.6032414 L92.3045114,23.6032414 C92.44925,23.6032414 92.5665838,23.4859091 92.5665838,23.3411724 L92.5665838,12.5177241 C92.5683203,11.2440444 93.0759601,10.0232213 93.9778281,9.12382242 C94.879696,8.22442356 96.1019156,7.72012326 97.3756119,7.72186207 L97.8840323,7.72186207 C99.1579554,7.71977536 100.380512,8.223922 101.282663,9.12335854 C102.184815,10.0227951 102.692635,11.2438171 102.694371,12.5177241 L102.695681,23.3398621 Z" id="Shape" fill="#FFFFFF"></path>
                    <path d="M127.157517,21.0008966 L127.157517,14.4046207 C127.157517,14.289555 127.064236,14.1962759 126.949169,14.1962759 L120.481223,14.1962759 C120.366666,14.1962736 120.273596,14.2887567 120.272875,14.4033103 L120.272875,16.7357241 C120.273596,16.8502778 120.366666,16.9427609 120.481223,16.9427586 L124.182995,16.9427586 C124.298062,16.9427586 124.391343,17.0360378 124.391343,17.1511034 L124.391343,19.2922069 C124.391745,19.3677091 124.351767,19.4376701 124.286514,19.4756552 C122.966979,20.2408966 121.429925,20.6982069 120.069769,20.6982069 C116.231719,20.6982069 113.198232,17.7813793 113.198232,14.0351034 C113.198232,10.3150345 116.204202,7.3982069 120.043562,7.3982069 C121.977412,7.42057381 123.840844,8.12712766 125.303355,9.39255172 C125.345435,9.43012312 125.401247,9.44850051 125.457418,9.44328115 C125.513589,9.43806178 125.565059,9.4097159 125.599496,9.36503448 L127.140482,7.37068966 C127.210181,7.28136315 127.196875,7.1529338 127.110344,7.0797931 C125.265354,5.54931034 122.655113,4.59013793 120.043562,4.59013793 C114.35266,4.59013793 109.978672,8.68496552 109.978672,14.0377241 C109.978672,19.3904828 114.302867,23.5377241 119.85618,23.5377241 C122.394351,23.5377241 125.168387,22.575931 127.072343,21.166 C127.124899,21.1272344 127.15639,21.0661926 127.157517,21.0008966 L127.157517,21.0008966 Z" id="Shape" fill="#FFFFFF"></path>
                    <path d="M47.8911059,5.33703448 C47.8952146,5.35159894 47.9009278,5.36566213 47.9081406,5.37896552 L54.6420903,16.8942759 C54.6586177,16.924855 54.6671798,16.959103 54.6669872,16.9938621 L54.6669872,23.3896552 C54.6669872,23.5032735 54.7590942,23.5953793 54.872714,23.5953793 L57.5353694,23.5953793 C57.6489891,23.5953793 57.7410962,23.5032735 57.7410962,23.3896552 L57.7410962,16.9951724 C57.7410723,16.9602692 57.7501021,16.9259565 57.7673034,16.8955862 L64.4986324,5.37896552 C64.5339575,5.31511341 64.5328138,5.23732668 64.4956267,5.17454069 C64.4584397,5.1117547 64.3907749,5.07336624 64.3178024,5.07365517 L61.3406603,5.07365517 C61.2673513,5.07377111 61.1995695,5.11264548 61.162451,5.17586207 L56.3822509,13.2921379 C56.3449934,13.355141 56.2772374,13.3937894 56.2040417,13.3937894 C56.1308459,13.3937894 56.06309,13.355141 56.0258325,13.2921379 L51.244322,5.17586207 C51.2072036,5.11264548 51.1394217,5.07377111 51.0661128,5.07365517 L48.0902809,5.07365517 C47.9999323,5.07371846 47.9201982,5.13272088 47.8937267,5.21910345 L47.8911059,5.33703448 Z" id="Shape" fill="#FFFFFF"></path>
                    <path d="M35.9943304,13.334069 C34.4559656,13.334069 33.1338105,14.0731034 32.6791149,14.3142069 L22.7478822,20.0797241 L22.7478822,31.3342759 C22.7622962,32.5751724 22.8854702,33.7977241 23.5340993,34.9298621 C24.8728909,37.2500725 27.5683321,38.4259007 30.1797368,37.8288784 C32.7911416,37.2318561 34.7078576,35.0015913 34.9054197,32.3301379 L34.9329373,27.1031724 C35.0325248,27.0455172 39.1981652,24.6331724 39.4445133,24.4641379 L39.4445133,24.4641379 C41.6466288,22.9495109 42.6068484,20.1781436 41.813851,17.6258009 C41.0208535,15.0734582 38.6591949,13.3341515 35.9864683,13.334069 L35.9943304,13.334069 Z" id="Shape" fill="#FFFFFF"></path>
                    <path d="M6.23339146,13.334069 C3.5606648,13.3341515 1.19900618,15.0734582 0.406008758,17.6258009 C-0.386988659,20.1781436 0.573230896,22.9495109 2.77534646,24.4641379 L2.77534646,24.4641379 C3.02169449,24.6331724 7.1873349,27.0455172 7.28692241,27.1031724 L7.31444001,32.3301379 C7.51200208,35.0015913 9.42871815,37.2318561 12.0401229,37.8288784 C14.6515276,38.4259007 17.3469688,37.2500725 18.6857604,34.9298621 C19.3409413,33.7977241 19.462805,32.5712414 19.4719775,31.3342759 L19.4719775,20.0784138 L9.54074484,14.3128966 C9.0952218,14.0731034 7.7717563,13.334069 6.23339146,13.334069 Z" id="Shape" fill="#FFFFFF"></path>
                    <path d="M33.5806439,9.13572414 C34.9080774,6.81697344 34.572693,3.90432731 32.7529887,1.94795282 C30.9332843,-0.00842167987 28.0524744,-0.553524535 25.643782,0.602758621 L25.643782,0.602758621 C25.3738474,0.733793103 21.2108277,3.14744828 21.1112402,3.20510345 L16.5629741,0.630275862 C14.1466846,-0.529971434 11.256141,0.0223433745 9.43786381,1.99171668 C7.61958659,3.96108999 7.29930902,6.88641067 8.6483884,9.20255172 C9.30356934,10.332069 10.3046858,11.0462069 11.3739411,11.6764828 L21.1387578,17.2742759 L31.0830941,11.5218621 C31.5168239,11.2506207 32.8167029,10.4735862 33.5806439,9.13572414 Z" id="Shape" fill="#FFFFFF"></path>
                    <path d="M121.922621,30.8677931 C121.377396,31.4813687 121.377396,32.4058037 121.922621,33.0193793 C122.501387,33.5738125 123.414227,33.5738125 123.992993,33.0193793 C124.538218,32.4058037 124.538218,31.4813687 123.992993,30.8677931 C123.414227,30.3133599 122.501387,30.3133599 121.922621,30.8677931 L121.922621,30.8677931 Z" id="Shape"></path>
                    <path d="M105.091023,30.4943448 C104.709259,30.495213 104.340849,30.6349368 104.054526,30.8874483 C103.737252,31.1614934 103.564556,31.5668652 103.586727,31.9855172 C103.585706,32.0397931 103.588333,32.0940763 103.594589,32.148 L106.139312,31.0604138 C105.941884,30.6830345 105.592454,30.4943448 105.091023,30.4943448 Z" id="Shape"></path>
                    <path d="M66.836318,30.4786207 C66.4545542,30.4794888 66.0861443,30.6192126 65.7998217,30.8717241 C65.4829217,31.1454814 65.3102629,31.5502811 65.3320225,31.9684828 C65.3307163,32.0227625 65.3333439,32.0770655 65.3398847,32.1309655 L67.8767453,31.046 C67.6810646,30.6668736 67.3342555,30.4777471 66.836318,30.4786207 Z" id="Shape"></path>
                    <path d="M75.6013286,7.38248276 C73.7773048,7.38248276 72.2380664,8.0297931 70.9836133,9.32441379 C69.7291602,10.6190345 69.1019337,12.1888276 69.1019337,14.0337931 C69.1019337,15.8787586 69.7291602,17.4481149 70.9836133,18.7418621 C72.2380664,20.0356092 73.7773048,20.6829195 75.6013286,20.6837931 C77.4262259,20.6837931 78.9654643,20.0364828 80.2190438,18.7418621 C81.4726234,17.4472414 82.0994131,15.8778851 82.0994131,14.0337931 C82.0994131,12.1888276 81.4726234,10.6190345 80.2190438,9.32441379 C78.9654643,8.0297931 77.4262259,7.38248276 75.6013286,7.38248276 Z" id="Shape"></path>
                    <path d="M72.8626723,30.8730345 C72.6195369,30.5910611 72.2639797,30.4312784 71.8916941,30.4366897 C71.5144844,30.4329557 71.1539636,30.5919649 70.9023709,30.8730345 C70.6293347,31.1690807 70.4838719,31.5607425 70.4974691,31.9632414 C70.4824095,32.3622024 70.6354866,32.7491687 70.9194056,33.0298621 C71.1792879,33.2953648 71.5359002,33.4438725 71.9074184,33.4413103 C72.2731144,33.4470879 72.6237514,33.2958628 72.8705344,33.025931 C73.1379667,32.7361444 73.2793661,32.3520143 73.263643,31.958 C73.273759,31.5583585 73.130252,31.1700506 72.8626723,30.8730345 L72.8626723,30.8730345 Z" id="Shape"></path>
                    <path d="M95.8018673,30.8730345 C95.5586211,30.5912097 95.2031372,30.4314599 94.8308891,30.4366897 C94.454135,30.4333339 94.0941663,30.59231 93.8428763,30.8730345 C93.566504,31.1676269 93.4176814,31.5594584 93.4288019,31.9632414 C93.4137423,32.3622024 93.5668194,32.7491687 93.8507385,33.0298621 C94.1106208,33.2953648 94.4672331,33.4438725 94.8387513,33.4413103 C95.2044473,33.4470879 95.5550842,33.2958628 95.8018673,33.025931 C96.0692996,32.7361444 96.210699,32.3520143 96.1949759,31.958 C96.2072428,31.5594242 96.0665981,31.1712501 95.8018673,30.8730345 L95.8018673,30.8730345 Z" id="Shape"></path>
                    <path d="M115.421916,30.7734483 C115.17878,30.5040856 114.829339,30.3554913 114.466662,30.3672414 C114.106916,30.3533857 113.761508,30.5091082 113.533684,30.7878621 C113.303299,31.0619645 113.179537,31.4099817 113.185128,31.768 C113.178192,32.1226756 113.302294,32.4674527 113.533684,32.7363448 C113.766819,33.0088722 114.112275,33.1591312 114.470593,33.1438621 C114.830559,33.157497 115.178686,33.0140402 115.424536,32.7507586 C115.669799,32.4838466 115.801,32.1316308 115.790127,31.7693103 C115.799649,31.4024194 115.667828,31.0458968 115.421916,30.7734483 L115.421916,30.7734483 Z" id="Shape"></path>
                    <path d="M140.625416,7.38248276 C138.801392,7.38248276 137.262154,8.0297931 136.007701,9.32441379 C134.753248,10.6190345 134.126021,12.1888276 134.126021,14.0337931 C134.126021,15.8787586 134.753248,17.4481149 136.007701,18.7418621 C137.262154,20.0356092 138.801392,20.6829195 140.625416,20.6837931 C142.450313,20.6837931 143.989552,20.0364828 145.243131,18.7418621 C146.496711,17.4472414 147.123501,15.8778851 147.123501,14.0337931 C147.123501,12.1888276 146.496711,10.6190345 145.243131,9.32441379 C143.989552,8.0297931 142.450313,7.38248276 140.625416,7.38248276 Z" id="Shape"></path>
                    <path d="M61.940806,28.2326897 L61.940806,32.835931 C61.940806,33.3163908 62.0657272,33.6793563 62.3155695,33.9248276 C62.5830494,34.1771333 62.9415135,34.3100187 63.3088238,34.2930345 C63.6725992,34.3132367 64.0261998,34.1689118 64.2719398,33.899931 L63.8500033,33.1962759 C63.7570798,33.340056 63.5919886,33.4203287 63.4215149,33.4046207 C63.0720851,33.4046207 62.8973702,33.1774943 62.8973702,32.7232414 L62.8973702,28.2326897 L61.940806,28.2326897 Z" id="Shape" fill="#FFFFFF"></path>
                    <path d="M68.9669664,31.464 C68.9757677,30.9416724 68.7444101,30.4441875 68.339303,30.1143448 C67.9007115,29.7573972 67.347763,29.5712217 66.7825931,29.5902069 C66.3921671,29.5892763 66.0068545,29.678987 65.6569923,29.8522759 C65.2900373,30.0363168 64.9808468,30.3178488 64.7633255,30.666 C64.5186273,31.0474937 64.3927517,31.4930693 64.4016656,31.9462069 C64.4016656,32.6450575 64.6335997,33.2128736 65.0974678,33.6496552 C65.548282,34.0734974 66.1468891,34.304379 66.7655584,34.2930345 C67.4972919,34.2969138 68.1967107,33.9919332 68.6917904,33.4531034 L68.1244037,32.828069 C67.819248,33.2161391 67.3495513,33.4383688 66.8559734,33.4282069 C66.386638,33.4476841 65.9357297,33.2440978 65.6399576,32.8791724 L68.9748286,31.4823448 L68.9669664,31.464 Z M65.3398847,32.1322759 C65.3333439,32.0783758 65.3307163,32.0240728 65.3320225,31.9697931 C65.3102629,31.5515915 65.4829217,31.1467917 65.7998217,30.8730345 C66.0861443,30.620523 66.4545542,30.4807992 66.836318,30.479931 C67.3342555,30.479931 67.6806278,30.6681839 67.8754349,31.0446897 L65.3398847,32.1322759 Z" id="Shape" fill="#FFFFFF"></path>
                    <path d="M74.2044828,34.2235862 L74.2044828,29.6635862 L73.2413668,29.6635862 L73.2413668,30.4497931 C72.850879,29.8793563 72.3546886,29.5937011 71.7527957,29.5928276 C71.1673239,29.5858637 70.6035944,29.8143742 70.1882237,30.2270345 C69.7461949,30.6498391 69.5251805,31.2176552 69.5251805,31.9304828 C69.5251805,32.6433103 69.7400799,33.2146207 70.1698786,33.6444138 C70.561208,34.0639047 71.109663,34.301328 71.6833466,34.2995862 C71.9809829,34.2971209 72.2739507,34.225338 72.5390129,34.089931 C72.820476,33.9517902 73.0618363,33.743817 73.2400565,33.4858621 L73.2400565,34.2314483 L74.2044828,34.2235862 Z M72.8626723,33.0285517 C72.6158892,33.2984835 72.2652522,33.4497086 71.8995563,33.443931 C71.5280381,33.4464932 71.1714258,33.2979855 70.9115434,33.0324828 C70.6298178,32.7498163 70.4796029,32.3619247 70.4974691,31.9632414 C70.4852979,31.5587441 70.6336892,31.1658655 70.9102331,30.8704138 C71.1618257,30.5893442 71.5223466,30.430335 71.8995563,30.434069 C72.2718419,30.4286577 72.627399,30.5884404 72.8705344,30.8704138 C73.1362132,31.1696267 73.2769242,31.5593911 73.263643,31.9593103 C73.2775977,32.3548804 73.1332904,32.7396951 72.8626723,33.0285517 Z" id="Shape" fill="#FFFFFF"></path>
                    <path d="M75.2042889,29.6635862 L75.2042889,34.2235862 L76.1674049,34.2235862 L76.1674049,32.2685517 C76.1674049,31.7487816 76.2879582,31.3342759 76.5290648,31.0250345 C76.7701714,30.7157931 77.128337,30.562046 77.6035615,30.5637931 L77.655976,30.5637931 L77.6468035,29.5941379 C77.3427146,29.6018875 77.0479028,29.700461 76.8003097,29.8771724 C76.5360057,30.0576229 76.3189421,30.2989513 76.1674049,30.5808276 L76.1674049,29.6635862 L75.2042889,29.6635862 Z" id="Shape" fill="#FFFFFF"></path>
                    <path d="M82.6563169,34.2235862 L82.6563169,31.429931 C82.6563169,30.835908 82.4973264,30.3816552 82.1793452,30.0671724 C81.7805583,29.6911734 81.2305624,29.5202565 80.6889015,29.6040015 C80.1472406,29.6877466 79.674543,30.01678 79.4079298,30.4956552 L79.4079298,29.6635862 L78.4448139,29.6635862 L78.4448139,34.2235862 L79.4079298,34.2235862 L79.4079298,31.7548966 C79.4079298,31.332092 79.5311039,31.0106207 79.7774519,30.7904828 C80.0139408,30.5738626 80.3242372,30.4557452 80.6449114,30.4602759 C81.3437711,30.4602759 81.693201,30.880023 81.693201,31.7195172 L81.693201,34.2222759 L82.6563169,34.2235862 Z" id="Shape" fill="#FFFFFF"></path>
                    <path d="M90.7163528,33.3102759 C90.566498,33.4179505 90.3843185,33.4711241 90.2000703,33.4609655 C89.7021328,33.4609655 89.1867237,33.2609195 88.6538433,32.8608276 L88.1873544,33.6064138 C88.4722325,33.8289269 88.7937137,34.0000858 89.1373668,34.1122069 C89.470339,34.2282214 89.8199676,34.289295 90.1725527,34.2930345 C90.610573,34.3110325 91.0405578,34.1715798 91.3846374,33.899931 C91.6969645,33.6466614 91.8721455,33.2613654 91.857678,32.8595172 C91.857678,32.4227356 91.7030553,32.1025747 91.3938099,31.8990345 C91.2565477,31.8065348 91.1114113,31.7262943 90.9600802,31.6592414 C90.829044,31.6028966 90.6849042,31.5517931 90.5433851,31.505931 C90.401866,31.460069 90.23545,31.4142069 90.0493787,31.3748966 C89.8995725,31.3421417 89.7537213,31.2933789 89.6143385,31.2294483 C89.4783731,31.1797253 89.3889187,31.0492288 89.391577,30.9044828 C89.3852104,30.7489776 89.4688278,30.6036688 89.6064763,30.5310345 C89.7784567,30.4414304 89.9709338,30.3985076 90.1646905,30.4065517 C90.596455,30.4052798 91.0186758,30.5335419 91.3767752,30.7747586 L91.7384351,30.0632414 C91.2970534,29.764007 90.7765628,29.6029809 90.2433122,29.6006897 C89.7841266,29.5795509 89.3312313,29.7138942 88.9578472,29.982 C88.6368015,30.2191752 88.4522582,30.5985365 88.4638408,30.9975172 C88.4638408,31.5967816 88.9395021,32.0252644 89.8908249,32.2829655 C89.9258738,32.2920895 89.9604263,32.3030237 89.9943435,32.3157241 C90.6014778,32.4991724 90.9072289,32.7053333 90.9115968,32.9342069 C90.9107034,33.0836476 90.8380654,33.2235593 90.7163528,33.3102759 Z" id="Shape" fill="#FFFFFF"></path>
                    <path d="M97.1436779,34.2235862 L97.1436779,29.6635862 L96.1805619,29.6635862 L96.1805619,30.4497931 C95.790074,29.8793563 95.2938837,29.5937011 94.6919908,29.5928276 C94.1065189,29.5858637 93.5427895,29.8143742 93.1274187,30.2270345 C92.68539,30.6498391 92.4643756,31.2176552 92.4643756,31.9304828 C92.4643756,32.6433103 92.6792749,33.2146207 93.1090736,33.6444138 C93.5004031,34.0639047 94.048858,34.301328 94.6225416,34.2995862 C94.920178,34.2971209 95.2131457,34.225338 95.4782079,34.089931 C95.759671,33.9517902 96.0010314,33.743817 96.1792515,33.4858621 L96.1792515,34.2314483 L97.1436779,34.2235862 Z M95.8018673,33.0285517 C95.5550842,33.2984835 95.2044473,33.4497086 94.8387513,33.443931 C94.4672331,33.4464932 94.1106208,33.2979855 93.8507385,33.0324828 C93.5661331,32.751165 93.4129981,32.3631014 93.4288019,31.9632414 C93.4166308,31.5587441 93.5650221,31.1658655 93.8415659,30.8704138 C94.092856,30.5896893 94.4528246,30.4307132 94.8295788,30.434069 C95.2018269,30.4288392 95.5573108,30.588589 95.8005569,30.8704138 C96.0662357,31.1696267 96.2069468,31.5593911 96.1936655,31.9593103 C96.2100945,32.353588 96.0691511,32.7382312 95.8018673,33.0285517 Z" id="Shape" fill="#FFFFFF"></path>
                    <polygon id="Shape" fill="#FFFFFF" points="98.7724577 29.6635862 97.7752723 29.6635862 99.61371 34.2248966 100.714414 34.2248966 102.554162 29.6635862 101.556977 29.6635862 100.164062 33.1097931"></polygon>
                    <path d="M107.228223,31.4797241 C107.237024,30.9573965 107.005667,30.4599116 106.60056,30.130069 C106.162428,29.7732111 105.609919,29.5870267 105.04516,29.605931 C104.654761,29.6052385 104.269502,29.6949367 103.919559,29.868 C103.552835,30.052377 103.243727,30.3338342 103.025892,30.6817241 C102.781412,31.0633158 102.655555,31.5088239 102.664232,31.961931 C102.664232,32.6607816 102.896603,33.2285977 103.361345,33.6653793 C103.812235,34.0891017 104.410791,34.3199637 105.029436,34.3087586 C105.761203,34.3128016 106.460685,34.0077933 106.955668,33.4688276 L106.388281,32.8437931 C106.083405,33.2314909 105.614282,33.4536787 105.121161,33.443931 C104.651866,33.4631985 104.201048,33.2596527 103.905145,32.8948966 L107.240016,31.498069 L107.228223,31.4797241 Z M103.599831,32.148 C103.593574,32.0940763 103.590948,32.0397931 103.591969,31.9855172 C103.569797,31.5668652 103.742493,31.1614934 104.059768,30.8874483 C104.34609,30.6349368 104.7145,30.495213 105.096264,30.4943448 C105.594202,30.4943448 105.940574,30.6830345 106.135381,31.0604138 L103.599831,32.148 Z" id="Shape" fill="#FFFFFF"></path>
                    <path d="M116.130821,35.4068276 C116.546643,34.984023 116.754554,34.3755862 116.754554,33.5815172 L116.754554,29.6635862 L115.791438,29.6635862 L115.791438,30.2126207 C115.403571,29.8057831 114.862203,29.5812466 114.300246,29.5941379 C113.738261,29.5793308 113.198029,29.8116085 112.822158,30.2296552 C112.043051,31.1366501 112.043051,32.4766602 112.822158,33.3836552 C113.204156,33.8038089 113.751015,34.0355742 114.318591,34.0178621 C114.622186,34.0197577 114.92169,33.9478059 115.191292,33.8082069 C115.432649,33.6950727 115.63906,33.518992 115.788817,33.2984828 L115.788817,33.5605517 C115.788817,34.6516322 115.364697,35.1971724 114.516456,35.1971724 C113.87001,35.1971724 113.433223,34.8975402 113.206094,34.2982759 L112.363531,34.6573103 C112.51895,35.0823092 112.810583,35.4439661 113.19299,35.685931 C113.590959,35.9304379 114.050777,36.0555103 114.517766,36.0462759 L114.525628,36.0462759 C115.12634,36.0656421 115.707975,35.8339405 116.130821,35.4068276 Z M115.425847,32.7494483 C115.179996,33.0127299 114.83187,33.1561867 114.471903,33.1425517 C114.113585,33.1578209 113.76813,33.0075618 113.534995,32.7350345 C113.303605,32.4661423 113.179502,32.1213652 113.186438,31.7666897 C113.180847,31.4086714 113.304609,31.0606542 113.534995,30.7865517 C113.762818,30.5077978 114.108226,30.3520754 114.467972,30.365931 C114.83065,30.3541809 115.180091,30.5027753 115.423226,30.7721379 C115.669298,31.0440542 115.801574,31.4000692 115.792748,31.7666897 C115.803611,32.1296406 115.671907,32.4824141 115.425847,32.7494483 Z" id="Shape" fill="#FFFFFF"></path>
                    <path d="M117.75436,29.6635862 L117.75436,34.2235862 L118.718786,34.2235862 L118.718786,32.2685517 C118.718786,31.7487816 118.839339,31.3342759 119.080446,31.0250345 C119.321553,30.7157931 119.679718,30.562046 120.154943,30.5637931 L120.206047,30.5637931 L120.198185,29.5941379 C119.893702,29.6019462 119.598488,29.7005017 119.350381,29.8771724 C119.086758,30.0580138 118.870204,30.2992749 118.718786,30.5808276 L118.718786,29.6635862 L117.75436,29.6635862 Z" id="Shape" fill="#FFFFFF"></path>
                    <path d="M121.238612,30.2768276 C120.318012,31.1978386 120.318012,32.6906442 121.238612,33.6116552 C122.204665,34.5202511 123.710949,34.5202511 124.677002,33.6116552 C125.597602,32.6906442 125.597602,31.1978386 124.677002,30.2768276 C123.710691,29.3688825 122.204922,29.3688825 121.238612,30.2768276 L121.238612,30.2768276 Z M124.403136,31.9448966 C124.419165,32.3442244 124.271497,32.7327922 123.994303,33.0206897 C123.415538,33.5751229 122.502697,33.5751229 121.923931,33.0206897 C121.378706,32.407114 121.378706,31.4826791 121.923931,30.8691034 C122.502697,30.3146702 123.415538,30.3146702 123.994303,30.8691034 C124.271032,31.1567644 124.41865,31.5447317 124.403136,31.9435862 L124.403136,31.9448966 Z" id="Shape" fill="#FFFFFF"></path>
                    <polygon id="Shape" fill="#FFFFFF" points="128.197944 34.2248966 129.281613 31.1049655 130.363972 34.2248966 131.464676 34.2248966 133.046283 29.6635862 132.049098 29.6635862 130.915635 33.1097931 129.779551 29.6635862 128.782365 29.6635862 127.648902 33.1097931 126.514129 29.6635862 125.515633 29.6635862 127.09724 34.2248966"></polygon>
                    <path d="M82.4938321,7.26455172 C80.6348653,5.45452874 78.3369274,4.54951724 75.6000182,4.54951724 C72.863109,4.54951724 70.5656079,5.45452874 68.7075147,7.26455172 C66.8476744,9.07370115 65.9177543,11.3296782 65.9177543,14.0324828 C65.9177543,16.7352874 66.8476744,18.9912644 68.7075147,20.8004138 C70.5656079,22.6104368 72.863109,23.5154483 75.6000182,23.5154483 C78.3369274,23.5154483 80.6348653,22.6104368 82.4938321,20.8004138 C84.3536724,18.9903908 85.2835925,16.7344138 85.2835925,14.0324828 C85.2835925,11.3305517 84.3536724,9.07457471 82.4938321,7.26455172 Z M80.2190438,18.7405517 C78.9637172,20.0351724 77.4244787,20.6824828 75.6013286,20.6824828 C73.7781784,20.6824828 72.23894,20.0351724 70.9836133,18.7405517 C69.7300338,17.445931 69.1028072,15.8765747 69.1019337,14.0324828 C69.1010601,12.1883908 69.7282866,10.6185977 70.9836133,9.32310345 C72.2371929,8.02848276 73.7764313,7.38117241 75.6013286,7.38117241 C77.4262259,7.38117241 78.9654643,8.02848276 80.2190438,9.32310345 C81.4726234,10.6142299 82.0994131,12.184023 82.0994131,14.0324828 C82.0994131,15.8809425 81.4726234,17.4502989 80.2190438,18.7405517 L80.2190438,18.7405517 Z" id="Shape" fill="#FFFFFF"></path>
                    <path d="M150.298507,13.5856552 C150.200667,11.0811494 149.274241,8.97411494 147.51923,7.26455172 C145.660263,5.45452874 143.362325,4.54951724 140.625416,4.54951724 C137.888507,4.54951724 135.591006,5.45452874 133.732913,7.26455172 C131.873072,9.07370115 130.943152,11.3296782 130.943152,14.0324828 C130.943152,16.7352874 131.873072,18.9912644 133.732913,20.8004138 C135.591006,22.6104368 137.888507,23.5154483 140.625416,23.5154483 C143.362325,23.5154483 145.660263,22.6104368 147.51923,20.8004138 C149.275115,19.0917241 150.201541,16.9846897 150.298507,14.4793103 L150.298507,13.5856552 Z M145.243131,18.7405517 C143.987805,20.0351724 142.448566,20.6824828 140.625416,20.6824828 C138.802266,20.6824828 137.263027,20.0351724 136.007701,18.7405517 C134.754121,17.445931 134.126895,15.8765747 134.126021,14.0324828 C134.125148,12.1883908 134.752374,10.6185977 136.007701,9.32310345 C137.26128,8.02848276 138.800519,7.38117241 140.625416,7.38117241 C142.450313,7.38117241 143.989552,8.02848276 145.243131,9.32310345 C146.496711,10.6177241 147.123501,12.1875172 147.123501,14.0324828 C147.123501,15.8774483 146.496711,17.4468046 145.243131,18.7405517 Z" id="Shape" fill="#FFFFFF"></path>
                    <path d="M102.695681,23.3398621 C102.695681,23.4845988 102.813015,23.601931 102.957754,23.601931 L105.585029,23.601931 C105.729768,23.601931 105.847101,23.4845988 105.847101,23.3398621 L105.847101,12.5177241 C105.843631,10.4100087 105.002465,8.3901149 103.508872,6.90293152 C102.015279,5.41574815 99.9917707,4.58326072 97.8840323,4.58882759 L97.3743016,4.58882759 C92.9885084,4.58303396 89.428224,8.13329942 89.4217153,12.5190345 L89.4217153,23.3411724 C89.4217153,23.4859091 89.5390491,23.6032414 89.6837877,23.6032414 L92.3045114,23.6032414 C92.44925,23.6032414 92.5665838,23.4859091 92.5665838,23.3411724 L92.5665838,12.5177241 C92.5683203,11.2440444 93.0759601,10.0232213 93.9778281,9.12382242 C94.879696,8.22442356 96.1019156,7.72012326 97.3756119,7.72186207 L97.8840323,7.72186207 C99.1579554,7.71977536 100.380512,8.223922 101.282663,9.12335854 C102.184815,10.0227951 102.692635,11.2438171 102.694371,12.5177241 L102.695681,23.3398621 Z" id="Shape" fill="#FFFFFF"></path>
                    <path d="M127.157517,21.0008966 L127.157517,14.4046207 C127.157517,14.289555 127.064236,14.1962759 126.949169,14.1962759 L120.481223,14.1962759 C120.366666,14.1962736 120.273596,14.2887567 120.272875,14.4033103 L120.272875,16.7357241 C120.273596,16.8502778 120.366666,16.9427609 120.481223,16.9427586 L124.182995,16.9427586 C124.298062,16.9427586 124.391343,17.0360378 124.391343,17.1511034 L124.391343,19.2922069 C124.391745,19.3677091 124.351767,19.4376701 124.286514,19.4756552 C122.966979,20.2408966 121.429925,20.6982069 120.069769,20.6982069 C116.231719,20.6982069 113.198232,17.7813793 113.198232,14.0351034 C113.198232,10.3150345 116.204202,7.3982069 120.043562,7.3982069 C121.977412,7.42057381 123.840844,8.12712766 125.303355,9.39255172 C125.345435,9.43012312 125.401247,9.44850051 125.457418,9.44328115 C125.513589,9.43806178 125.565059,9.4097159 125.599496,9.36503448 L127.140482,7.37068966 C127.210181,7.28136315 127.196875,7.1529338 127.110344,7.0797931 C125.265354,5.54931034 122.655113,4.59013793 120.043562,4.59013793 C114.35266,4.59013793 109.978672,8.68496552 109.978672,14.0377241 C109.978672,19.3904828 114.302867,23.5377241 119.85618,23.5377241 C122.394351,23.5377241 125.168387,22.575931 127.072343,21.166 C127.124899,21.1272344 127.15639,21.0661926 127.157517,21.0008966 L127.157517,21.0008966 Z" id="Shape" fill="#FFFFFF"></path>
                    <path d="M47.8911059,5.33703448 C47.8952146,5.35159894 47.9009278,5.36566213 47.9081406,5.37896552 L54.6420903,16.8942759 C54.6586177,16.924855 54.6671798,16.959103 54.6669872,16.9938621 L54.6669872,23.3896552 C54.6669872,23.5032735 54.7590942,23.5953793 54.872714,23.5953793 L57.5353694,23.5953793 C57.6489891,23.5953793 57.7410962,23.5032735 57.7410962,23.3896552 L57.7410962,16.9951724 C57.7410723,16.9602692 57.7501021,16.9259565 57.7673034,16.8955862 L64.4986324,5.37896552 C64.5339575,5.31511341 64.5328138,5.23732668 64.4956267,5.17454069 C64.4584397,5.1117547 64.3907749,5.07336624 64.3178024,5.07365517 L61.3406603,5.07365517 C61.2673513,5.07377111 61.1995695,5.11264548 61.162451,5.17586207 L56.3822509,13.2921379 C56.3449934,13.355141 56.2772374,13.3937894 56.2040417,13.3937894 C56.1308459,13.3937894 56.06309,13.355141 56.0258325,13.2921379 L51.244322,5.17586207 C51.2072036,5.11264548 51.1394217,5.07377111 51.0661128,5.07365517 L48.0902809,5.07365517 C47.9999323,5.07371846 47.9201982,5.13272088 47.8937267,5.21910345 L47.8911059,5.33703448 Z" id="Shape" fill="#FFFFFF"></path>
                    <path d="M34.9303166,27.1071034 L22.7439511,20.0784138 L32.6751838,14.3128966 C33.128569,14.0717931 34.4520345,13.3327586 35.9903994,13.3327586 C38.663126,13.3328411 41.0247846,15.0721478 41.8177821,17.6244906 C42.6107795,20.1768333 41.6505599,22.9482005 39.4484444,24.4628276 L39.4484444,24.4628276 C39.2020963,24.6344828 34.9303166,27.1071034 34.9303166,27.1071034 Z" id="Shape" fill="#EE84B1"></path>
                    <path d="M22.7478822,20.0784138 L34.9342477,27.0913793 L34.9054197,32.3327586 C34.7078576,35.004212 32.7911416,37.2344768 30.1797368,37.8314991 C27.5683321,38.4285214 24.8728909,37.2526932 23.5340993,34.9324828 C22.8789184,33.8003448 22.7570547,32.5738621 22.7478822,31.3368966 L22.7478822,20.0784138 Z" id="Shape" fill="#DA6FA7"></path>
                    <path d="M7.29609494,27.1071034 L19.4824604,20.0784138 L9.55122773,14.3128966 C9.09784252,14.0717931 7.77437703,13.3327586 6.23601218,13.3327586 C3.56328553,13.3328411 1.2016269,15.0721478 0.408629482,17.6244906 C-0.384367936,20.1768333 0.57585162,22.9482005 2.77796718,24.4628276 L2.77796718,24.4628276 C3.02431522,24.6344828 7.29609494,27.1071034 7.29609494,27.1071034 Z" id="Shape" fill="#0D979C"></path>
                    <path d="M19.4785293,20.0784138 L7.29216385,27.0913793 L7.32099182,32.3327586 C7.51855389,35.004212 9.43526996,37.2344768 12.0466747,37.8314991 C14.6580794,38.4285214 17.3535206,37.2526932 18.6923122,34.9324828 C19.3474931,33.8003448 19.4693568,32.5738621 19.4785293,31.3368966 L19.4785293,20.0784138 Z" id="Shape" fill="#03ADB7"></path>
                    <path d="M21.0968262,3.21034483 L21.1374475,17.2755862 L31.0830941,11.5218621 C31.5168239,11.248 32.8167029,10.4735862 33.5819542,9.13310345 C34.9078691,6.81421831 34.5714799,3.90250491 32.7517491,1.94702568 C30.9320183,-0.00845354652 28.0519544,-0.553134601 25.643782,0.602758621 L25.643782,0.602758621 C25.3712267,0.732482759 21.0968262,3.21034483 21.0968262,3.21034483 Z" id="Shape" fill="#F4A009"></path>
                    <path d="M21.1426889,17.2742759 L21.1204128,3.20903448 L16.5629741,0.630275862 C14.1466846,-0.529971434 11.256141,0.0223433745 9.43786381,1.99171668 C7.61958659,3.96108999 7.29930902,6.88641067 8.6483884,9.20255172 C9.30356934,10.332069 10.3046858,11.0462069 11.3739411,11.6764828 L21.1426889,17.2742759 Z" id="Shape" fill="#E49103"></path>
                </g>
            </g>
            <g id="Yongo_Logo_White_Horizontal" transform="translate(5.000000, 50.000000)">
                <g id="Layer_1">
                    <g id="Group">
                        <path d="M34.8085234,27.1110345 L22.6242287,20.0875862 L32.5526583,14.322069 C33.0117006,14.0862069 34.3232501,13.3393103 35.8708785,13.3393103 C39.2415607,13.3393103 41.9695836,16.0648276 41.9695836,19.4324138 C41.9695836,21.5158621 40.9203441,23.3503448 39.3202537,24.4510345 L39.3202537,24.4510345 L39.3202537,24.4510345 C39.0841748,24.6344828 34.8085234,27.1110345 34.8085234,27.1110345 Z" id="Shape" fill="#FFFFFF"></path>
                        <path d="M22.6242287,20.0875862 L34.8216389,27.097931 L34.7954079,32.3262069 C34.6511375,34.2655172 33.5756669,36.1131034 31.7526131,37.1613793 C28.8278578,38.8386207 25.1030572,37.8427586 23.4111584,34.9337931 C22.7553836,33.8068966 22.6373442,32.5751724 22.6242287,31.3434483 L22.6242287,20.0875862 Z" id="Shape" fill="url(#linearGradient-4)"></path>
                        <path d="M7.16106021,27.1110345 L19.345355,20.0875862 L9.41692533,14.322069 C8.95788301,14.0862069 7.64633352,13.3393103 6.09870512,13.3393103 C2.72802294,13.3524138 0,16.077931 0,19.4455172 C0,21.5289655 1.04923959,23.3634483 2.64932997,24.4641379 L2.64932997,24.4641379 L2.64932997,24.4641379 C2.89852437,24.6344828 7.16106021,27.1110345 7.16106021,27.1110345 Z" id="Shape" fill="url(#linearGradient-5)"></path>
                        <path d="M19.3584705,20.0875862 L7.16106021,27.097931 L7.1872912,32.3262069 C7.33156164,34.2655172 8.40703222,36.1131034 10.230086,37.1613793 C13.1548414,38.8386207 16.8796419,37.8427586 18.5715408,34.9337931 C19.2273155,33.8068966 19.345355,32.5751724 19.3584705,31.3434483 L19.3584705,20.0875862 Z" id="Shape" fill="#FFFFFF"></path>
                        <path d="M20.9716763,3.22344828 L21.0110228,17.2834483 L30.9525679,11.5310345 C31.3853793,11.2558621 32.6838133,10.4827586 33.4576275,9.1462069 C35.1364108,6.22413793 34.1265177,2.50275862 31.2017623,0.825517241 C29.391824,-0.209655172 27.2671139,-0.222758621 25.5227531,0.615862069 L25.5227531,0.615862069 L25.5227531,0.615862069 C25.2473277,0.76 20.9716763,3.22344828 20.9716763,3.22344828 Z" id="Shape" fill="#FFFFFF"></path>
                        <path d="M21.0241383,17.2834483 L20.9979073,3.22344828 L16.4337151,0.655172414 C14.6762388,-0.183448276 12.5384131,-0.170344828 10.7284748,0.891034483 C7.81683495,2.56827586 6.83317284,6.30275862 8.52507168,9.22482759 C9.18084642,10.3517241 10.177624,11.0724138 11.2530946,11.7013793 L21.0241383,17.2834483 Z" id="Shape" fill="url(#linearGradient-6)"></path>
                        <path d="M121.908525,30.8848276 C121.6331,31.16 121.501945,31.5268966 121.501945,31.9593103 C121.501945,32.4048276 121.6331,32.7586207 121.908525,33.0337931 C122.18395,33.3089655 122.524953,33.4531034 122.944649,33.4531034 C123.364345,33.4531034 123.705348,33.3089655 123.980773,33.0337931 C124.256199,32.7586207 124.387354,32.4048276 124.387354,31.9593103 C124.387354,31.5137931 124.256199,31.16 123.980773,30.8848276 C123.705348,30.6096552 123.364345,30.4655172 122.944649,30.4655172 C122.524953,30.4786207 122.170835,30.6096552 121.908525,30.8848276 Z" id="Shape"></path>
                        <path d="M105.055114,30.517931 C104.674765,30.517931 104.333762,30.6489655 104.01899,30.9110345 C103.704218,31.1731034 103.546832,31.54 103.546832,32.0117241 C103.546832,32.0903448 103.546832,32.1427586 103.559948,32.1689655 L106.104354,31.0813793 C105.907621,30.7013793 105.553503,30.517931 105.055114,30.517931 Z" id="Shape"></path>
                        <path d="M66.7709845,30.5048276 C66.3906351,30.5048276 66.0496323,30.6358621 65.7348604,30.897931 C65.4200885,31.16 65.2627026,31.5268966 65.2627026,31.9986207 C65.2627026,32.0772414 65.2627026,32.1296552 65.2758181,32.1558621 L67.8202241,31.0682759 C67.6103762,30.6882759 67.2693733,30.5048276 66.7709845,30.5048276 Z" id="Shape"></path>
                        <path d="M75.5321351,7.40344828 C73.7090813,7.40344828 72.1614529,8.04551724 70.9154809,9.34275862 C69.6563934,10.64 69.0268496,12.2124138 69.0268496,14.0468966 C69.0268496,15.8944828 69.6563934,17.4668966 70.9154809,18.7510345 C72.1745684,20.0482759 73.7090813,20.6903448 75.5321351,20.6903448 C77.3551889,20.6903448 78.9028173,20.0482759 80.1487893,18.7510345 C81.4078768,17.4537931 82.0374205,15.8944828 82.0374205,14.0468966 C82.0374205,12.1993103 81.4078768,10.6268966 80.1487893,9.34275862 C78.9028173,8.04551724 77.3683044,7.40344828 75.5321351,7.40344828 Z" id="Shape"></path>
                        <path d="M72.7909966,30.897931 C72.5286867,30.6096552 72.2007994,30.4655172 71.82045,30.4655172 C71.4401007,30.4655172 71.1122133,30.6096552 70.8367879,30.897931 C70.5613625,31.1862069 70.4302076,31.5531034 70.4302076,31.9855172 C70.4302076,32.417931 70.574478,32.7717241 70.8499034,33.0468966 C71.1253288,33.322069 71.4663317,33.4531034 71.8335655,33.4531034 C72.2139149,33.4531034 72.5286867,33.3089655 72.7909966,33.0337931 C73.0533065,32.7586207 73.1844615,32.4048276 73.1844615,31.9724138 C73.197577,31.5531034 73.066422,31.1862069 72.7909966,30.897931 Z" id="Shape"></path>
                        <path d="M95.7562282,30.897931 C95.4939183,30.6096552 95.1660309,30.4655172 94.7856816,30.4655172 C94.4053322,30.4655172 94.0774448,30.6096552 93.8020194,30.897931 C93.5265941,31.1862069 93.3954391,31.5531034 93.3954391,31.9855172 C93.3954391,32.417931 93.5397095,32.7717241 93.8151349,33.0468966 C94.0905603,33.322069 94.4315632,33.4531034 94.7987971,33.4531034 C95.1791464,33.4531034 95.4939183,33.3089655 95.7562282,33.0337931 C96.0185381,32.7586207 96.149693,32.4048276 96.149693,31.9724138 C96.149693,31.5531034 96.0185381,31.1862069 95.7562282,30.897931 Z" id="Shape"></path>
                        <path d="M115.390124,30.7931034 C115.14093,30.517931 114.826158,30.3868966 114.432693,30.3868966 C114.039228,30.3868966 113.737572,30.5310345 113.501493,30.8062069 C113.265414,31.0813793 113.147374,31.4089655 113.147374,31.7889655 C113.147374,32.1689655 113.265414,32.4834483 113.501493,32.7586207 C113.737572,33.0337931 114.052344,33.1648276 114.445808,33.1648276 C114.839273,33.1648276 115.154045,33.0337931 115.40324,32.7717241 C115.652434,32.5096552 115.770473,32.182069 115.770473,31.7889655 C115.770473,31.3958621 115.639318,31.0682759 115.390124,30.7931034 Z" id="Shape"></path>
                        <path d="M140.624336,7.40344828 C138.801282,7.40344828 137.253654,8.04551724 136.007682,9.34275862 C134.76171,10.64 134.119051,12.2124138 134.119051,14.0468966 C134.119051,15.8944828 134.748594,17.4668966 136.007682,18.7510345 C137.26677,20.0482759 138.801282,20.6903448 140.624336,20.6903448 C142.44739,20.6903448 143.995018,20.0482759 145.24099,18.7510345 C146.500078,17.4537931 147.129622,15.8944828 147.129622,14.0468966 C147.129622,12.1993103 146.500078,10.6268966 145.24099,9.34275862 C143.981903,8.04551724 142.44739,7.40344828 140.624336,7.40344828 Z" id="Shape"></path>
                        <path d="M61.8657894,28.2510345 L61.8657894,32.8503448 C61.8657894,33.3351724 61.9969443,33.6889655 62.2461387,33.937931 C62.4953331,34.1868966 62.8232205,34.3048276 63.2429164,34.3048276 C63.6494967,34.3048276 63.9773841,34.1737931 64.213463,33.9117241 L63.7937671,33.2041379 C63.7019587,33.3482759 63.5708037,33.4137931 63.3609558,33.4137931 C63.0199529,33.4137931 62.8494515,33.1910345 62.8494515,32.7324138 L62.8494515,28.237931 L61.8657894,28.237931 L61.8657894,28.2510345 Z" id="Shape" fill="#FFFFFF"></path>
                        <path d="M68.8956947,31.4875862 C68.8956947,30.9372414 68.6858467,30.4786207 68.2661509,30.137931 C67.8595706,29.7972414 67.3349508,29.6137931 66.705407,29.6137931 C66.3119422,29.6137931 65.9315928,29.7055172 65.5774744,29.8758621 C65.2233561,30.0462069 64.9216997,30.3213793 64.6856208,30.6882759 C64.4495419,31.0551724 64.3183869,31.4875862 64.3183869,31.9724138 C64.3183869,32.68 64.5544658,33.2434483 65.0135082,33.6758621 C65.4725505,34.1082759 66.0365168,34.317931 66.679176,34.317931 C67.4136437,34.317931 68.056303,34.0427586 68.6071538,33.4793103 L68.0431875,32.8503448 C67.7153001,33.2565517 67.2824888,33.4531034 66.7709845,33.4531034 C66.2594802,33.4531034 65.8528998,33.2696552 65.5512435,32.9027586 L68.8956947,31.5006897 L68.8956947,31.4875862 Z M65.2627026,32.1558621 C65.2627026,32.1165517 65.2495871,32.0641379 65.2495871,31.9986207 C65.2495871,31.5268966 65.406973,31.16 65.7217449,30.897931 C66.0365168,30.6358621 66.3775196,30.5048276 66.757869,30.5048276 C67.2562578,30.5048276 67.5972607,30.6882759 67.7939931,31.0682759 L65.2627026,32.1558621 Z" id="Shape" fill="#FFFFFF"></path>
                        <path d="M74.1418926,34.2393103 L74.1418926,29.6793103 L73.1844615,29.6793103 L73.1844615,30.4655172 C72.7909966,29.8889655 72.2926078,29.6137931 71.6892951,29.6137931 C71.0859823,29.6137931 70.5613625,29.8234483 70.1285512,30.2427586 C69.6826243,30.662069 69.4596609,31.2255172 69.4596609,31.9462069 C69.4596609,32.6537931 69.6695089,33.2303448 70.1023202,33.6627586 C70.5351315,34.0951724 71.0335203,34.317931 71.6106021,34.317931 C71.899143,34.317931 72.1876839,34.2524138 72.4631093,34.1082759 C72.7516501,33.9641379 72.9746136,33.7675862 73.171346,33.5055172 L73.171346,34.2524138 L74.1418926,34.2524138 L74.1418926,34.2393103 Z M72.7909966,33.0468966 C72.5286867,33.322069 72.2007994,33.4662069 71.8335655,33.4662069 C71.4532162,33.4662069 71.1253288,33.3351724 70.8499034,33.06 C70.574478,32.7848276 70.4302076,32.4310345 70.4302076,31.9986207 C70.4302076,31.5662069 70.574478,31.1993103 70.8367879,30.9110345 C71.1122133,30.6227586 71.4401007,30.4786207 71.82045,30.4786207 C72.2007994,30.4786207 72.5286867,30.6227586 72.7909966,30.9110345 C73.0533065,31.1993103 73.1844615,31.5662069 73.1844615,31.9986207 C73.197577,32.417931 73.066422,32.7717241 72.7909966,33.0468966 Z" id="Shape" fill="#FFFFFF"></path>
                        <path d="M75.1386702,29.6793103 L75.1386702,34.2393103 L76.0961013,34.2393103 L76.0961013,32.2868966 C76.0961013,31.7627586 76.2141408,31.3565517 76.4633352,31.042069 C76.6994141,30.7275862 77.066648,30.5834483 77.5388058,30.5834483 L77.5912678,30.5834483 L77.5781523,29.6137931 C77.2764959,29.6137931 77.0010705,29.7186207 76.7256451,29.902069 C76.4633352,30.0855172 76.2534873,30.3213793 76.0961013,30.6096552 L76.0961013,29.6924138 L75.1386702,29.6924138 L75.1386702,29.6793103 Z" id="Shape" fill="#FFFFFF"></path>
                        <path d="M82.6013868,34.2393103 L82.6013868,31.4482759 C82.6013868,30.8586207 82.4440009,30.4 82.129229,30.0855172 C81.8144571,29.7710345 81.3947613,29.6137931 80.883257,29.6137931 C80.5684851,29.6137931 80.2799442,29.6924138 80.0045188,29.8496552 C79.7290934,30.0068966 79.5192455,30.2296552 79.3618596,30.5048276 L79.3618596,29.6793103 L78.391313,29.6793103 L78.391313,34.2393103 L79.3618596,34.2393103 L79.3618596,31.7758621 C79.3618596,31.3565517 79.479899,31.0289655 79.7290934,30.8062069 C79.9782878,30.5834483 80.2668287,30.4786207 80.5947161,30.4786207 C81.2898373,30.4786207 81.6439557,30.897931 81.6439557,31.7365517 L81.6439557,34.2393103 L82.6013868,34.2393103 Z" id="Shape" fill="#FFFFFF"></path>
                        <path d="M90.6674162,33.3351724 C90.5362612,33.44 90.3657598,33.4793103 90.1559119,33.4793103 C89.6575231,33.4793103 89.1460188,33.2827586 88.6082835,32.8765517 L88.1492411,33.6234483 C88.4246665,33.8462069 88.7394384,34.0034483 89.1066723,34.1344828 C89.4607906,34.2524138 89.814909,34.317931 90.1427964,34.317931 C90.6411852,34.317931 91.03465,34.1868966 91.3494219,33.9248276 C91.6641938,33.6627586 91.8215797,33.322069 91.8215797,32.8896552 C91.8215797,32.4572414 91.6641938,32.1296552 91.3625374,31.9331034 C91.2051515,31.8282759 91.060881,31.7496552 90.9297261,31.6972414 C90.7985711,31.6448276 90.6543007,31.5924138 90.5100302,31.54 C90.3657598,31.4875862 90.2083738,31.4482759 90.0116414,31.4089655 C89.8280245,31.3696552 89.6837541,31.3172414 89.5788301,31.2648276 C89.4345596,31.1993103 89.3558667,31.0813793 89.3558667,30.9372414 C89.3558667,30.7668966 89.4214442,30.6489655 89.5657146,30.5703448 C89.709985,30.4917241 89.893602,30.4524138 90.1296809,30.4524138 C90.5624922,30.4524138 90.9690726,30.5703448 91.3494219,30.8193103 L91.7166558,30.1117241 C91.2444979,29.8103448 90.7461091,29.6531034 90.2214893,29.6531034 C89.6968695,29.6531034 89.2640582,29.7841379 88.9361708,30.0331034 C88.6082835,30.282069 88.437782,30.6227586 88.437782,31.0551724 C88.437782,31.657931 88.9099399,32.0772414 89.867371,32.3393103 C89.893602,32.3393103 89.919833,32.3524138 89.9722949,32.3786207 C90.5756077,32.562069 90.8903796,32.7717241 90.8903796,32.9944828 C90.8510331,33.0993103 90.7985711,33.2303448 90.6674162,33.3351724 Z" id="Shape" fill="#FFFFFF"></path>
                        <path d="M97.0940087,34.2393103 L97.0940087,29.6793103 L96.1365775,29.6793103 L96.1365775,30.4655172 C95.7431127,29.8889655 95.2447239,29.6137931 94.6414111,29.6137931 C94.0380984,29.6137931 93.5134786,29.8234483 93.0806672,30.2427586 C92.6347404,30.662069 92.411777,31.2255172 92.411777,31.9462069 C92.411777,32.6537931 92.6216249,33.2303448 93.0544362,33.6627586 C93.4872476,34.0951724 93.9856364,34.317931 94.5627182,34.317931 C94.851259,34.317931 95.1397999,34.2524138 95.4152253,34.1082759 C95.7037662,33.9641379 95.9267296,33.7675862 96.123462,33.5055172 L96.123462,34.2524138 L97.0940087,34.2524138 L97.0940087,34.2393103 Z M95.7562282,33.0468966 C95.4939183,33.322069 95.1660309,33.4662069 94.7987971,33.4662069 C94.4184477,33.4662069 94.0905603,33.3351724 93.8151349,33.06 C93.5397095,32.7848276 93.3954391,32.4310345 93.3954391,31.9986207 C93.3954391,31.5662069 93.5397095,31.1993103 93.8020194,30.9110345 C94.0774448,30.6227586 94.4053322,30.4786207 94.7856816,30.4786207 C95.1660309,30.4786207 95.4939183,30.6227586 95.7562282,30.9110345 C96.0185381,31.1993103 96.149693,31.5662069 96.149693,31.9986207 C96.149693,32.417931 96.0185381,32.7717241 95.7562282,33.0468966 Z" id="Shape" fill="#FFFFFF"></path>
                        <polygon id="Shape" fill="#FFFFFF" points="98.7334455 29.6793103 97.7366679 29.6793103 99.5728372 34.2393103 100.674539 34.2393103 102.510708 29.6793103 101.51393 29.6793103 100.123688 33.1255172"></polygon>
                        <path d="M107.19294,31.5006897 C107.19294,30.9503448 106.983092,30.4917241 106.563396,30.1510345 C106.156816,29.8103448 105.632196,29.6268966 105.002652,29.6268966 C104.609187,29.6268966 104.228838,29.7186207 103.87472,29.8889655 C103.520601,30.0593103 103.218945,30.3344828 102.982866,30.7013793 C102.746787,31.0682759 102.615632,31.5006897 102.615632,31.9855172 C102.615632,32.6931034 102.851711,33.2565517 103.310753,33.6889655 C103.769796,34.1213793 104.333762,34.3310345 104.976421,34.3310345 C105.710889,34.3310345 106.353548,34.0558621 106.904399,33.4924138 L106.340433,32.8634483 C106.012545,33.2696552 105.579734,33.4662069 105.06823,33.4662069 C104.556725,33.4662069 104.150145,33.2827586 103.848489,32.9158621 L107.19294,31.5137931 L107.19294,31.5006897 Z M103.559948,32.1689655 C103.559948,32.1296552 103.546832,32.0772414 103.546832,32.0117241 C103.546832,31.54 103.704218,31.1731034 104.01899,30.9110345 C104.333762,30.6489655 104.674765,30.517931 105.055114,30.517931 C105.553503,30.517931 105.894506,30.7013793 106.091238,31.0813793 L103.559948,32.1689655 Z" id="Shape" fill="#FFFFFF"></path>
                        <path d="M116.098361,35.4317241 C116.518057,35.0124138 116.727905,34.3965517 116.727905,33.6103448 L116.727905,29.6924138 L115.757358,29.6924138 L115.757358,30.2427586 C115.350778,29.8365517 114.852389,29.6268966 114.262191,29.6268966 C113.671994,29.6268966 113.173605,29.8365517 112.793256,30.2558621 C112.399791,30.6751724 112.203059,31.1993103 112.203059,31.8282759 C112.203059,32.4572414 112.399791,32.9813793 112.793256,33.4006897 C113.186721,33.82 113.68511,34.0296552 114.288422,34.0296552 C114.603194,34.0296552 114.891735,33.9641379 115.167161,33.82 C115.442586,33.6758621 115.639318,33.5055172 115.770473,33.3089655 L115.770473,33.5710345 C115.770473,34.6586207 115.350778,35.2089655 114.49827,35.2089655 C113.855611,35.2089655 113.409684,34.9075862 113.186721,34.3048276 L112.347329,34.6586207 C112.517831,35.1041379 112.793256,35.4448276 113.173605,35.6937931 C113.553955,35.9296552 113.999882,36.0475862 114.49827,36.0475862 L114.511386,36.0475862 C115.154045,36.0606897 115.69178,35.8510345 116.098361,35.4317241 Z M115.40324,32.7717241 C115.154045,33.0337931 114.839273,33.1648276 114.445808,33.1648276 C114.052344,33.1648276 113.737572,33.0337931 113.501493,32.7586207 C113.265414,32.4834483 113.147374,32.1689655 113.147374,31.7889655 C113.147374,31.4089655 113.265414,31.0813793 113.501493,30.8062069 C113.737572,30.5310345 114.039228,30.3868966 114.432693,30.3868966 C114.826158,30.3868966 115.14093,30.517931 115.390124,30.7931034 C115.639318,31.0682759 115.757358,31.3958621 115.757358,31.7889655 C115.770473,32.182069 115.639318,32.5096552 115.40324,32.7717241 Z" id="Shape" fill="#FFFFFF"></path>
                        <path d="M117.724682,29.6793103 L117.724682,34.2393103 L118.682113,34.2393103 L118.682113,32.2868966 C118.682113,31.7627586 118.800153,31.3565517 119.049347,31.042069 C119.285426,30.7275862 119.65266,30.5834483 120.124818,30.5834483 L120.17728,30.5834483 L120.164164,29.6137931 C119.862508,29.6137931 119.587082,29.7186207 119.311657,29.902069 C119.049347,30.0855172 118.839499,30.3213793 118.682113,30.6096552 L118.682113,29.6924138 L117.724682,29.6924138 L117.724682,29.6793103 Z" id="Shape" fill="#FFFFFF"></path>
                        <path d="M121.213404,30.2951724 C120.754361,30.7537931 120.531398,31.3041379 120.531398,31.9593103 C120.531398,32.6144828 120.767477,33.177931 121.213404,33.6234483 C121.672446,34.082069 122.249528,34.3048276 122.931534,34.3048276 C123.626655,34.3048276 124.190621,34.082069 124.649663,33.6234483 C125.108706,33.1648276 125.344785,32.6144828 125.344785,31.9593103 C125.344785,31.3041379 125.108706,30.7406897 124.649663,30.2951724 C124.190621,29.8365517 123.613539,29.6137931 122.931534,29.6137931 C122.249528,29.6137931 121.672446,29.8496552 121.213404,30.2951724 Z M124.387354,31.9593103 C124.387354,32.4048276 124.256199,32.7586207 123.980773,33.0337931 C123.705348,33.3089655 123.364345,33.4531034 122.944649,33.4531034 C122.524953,33.4531034 122.18395,33.3089655 121.908525,33.0337931 C121.6331,32.7586207 121.501945,32.4048276 121.501945,31.9593103 C121.501945,31.5137931 121.6331,31.16 121.908525,30.8848276 C122.18395,30.6096552 122.524953,30.4655172 122.944649,30.4655172 C123.364345,30.4655172 123.705348,30.6096552 123.980773,30.8848276 C124.243083,31.1731034 124.387354,31.5268966 124.387354,31.9593103 Z" id="Shape" fill="#FFFFFF"></path>
                        <polygon id="Shape" fill="#FFFFFF" points="128.177732 34.2393103 129.266318 31.1206897 130.354904 34.2393103 131.456605 34.2393103 133.030465 29.6793103 132.033687 29.6793103 130.905754 33.1255172 129.764706 29.6793103 128.767929 29.6793103 127.626881 33.1255172 126.498948 29.6793103 125.502171 29.6793103 127.07603 34.2393103"></polygon>
                        <path d="M82.4308854,7.28551724 C80.5684851,5.47724138 78.2732735,4.57310345 75.5321351,4.57310345 C72.7909966,4.57310345 70.495785,5.47724138 68.6333848,7.28551724 C66.7709845,9.0937931 65.8397843,11.3475862 65.8397843,14.06 C65.8397843,16.7593103 66.7709845,19.0131034 68.6333848,20.8213793 C70.495785,22.6296552 72.7909966,23.5337931 75.5321351,23.5337931 C78.2732735,23.5337931 80.5684851,22.6296552 82.4308854,20.8213793 C84.2932857,19.0131034 85.2244858,16.7593103 85.2244858,14.06 C85.2244858,11.3475862 84.2932857,9.0937931 82.4308854,7.28551724 Z M80.1619048,18.7641379 C78.9028173,20.0613793 77.3683044,20.7034483 75.5452506,20.7034483 C73.7221968,20.7034483 72.1745684,20.0613793 70.9285964,18.7641379 C69.6695089,17.4668966 69.0399651,15.9075862 69.0399651,14.06 C69.0399651,12.2124138 69.6695089,10.64 70.9285964,9.35586207 C72.1876839,8.05862069 73.7221968,7.41655172 75.5452506,7.41655172 C77.3683044,7.41655172 78.9159327,8.05862069 80.1619048,9.35586207 C81.4209923,10.6531034 82.050536,12.2255172 82.050536,14.06 C82.0374205,15.8944828 81.4078768,17.4668966 80.1619048,18.7641379 Z" id="Shape" fill="#FFFFFF"></path>
                        <path d="M150.303571,13.6013793 C150.211763,11.0986207 149.280563,8.98896552 147.523087,7.28551724 C145.660686,5.47724138 143.365475,4.57310345 140.624336,4.57310345 C137.883198,4.57310345 135.587986,5.47724138 133.725586,7.28551724 C131.863186,9.0937931 130.931985,11.3475862 130.931985,14.06 C130.931985,16.7593103 131.863186,19.0131034 133.725586,20.8213793 C135.587986,22.6296552 137.883198,23.5337931 140.624336,23.5337931 C143.365475,23.5337931 145.660686,22.6296552 147.523087,20.8213793 C149.280563,19.117931 150.211763,17.0082759 150.303571,14.5055172 L150.303571,13.6013793 Z M145.24099,18.7641379 C143.981903,20.0613793 142.44739,20.7034483 140.624336,20.7034483 C138.801282,20.7034483 137.253654,20.0613793 136.007682,18.7641379 C134.748594,17.4668966 134.119051,15.9075862 134.119051,14.06 C134.119051,12.2124138 134.748594,10.64 136.007682,9.35586207 C137.26677,8.07172414 138.801282,7.41655172 140.624336,7.41655172 C142.44739,7.41655172 143.995018,8.05862069 145.24099,9.35586207 C146.500078,10.6531034 147.129622,12.2255172 147.129622,14.06 C147.129622,15.8944828 146.500078,17.4668966 145.24099,18.7641379 Z" id="Shape" fill="#FFFFFF"></path>
                        <path d="M102.654978,23.3634483 C102.654978,23.5075862 102.773018,23.6255172 102.917288,23.6255172 L105.553503,23.6255172 C105.697773,23.6255172 105.815813,23.5075862 105.815813,23.3634483 L105.815813,12.54 C105.815813,8.16344828 102.248398,4.61241379 97.8547074,4.61241379 L97.3432031,4.61241379 C92.9495123,4.61241379 89.3820977,8.16344828 89.3820977,12.54 L89.3820977,23.3634483 C89.3820977,23.5075862 89.5001371,23.6255172 89.6444076,23.6255172 L92.2675065,23.6255172 C92.411777,23.6255172 92.5298164,23.5075862 92.5298164,23.3634483 L92.5298164,12.54 C92.5298164,9.89310345 94.6807576,7.74413793 97.3432031,7.74413793 L97.8547074,7.74413793 C100.517153,7.74413793 102.668094,9.89310345 102.668094,12.54 L102.668094,23.3634483 L102.654978,23.3634483 Z" id="Shape" fill="#FFFFFF"></path>
                        <path d="M127.141607,21.017931 L127.141607,14.4268966 C127.141607,14.3089655 127.049799,14.2172414 126.93176,14.2172414 L120.452705,14.2172414 C120.334666,14.2172414 120.242857,14.3089655 120.242857,14.4268966 L120.242857,16.7593103 C120.242857,16.8772414 120.334666,16.9689655 120.452705,16.9689655 L124.16439,16.9689655 C124.28243,16.9689655 124.374238,17.0606897 124.374238,17.1786207 L124.374238,19.3144828 C124.374238,19.3931034 124.334892,19.4586207 124.269314,19.497931 C122.944649,20.257931 121.410136,20.7165517 120.046125,20.7165517 C116.203285,20.7165517 113.173605,17.7944828 113.173605,14.0468966 C113.173605,10.3255172 116.177054,7.40344828 120.019894,7.40344828 C121.908525,7.40344828 123.849618,8.15034483 125.279207,9.39517241 C125.371016,9.4737931 125.502171,9.46068966 125.580864,9.36896552 L127.128492,7.37724138 C127.194069,7.28551724 127.180954,7.15448276 127.102261,7.08896552 C125.252976,5.55586207 122.642993,4.59931034 120.033009,4.59931034 C114.340884,4.59931034 109.960309,8.70068966 109.960309,14.0468966 C109.960309,19.3931034 114.288422,23.5468966 119.849392,23.5468966 C122.393798,23.5468966 125.161168,22.5903448 127.07603,21.1751724 C127.115376,21.1489655 127.141607,21.0834483 127.141607,21.017931 Z" id="Shape" fill="#FFFFFF"></path>
                        <path d="M47.8059789,5.35931034 C47.8059789,5.37241379 47.8190944,5.38551724 47.8190944,5.39862069 L54.5604587,16.9165517 C54.5735742,16.9427586 54.5866897,16.982069 54.5866897,17.0213793 L54.5866897,23.4158621 C54.5866897,23.5337931 54.6784982,23.6255172 54.7965376,23.6255172 L57.4589831,23.6255172 C57.5770226,23.6255172 57.668831,23.5337931 57.668831,23.4158621 L57.668831,17.0213793 C57.668831,16.982069 57.6819465,16.9558621 57.695062,16.9165517 L64.4364264,5.39862069 C64.5151194,5.26758621 64.4101954,5.09724138 64.2528095,5.09724138 L61.2755921,5.09724138 C61.1968992,5.09724138 61.1313217,5.13655172 61.0919752,5.20206897 L56.3048196,13.3131034 C56.2654731,13.3786207 56.1998956,13.417931 56.1212026,13.417931 C56.0556252,13.417931 55.9769322,13.3786207 55.9375857,13.3131034 L51.1504301,5.20206897 C51.1110836,5.13655172 51.0455061,5.09724138 50.9668131,5.09724138 L48.0027113,5.09724138 C47.9109028,5.09724138 47.8322099,5.16275862 47.8059789,5.24137931 L47.8059789,5.35931034 Z" id="Shape" fill="#FFFFFF"></path>
                    </g>
                </g>
            </g>
        </g>
    </g>
</svg>